<?xml version="1.0" standalone="no"?>
<!DOCTYPE svg PUBLIC "-//W3C//DTD SVG 1.1//EN" "http://www.w3.org/Graphics/SVG/1.1/DTD/svg11.dtd" >
<svg xmlns="http://www.w3.org/2000/svg" xmlns:xlink="http://www.w3.org/1999/xlink" version="1.1">
<metadata>
Created by FontForge 20150318 at Tue Sep 29 14:07:22 2015
 By uniteet7
Font software Copyright 1990, 1991, 1998 Adobe Systems Incorporated. Typeface designs Copyright The Monotype Corporation. All rights reserved.
</metadata>
<defs>
<font id="gillsansmtprobolditalicopentype" horiz-adv-x="323" >
  <font-face 
    font-family="gillsansmtprobolditalicopentype"
    font-weight="700"
    font-style="italic"
    font-stretch="normal"
    units-per-em="1000"
    panose-1="2 11 8 2 2 1 4 9 2 3"
    ascent="682"
    descent="-318"
    x-height="454"
    cap-height="682"
    bbox="-190 -237 1074 959"
    underline-thickness="50"
    underline-position="-50"
    slope="-8"
    unicode-range="U+0020-FB04"
  />
<missing-glyph horiz-adv-x="500" 
d="M12 0v665h475v-665h-475zM88 618l162 -243l161 243h-323zM60 575v-484l40 61l80 120l41 61zM440 575l-162 -242l162 -243v485zM411 48l-161 242l-162 -242h323z" />
    <glyph glyph-name="f_f" unicode="ff" horiz-adv-x="625" 
d="M635 454l-13 -99h-82l-78 -554h-135l79 554h-156l-77 -554h-135l79 554h-103l12 99h106q11 113 62 171q29 34 73.5 50t88.5 16q35 0 66 -12.5t43.5 -22t31.5 -27.5q19 18 33.5 28.5t49 22t77.5 11.5q48 0 88 -15l-15 -111q-47 10 -70 10q-39 0 -63.5 -22t-32.5 -46.5
t-9 -52.5h80zM266 454h154q5 43 19 79q-31 42 -85 42q-32 0 -58 -26q-19 -20 -30 -95z" />
    <glyph glyph-name="fi" unicode="fi" horiz-adv-x="583" 
d="M345 454l-14 -102h-82l-78 -551h-135l78 551h-78l15 102h78q14 93 43 138q25 41 68 65.5t70.5 29t52.5 4.5q47 0 97.5 -20.5t76.5 -65.5q21 -36 21 -97h-128q-9 65 -69 65q-47 0 -70 -37t-27 -82h81zM551 454l-64 -454h-133l64 454h133z" />
    <glyph glyph-name="fl" unicode="fl" horiz-adv-x="583" 
d="M346 454l-14 -99h-84l-77 -554h-135l78 554h-78l16 99h76q9 50 12.5 66t11 35.5t20.5 39.5q27 41 69.5 64.5t67.5 27.5t48 4q32 0 57 -9l-17 -113q-21 7 -36 7q-11 0 -21.5 -3t-28.5 -13t-31 -37.5t-17 -68.5h83zM585 682l-99 -682h-133l98 682h134z" />
    <glyph glyph-name="f_f_i" unicode="ffi" horiz-adv-x="875" 
d="M632 454l-14 -101h-83l-77 -552h-135l78 552h-156l-78 -552h-130l77 552h-77l18 101h73q12 61 21.5 92t27.5 58q61 87 169 87q84 0 147 -60q69 60 160 60q62 0 111.5 -29t68.5 -77q13 -34 11 -76h-127q-8 64 -69 64q-23 0 -40.5 -10.5t-27 -22.5t-17 -32.5t-9 -29
t-4.5 -24.5h82zM261 454h155q6 51 18 81q-35 41 -83 41q-73 0 -90 -122zM838 454l-65 -454h-132l64 454h133z" />
    <glyph glyph-name="f_f_l" unicode="ffl" horiz-adv-x="875" 
d="M636 454l-12 -103h-84l-79 -550h-134l79 550h-156l-79 -550h-134l81 550h-75l17 103h72q1 2 8.5 41t9.5 46q20 64 73 107t126 43q87 0 147 -62q79 55 152 55q30 0 56 -8l-16 -111q-31 7 -41 7q-42 0 -72 -46q-15 -25 -21 -72h82zM265 454h154q9 52 19 80q-32 40 -83 40
q-25 0 -42.5 -12.5t-27 -35.5t-13 -36.5t-7.5 -35.5zM875 682l-98 -682h-133l98 682h133z" />
    <glyph glyph-name=".notdef" horiz-adv-x="500" 
d="M12 0v665h475v-665h-475zM88 618l162 -243l161 243h-323zM60 575v-484l40 61l80 120l41 61zM440 575l-162 -242l162 -243v485zM411 48l-161 242l-162 -242h323z" />
    <glyph glyph-name=".null" horiz-adv-x="0" 
 />
    <glyph glyph-name="nonmarkingreturn" horiz-adv-x="333" 
 />
    <glyph glyph-name="space" unicode=" " horiz-adv-x="281" 
 />
    <glyph glyph-name="exclam" unicode="!" horiz-adv-x="260" 
d="M159 213h-80l17 304q6 121 38 153q21 21 51 21t47 -19.5t17 -53.5q0 -44 -18 -116zM101 160q35 0 59.5 -25t24.5 -59t-24.5 -59t-59.5 -25t-59.5 25t-24.5 59t24.5 59t59.5 25z" />
    <glyph glyph-name="quotedbl" unicode="&#x22;" horiz-adv-x="479" 
d="M326 716v-121l24 -134h87l24 134v121h-135zM199 461l24 134v121h-135v-121l24 -134h87z" />
    <glyph glyph-name="numbersign" unicode="#" horiz-adv-x="667" 
d="M89 210l27 131h-122v111h145l38 179h113l-38 -179h154l38 179h111l-38 -179h74v-111h-96l-27 -131h123v-111h-147l-38 -179h-111l37 179h-153l-37 -179h-114l38 179h-72v111h95zM202 210h153l27 131h-153z" />
    <glyph glyph-name="dollar" unicode="$" horiz-adv-x="490" 
d="M266 654l5 37h78l-6 -43q74 -17 130 -54l-14 -99q-60 38 -129 56l-25 -178q76 -44 107.5 -86t31.5 -98q0 -75 -53 -132t-140 -66l-16 -114h-78l16 118q-82 14 -160 58l18 101q79 -51 156 -62l27 194q-72 39 -105.5 81t-33.5 101q0 71 50 123t141 63zM233 417l19 137
q-66 -20 -66 -71q0 -34 47 -66zM286 242l-20 -147q66 24 66 79q0 42 -46 68z" />
    <glyph glyph-name="percent" unicode="%" horiz-adv-x="719" 
d="M269 530q0 31 -21 53t-50 22q-30 0 -50.5 -21.5t-20.5 -53.5q0 -30 21 -52.5t50 -22.5q30 0 50.5 21.5t20.5 53.5zM359 530q0 -66 -47 -113.5t-114 -47.5t-114 47.5t-47 113.5q0 67 47 114t114 47t114 -47t47 -114zM174 -8h-83l480 699h80zM707 152q0 -66 -47 -113.5
t-114 -47.5t-114 47.5t-47 113.5q0 67 47 114t114 47t114 -47t47 -114zM617 152q0 31 -21 53t-50 22q-30 0 -50.5 -21.5t-20.5 -53.5q0 -30 21 -52.5t50 -22.5q30 0 50.5 21.5t20.5 53.5z" />
    <glyph glyph-name="ampersand" unicode="&#x26;" horiz-adv-x="729" 
d="M556 306h132q-37 -94 -113 -172q40 -17 89 -17h42l-46 -117q-36 -17 -99.5 -4.5t-111.5 49.5q-96 -55 -193 -55q-104 0 -172.5 59.5t-68.5 148.5q0 85 64 147.5t192 80.5q-9 127 54 196t169 69q74 0 121 -40.5t47 -104.5q0 -151 -242 -193q24 -88 63 -148q51 43 73 101z
M554 548q0 26 -19 43t-49 17q-41 0 -64.5 -28.5t-23.5 -79.5q0 -27 6 -51q85 17 117.5 41.5t32.5 57.5zM165 210q0 -49 33 -79.5t84 -30.5q44 0 89 22q-61 98 -83 202q-58 -10 -90.5 -40t-32.5 -74z" />
    <glyph glyph-name="quotesingle" unicode="'" horiz-adv-x="240" 
d="M83 716v-121l24 -134h87l24 134v121h-135z" />
    <glyph glyph-name="parenleft" unicode="(" horiz-adv-x="344" 
d="M248 -230h-103q-101 220 -101 383q0 263 231 538h102q-89 -112 -141 -267t-52 -312q0 -191 64 -342z" />
    <glyph glyph-name="parenright" unicode=")" horiz-adv-x="344" 
d="M92 691h103q101 -220 101 -383q0 -264 -231 -538h-102q89 112 141 267t52 312q0 191 -64 342z" />
    <glyph glyph-name="asterisk" unicode="*" horiz-adv-x="479" 
d="M399 344l-107 110l-12 -11l44 -142q11 -37 -26 -37h-61q-20 0 -27 8t-1 29l44 142l-12 11l-99 -102q-20 -20 -29.5 -22t-20.5 16l-28 53q-19 36 15 44l152 33v2l-152 34q-33 8 -17 40l30 57q7 13 11.5 16t13.5 -1.5t25 -20.5l99 -102l12 11l-44 142q-12 37 28 37h58
q22 0 28.5 -8.5t0.5 -28.5l-44 -142l12 -11l99 102q22 22 30 23t20 -20l25 -45q23 -42 -12 -49l-152 -34v-2l152 -33q36 -8 14 -46l-26 -47q-8 -14 -13.5 -18.5t-12 -1.5t-17.5 14z" />
    <glyph glyph-name="plus" unicode="+" horiz-adv-x="584" 
d="M369 103h-128v186h-186v128h186v186h128v-186h186v-128h-186v-186z" />
    <glyph glyph-name="comma" unicode="," horiz-adv-x="260" 
d="M-45 -145l15 61q64 15 86 72q-48 27 -48 76q0 34 24 57t60 23q40 0 68 -31t28 -74q0 -72 -64 -128t-169 -56z" />
    <glyph glyph-name="hyphen" unicode="-" horiz-adv-x="344" 
d="M318 156h-312l19 138h313z" />
    <glyph glyph-name="period" unicode="." horiz-adv-x="260" 
d="M95 160q35 0 59.5 -25t24.5 -59t-24.5 -59t-59.5 -25t-59.5 25t-24.5 59t24.5 59t59.5 25z" />
    <glyph glyph-name="slash" unicode="/" horiz-adv-x="281" 
d="M187 691h103l-171 -700h-101z" />
    <glyph glyph-name="zero" unicode="0" horiz-adv-x="531" 
d="M505 434q0 -69 -16.5 -144t-48 -143t-85 -112t-118.5 -44q-86 0 -135 68.5t-49 188.5q0 73 16.5 148.5t47.5 142.5t84 109.5t119 42.5q87 0 136 -68t49 -189zM365 474q0 45 -15.5 67.5t-38.5 22.5q-41 0 -69.5 -73t-38.5 -148.5t-10 -131.5q0 -93 55 -93q39 0 67.5 80
t39 157t10.5 119z" />
    <glyph glyph-name="one" unicode="1" horiz-adv-x="531" 
d="M303 0h-141l96 682h141z" />
    <glyph glyph-name="two" unicode="2" horiz-adv-x="531" 
d="M29 0v22q173 228 234.5 326t61.5 148q0 29 -21 48.5t-53 19.5q-48 0 -145 -62l19 137q68 52 152 52q86 0 137 -52.5t51 -129.5q0 -71 -40 -142t-155 -228h170l-19 -139h-392z" />
    <glyph glyph-name="three" unicode="3" horiz-adv-x="531" 
d="M144 288l18 130q47 -11 77 -11q47 0 78.5 24t31.5 60q0 32 -23.5 52.5t-61.5 20.5q-59 0 -161 -45l19 135q83 37 162 37q91 0 148 -49.5t57 -128.5q0 -62 -29 -104.5t-84 -60.5q80 -42 80 -143q0 -95 -71 -154.5t-184 -59.5q-79 0 -172 43l18 130q88 -46 150 -46
q46 0 77.5 26.5t31.5 64.5t-30 61t-80 23q-23 0 -52 -5z" />
    <glyph glyph-name="four" unicode="4" horiz-adv-x="531" 
d="M29 157v114l336 420h113l-62 -441h74l-13 -93h-74l-22 -157h-141l22 157h-233zM124 250h151l32 224l-2 2z" />
    <glyph glyph-name="five" unicode="5" horiz-adv-x="531" 
d="M23 42l40 127q42 -29 71.5 -40t63.5 -11q51 0 84.5 28.5t33.5 72.5q0 46 -35.5 73t-95.5 27q-37 0 -77 -6l62 369h316l-20 -139h-179l-16 -112q97 -11 141 -66t44 -135q0 -107 -70.5 -173t-185.5 -66q-99 0 -177 51z" />
    <glyph glyph-name="six" unicode="6" horiz-adv-x="531" 
d="M277 416l2 -2q33 13 66 13q67 0 109.5 -49.5t42.5 -127.5q0 -109 -70.5 -184t-174.5 -75q-94 0 -150.5 58.5t-56.5 154.5q0 58 20.5 113.5t70.5 130.5l154 234h159zM357 240q0 31 -18.5 50t-47.5 19q-43 0 -74.5 -34t-31.5 -82q0 -33 19.5 -54t50.5 -21q41 0 71.5 36.5
t30.5 85.5z" />
    <glyph glyph-name="seven" unicode="7" horiz-adv-x="531" 
d="M317 543h-224l27 139h400l-269 -682h-149z" />
    <glyph glyph-name="eight" unicode="8" horiz-adv-x="531" 
d="M111 497q0 81 61.5 137.5t150.5 56.5q79 0 130 -47t51 -118q0 -53 -31.5 -99.5t-93.5 -74.5q46 -20 71.5 -60.5t25.5 -91.5q0 -88 -65.5 -148.5t-159.5 -60.5q-92 0 -151 53.5t-59 136.5q0 36 13 73t45.5 70.5t78.5 43.5q-67 48 -67 129zM364 511q0 23 -14.5 38t-36.5 15
q-31 0 -49.5 -29.5t-18.5 -66.5q0 -22 13.5 -36t36.5 -14q33 0 51 28.5t18 64.5zM336 219q0 32 -19.5 52t-49.5 20q-35 0 -60.5 -29.5t-25.5 -71.5q0 -32 19 -52t49 -20q36 0 61.5 29t25.5 72z" />
    <glyph glyph-name="nine" unicode="9" horiz-adv-x="531" 
d="M280 268l-2 2q-35 -13 -65 -13q-67 0 -110.5 49t-43.5 126q0 45 15.5 90t44.5 83t77 62t108 24q95 0 150.5 -58t55.5 -156q0 -106 -84 -233l-161 -244h-158zM370 491q0 31 -20.5 52t-50.5 21q-39 0 -69.5 -37.5t-30.5 -85.5q0 -30 19 -48t50 -18q48 0 75 38t27 78z" />
    <glyph glyph-name="colon" unicode=":" horiz-adv-x="260" 
d="M149 462q35 0 59.5 -25t24.5 -59t-24.5 -59t-59.5 -25t-59.5 25t-24.5 59t24.5 59t59.5 25zM95 160q35 0 59.5 -25t24.5 -59t-24.5 -59t-59.5 -25t-59.5 25t-24.5 59t24.5 59t59.5 25z" />
    <glyph glyph-name="semicolon" unicode=";" horiz-adv-x="260" 
d="M-45 -145l15 61q64 15 86 72q-48 27 -48 76q0 34 24 57t60 23q40 0 68 -31t28 -74q0 -72 -64 -128t-169 -56zM149 462q35 0 59.5 -25t24.5 -59t-24.5 -59t-59.5 -25t-59.5 25t-24.5 59t24.5 59t59.5 25z" />
    <glyph glyph-name="less" unicode="&#x3c;" horiz-adv-x="584" 
d="M208 355l343 -136v-137l-491 213v120l491 213v-137z" />
    <glyph glyph-name="equal" unicode="=" horiz-adv-x="584" 
d="M55 308h500v-128h-500v128zM55 526h500v-128h-500v128z" />
    <glyph glyph-name="greater" unicode="&#x3e;" horiz-adv-x="584" 
d="M59 491v137l491 -213v-120l-491 -213v137l343 136z" />
    <glyph glyph-name="question" unicode="?" 
d="M38 512l19 132q75 47 144 47q70 0 117 -46.5t47 -114.5q0 -45 -17 -81t-42 -61t-51.5 -48.5t-48 -55t-28.5 -68.5h-106q1 44 17 84t38.5 68t44.5 52t37.5 47.5t15.5 44.5t-16 34.5t-41 13.5q-49 0 -130 -48zM121 160q35 0 59.5 -25t24.5 -59t-24.5 -59t-59.5 -25
t-59.5 25t-24.5 59t24.5 59t59.5 25z" />
    <glyph glyph-name="at" unicode="@" horiz-adv-x="979" 
d="M486 528q90 0 131 -65l12 54h129l-78 -370q-9 -47 16 -47q20 0 48.5 20t56 52.5t47 82.5t19.5 102q0 39 -10 77t-34.5 76t-61.5 66.5t-96 46.5t-132 18q-86 0 -156.5 -25.5t-115.5 -67t-75.5 -96.5t-43.5 -110t-13 -111q0 -88 33.5 -157t91 -111.5t130.5 -64t157 -21.5
q232 0 337 132h104q-52 -106 -163 -162t-266 -56q-72 0 -142 14t-138.5 47.5t-119.5 83t-82.5 125.5t-31.5 169q0 67 16 134t54.5 133.5t94.5 116.5t143 81.5t194 31.5q185 0 300.5 -103t115.5 -269q0 -89 -39.5 -169.5t-115.5 -133t-169 -52.5q-75 0 -89 56
q-56 -56 -132 -56q-83 0 -135.5 57t-52.5 148q0 54 17.5 109.5t49 104t83 79t112.5 30.5zM350 203q0 -52 24 -83t64 -31t71.5 27.5t48 68t24.5 77.5t8 65q0 52 -25 83.5t-66 31.5q-69 0 -109 -75t-40 -164z" />
    <glyph glyph-name="A" unicode="A" horiz-adv-x="625" 
d="M138 0h-160l334 691h154l120 -691h-149l-21 149h-212zM246 246h158l-36 302h-2z" />
    <glyph glyph-name="B" unicode="B" horiz-adv-x="635" 
d="M378 0h-334l96 682h217q121 0 173.5 -48t52.5 -117q0 -102 -98 -152q59 -17 93 -63t34 -104q0 -33 -13.5 -66.5t-40.5 -63.5t-74 -49t-106 -19zM270 568l-23 -150h98q49 0 73.5 23t24.5 58q0 69 -97 69h-76zM232 304l-29 -190h138q63 0 92 28.5t29 71.5q0 45 -35.5 67.5
t-91.5 22.5h-103z" />
    <glyph glyph-name="C" unicode="C" horiz-adv-x="674" 
d="M637 197l-21 -152q-123 -54 -240 -54q-148 0 -240 86t-92 226q0 172 124 280.5t321 108.5q81 0 185 -26l-24 -126q-81 25 -165 25q-78 0 -137 -26t-91 -67.5t-47.5 -85t-15.5 -86.5q0 -84 52.5 -133t142.5 -49q110 0 248 79z" />
    <glyph glyph-name="D" unicode="D" horiz-adv-x="743" 
d="M139 682h227q97 0 169 -30.5t110 -81t55.5 -105.5t17.5 -115q0 -151 -92.5 -250.5t-229.5 -99.5h-352zM268 568l-63 -454h136q113 0 170 70t57 168q0 94 -60.5 155t-169.5 61h-70z" />
    <glyph glyph-name="E" unicode="E" horiz-adv-x="585" 
d="M543 0h-499l96 682h426l-16 -114h-281l-23 -161h247l-16 -114h-247l-25 -179h354z" />
    <glyph glyph-name="F" unicode="F" horiz-adv-x="492" 
d="M189 0h-145l96 682h393l-17 -114h-247l-22 -162h213l-16 -114h-213z" />
    <glyph glyph-name="G" unicode="G" horiz-adv-x="743" 
d="M405 251l15 108h270l-49 -348q-71 -20 -212 -20q-102 0 -179 26.5t-120.5 72t-64.5 98t-21 111.5q0 54 16 107t54 105.5t93 92t140 64t188 24.5q110 0 198 -26l-17 -126q-93 25 -181 25q-151 0 -246 -72.5t-95 -188.5q0 -91 60.5 -138.5t156.5 -47.5q54 0 102 12l17 121
h-125z" />
    <glyph glyph-name="H" unicode="H" horiz-adv-x="792" 
d="M247 412h347l38 270h145l-96 -682h-145l40 278h-348l-39 -278h-145l96 682h145z" />
    <glyph glyph-name="I" unicode="I" horiz-adv-x="300" 
d="M189 0h-145l96 682h145z" />
    <glyph glyph-name="J" unicode="J" horiz-adv-x="302" 
d="M-82 -227l16 113q53 1 78 24t34 84l97 688h145l-101 -717q-16 -112 -82.5 -159t-186.5 -33z" />
    <glyph glyph-name="K" unicode="K" horiz-adv-x="666" 
d="M244 391l2 -2l288 293h172l-306 -308l265 -374h-168l-257 362l-51 -362h-145l96 682h145z" />
    <glyph glyph-name="L" unicode="L" horiz-adv-x="535" 
d="M499 0h-455l96 682h145l-80 -568h310z" />
    <glyph glyph-name="M" unicode="M" horiz-adv-x="948" 
d="M368 682l110 -429l230 429h154l32 -682h-140l-21 461h-2l-253 -461h-69l-120 474h-2l-154 -474h-146l222 682h159z" />
    <glyph glyph-name="N" unicode="N" horiz-adv-x="783" 
d="M560 237h2l61 445h145l-95 -682h-138l-280 462h-2l-64 -462h-145l96 682h145z" />
    <glyph glyph-name="O" unicode="O" horiz-adv-x="797" 
d="M781 380q0 -174 -110.5 -281.5t-282.5 -107.5q-149 0 -246.5 89t-97.5 228q0 166 114 275t287 109q149 0 242.5 -87t93.5 -225zM631 370q0 85 -55.5 140t-140.5 55q-99 0 -170 -73.5t-71 -176.5q0 -88 54.5 -142.5t140.5 -54.5q101 0 171.5 73t70.5 179z" />
    <glyph glyph-name="P" unicode="P" horiz-adv-x="581" 
d="M225 257l-36 -257h-145l95 682h223q97 0 161 -52.5t64 -150.5q0 -61 -21.5 -106t-58.5 -69.5t-78.5 -35.5t-88.5 -11h-115zM269 574l-29 -210h61q68 0 102 30.5t34 78.5q0 45 -33 73t-100 28h-35z" />
    <glyph glyph-name="Q" unicode="Q" horiz-adv-x="797" 
d="M656 -81l21 -13l-115 -114q-181 42 -324 226q-32 17 -52 29.5t-50 38.5t-47.5 53.5t-31 72t-13.5 96.5q0 166 114.5 275t287.5 109q151 0 243 -86.5t92 -228.5q0 -137 -83.5 -245.5t-240.5 -132.5q33 -41 95 -68.5t104 -11.5zM631 368q0 81 -52.5 139t-142.5 58
q-101 0 -171.5 -73.5t-70.5 -179.5q0 -87 54 -141t140 -54q104 0 173.5 74.5t69.5 176.5z" />
    <glyph glyph-name="R" unicode="R" horiz-adv-x="647" 
d="M227 276l-38 -276h-145l95 682h234q62 0 108.5 -20t72 -51.5t37.5 -65.5t12 -68q0 -66 -38.5 -115t-113.5 -63v-2q26 -11 41 -29t31 -51l105 -217h-160l-65 138q-43 92 -67.5 115t-77.5 23h-31zM268 568l-26 -186h72q69 0 104 29t35 70t-30 64t-84 23h-71z" />
    <glyph glyph-name="S" unicode="S" horiz-adv-x="523" 
d="M22 56l22 119q42 -30 96.5 -50t96.5 -20q44 0 71 20.5t27 54.5q0 31 -26 57.5t-63 48t-73.5 46.5t-62.5 64t-26 89q0 89 68.5 147.5t171.5 58.5q104 0 195 -54l-20 -120q-34 25 -82.5 42.5t-86.5 17.5q-41 0 -68.5 -21t-27.5 -54q0 -26 26 -49.5t63 -44.5t73.5 -46.5
t62.5 -67t26 -94.5q0 -88 -61 -148.5t-170 -60.5q-133 0 -232 65z" />
    <glyph glyph-name="T" unicode="T" horiz-adv-x="599" 
d="M273 568h-216l16 114h583l-16 -114h-222l-80 -568h-145z" />
    <glyph glyph-name="U" unicode="U" horiz-adv-x="750" 
d="M273 682l-55 -386q-6 -44 2 -77.5t24.5 -52t40 -30t44 -15t41.5 -3.5q65 0 112.5 36t58.5 115l58 413h145l-60 -425q-37 -266 -314 -266q-169 0 -243.5 83.5t-54.5 219.5l56 388h145z" />
    <glyph glyph-name="V" unicode="V" horiz-adv-x="558" 
d="M284 281h2l183 401h149l-333 -691h-71l-142 691h138z" />
    <glyph glyph-name="W" unicode="W" horiz-adv-x="938" 
d="M665 281h2l184 401h147l-336 -691h-59l-110 422l-230 -422h-60l-139 691h137l72 -401h2l217 401h71z" />
    <glyph glyph-name="X" unicode="X" horiz-adv-x="677" 
d="M231 682l136 -224l195 224h180l-302 -347l202 -335h-159l-137 227l-203 -227h-180l309 350l-200 332h159z" />
    <glyph glyph-name="Y" unicode="Y" horiz-adv-x="554" 
d="M213 682l88 -263l158 263h155l-257 -396l-40 -286h-145l40 286l-144 396h145z" />
    <glyph glyph-name="Z" unicode="Z" horiz-adv-x="635" 
d="M425 568h-331l17 114h588l-455 -568h339l-16 -114h-598z" />
    <glyph glyph-name="bracketleft" unicode="[" horiz-adv-x="375" 
d="M291 -221h-260l127 903h260l-16 -114h-130l-94 -675h129z" />
    <glyph glyph-name="backslash" unicode="\" horiz-adv-x="281" 
d="M189 -9l-171 700h103l169 -700h-101z" />
    <glyph glyph-name="bracketright" unicode="]" horiz-adv-x="375" 
d="M80 682h260l-127 -903h-260l16 114h130l94 675h-129z" />
    <glyph glyph-name="asciicircum" unicode="^" horiz-adv-x="583" 
d="M400 292l-96 239l-96 -239h-140l184 390h108l179 -390h-139z" />
    <glyph glyph-name="underscore" unicode="_" horiz-adv-x="500" 
d="M506 -75v-50h-512v50h512z" />
    <glyph glyph-name="grave" unicode="`" horiz-adv-x="333" 
d="M221 510l-177 172h161l89 -172h-73z" />
    <glyph glyph-name="a" unicode="a" horiz-adv-x="543" 
d="M314 0l6 42q-63 -50 -131 -50q-69 0 -114 54.5t-45 139.5q0 52 17.5 99t54.5 87.5t103 64.5t154 24q82 0 153 -14l-63 -447h-135zM333 132l30 216q-1 0 -12.5 1.5t-16.5 1.5q-40 0 -71 -13t-48 -32t-28 -44t-14 -44.5t-3 -38.5q0 -41 17.5 -64t48.5 -23q49 0 97 40z" />
    <glyph glyph-name="b" unicode="b" horiz-adv-x="541" 
d="M262 682l-39 -274q63 54 123 54q73 0 121 -58t48 -146q0 -50 -17 -96t-51 -85t-92 -62.5t-132 -23.5q-110 0 -191 15l95 676h135zM208 298l-28 -194q24 -3 46 -3q76 0 112.5 39.5t36.5 111.5q0 46 -21.5 73t-56.5 27q-44 0 -89 -54z" />
    <glyph glyph-name="c" unicode="c" horiz-adv-x="456" 
d="M417 131l-16 -123q-66 -17 -140 -17q-102 0 -166.5 61t-64.5 158q0 107 84 179.5t207 72.5q75 0 125 -16l-17 -122q-43 16 -56 18q-9 2 -42 2q-68 0 -114.5 -40t-46.5 -99q0 -50 31 -77t87 -27q53 0 129 30z" />
    <glyph glyph-name="d" unicode="d" horiz-adv-x="539" 
d="M544 682l-95 -676q-87 -15 -156 -15q-121 0 -192 59t-71 159q0 101 74 177t208 76q19 0 66 -5l31 225h135zM328 106l33 236q-24 2 -34 2q-75 0 -116 -40.5t-41 -95.5q0 -50 32.5 -78.5t88.5 -28.5q14 0 37 5z" />
    <glyph glyph-name="e" unicode="e" horiz-adv-x="501" 
d="M438 137l-24 -113q-88 -33 -158 -33q-103 0 -164.5 60t-61.5 161q0 104 71.5 177t174.5 73q106 0 158.5 -72.5t28.5 -181.5h-297q-5 -54 24.5 -85.5t79.5 -31.5q55 0 168 46zM179 286h159q6 37 -12 60t-53 23q-65 0 -94 -83z" />
    <glyph glyph-name="f" unicode="f" horiz-adv-x="333" 
d="M117 354h-92l14 100h93q13 119 72 178t143 59q51 0 109 -23l-15 -109q-44 22 -76 22q-89 0 -98 -127h87l-14 -100h-88l-78 -553h-135z" />
    <glyph glyph-name="g" unicode="g" horiz-adv-x="490" 
d="M-11 -118q0 67 112 102q-28 13 -45 36t-17 48q0 39 33 61q20 13 58 23q-80 47 -80 131q0 67 55 119t147 52h254l-13 -100h-73q18 -39 18 -72q0 -67 -50 -117t-141 -50q-49 0 -65.5 -4.5t-16.5 -18.5t28 -21t68.5 -13.5t81 -18t68.5 -42.5t28 -79q0 -147 -234 -147
q-118 0 -167 32.5t-49 78.5zM312 298q0 30 -17 47.5t-46 17.5q-73 0 -73 -100q0 -30 16.5 -46t45.5 -16q74 0 74 97zM190 -43q-83 -11 -83 -53q0 -47 100 -47q57 0 81.5 10t24.5 33q0 21 -21.5 30.5t-76.5 21.5q-16 3 -25 5z" />
    <glyph glyph-name="h" unicode="h" horiz-adv-x="549" 
d="M165 0h-135l96 682h135l-40 -280q71 60 152 60q66 0 100 -44.5t23 -123.5l-41 -294h-135l41 291q3 25 -8 43t-34 18q-47 0 -113 -57z" />
    <glyph glyph-name="i" unicode="i" horiz-adv-x="262" 
d="M164 0h-135l64 454h135zM176 650q29 0 49.5 -20.5t20.5 -49.5t-20.5 -49.5t-49.5 -20.5t-49.5 20.5t-20.5 49.5t20.5 49.5t49.5 20.5z" />
    <glyph glyph-name="j" unicode="j" horiz-adv-x="258" 
d="M-76 -224l16 108q39 0 57 19t25 68l68 483h135l-71 -504q-14 -97 -64 -138.5t-117 -41.5q-25 0 -49 6zM172 650q29 0 49.5 -20.5t20.5 -49.5t-20.5 -49.5t-49.5 -20.5t-49.5 20.5t-20.5 49.5t20.5 49.5t49.5 20.5z" />
    <glyph glyph-name="k" unicode="k" horiz-adv-x="540" 
d="M167 0h-135l96 682h135l-60 -422l2 -2l162 196h167l-180 -216l175 -238h-164l-167 224z" />
    <glyph glyph-name="l" unicode="l" horiz-adv-x="258" 
d="M167 0h-135l96 682h135z" />
    <glyph glyph-name="m" unicode="m" horiz-adv-x="829" 
d="M229 454l-8 -58l2 -2q71 68 142 68q45 0 75.5 -22t39.5 -61q48 45 85.5 64t79.5 19q72 0 107 -50.5t24 -129.5l-39 -282h-135l37 261q14 101 -36 101q-49 0 -110 -71l-41 -291h-135l35 260q7 53 -2 77.5t-37 24.5q-43 0 -107 -71l-41 -291h-135l64 454h135z" />
    <glyph glyph-name="n" unicode="n" horiz-adv-x="549" 
d="M229 454l-8 -51q77 59 155 59q74 0 102.5 -52t17.5 -129l-39 -281h-135l38 271q5 37 -5 64t-35 27q-48 0 -114 -70l-41 -292h-135l64 454h135z" />
    <glyph glyph-name="o" unicode="o" horiz-adv-x="543" 
d="M517 248q0 -109 -74.5 -183t-183.5 -74q-97 0 -163 63.5t-66 155.5q0 104 77 178t185 74q99 0 162 -59t63 -155zM377 252q0 45 -25 72.5t-66 27.5q-31 0 -55 -16.5t-36.5 -41.5t-18.5 -48.5t-6 -43.5q0 -48 28 -74.5t62 -26.5q54 0 85.5 48.5t31.5 102.5z" />
    <glyph glyph-name="p" unicode="p" horiz-adv-x="551" 
d="M12 -230l72 515q-31 -23 -52.5 -48.5t-30.5 -37t-19 -11.5q-8 0 -8 9q0 11 10.5 36.5t40.5 67t72 75.5l23 166h135l-12 -88q22 4 44 6q28 2 39 2q89 0 144 -54.5t55 -143.5q0 -114 -83 -193.5t-202 -79.5q-25 0 -61 9l-32 -230h-135zM229 356l-34 -246q21 -9 41 -9
q77 0 113 50t36 110q0 48 -26.5 74.5t-77.5 26.5q-23 0 -52 -6z" />
    <glyph glyph-name="q" unicode="q" horiz-adv-x="547" 
d="M419 -230h-135l37 261q-74 -39 -132 -39q-71 0 -115 54t-44 142q0 56 18 104t54.5 86.5t98 60t141.5 21.5h174zM334 124l31 222q-8 1 -24 1q-78 0 -124.5 -40.5t-46.5 -115.5q0 -45 21 -72t57 -27q43 0 86 32z" />
    <glyph glyph-name="r" unicode="r" horiz-adv-x="372" 
d="M219 389l2 -2q61 75 110 75q38 0 81 -50l-63 -125q-33 49 -64 49q-22 0 -46 -20.5t-36 -45.5l-38 -270h-135l64 454h135z" />
    <glyph glyph-name="s" unicode="s" horiz-adv-x="375" 
d="M11 33l19 101q87 -32 124 -32q44 0 44 25q0 16 -23.5 37.5t-52 41t-52 49.5t-23.5 60q0 65 47 106t122 41q69 0 143 -41l-11 -107q-34 17 -72.5 27.5t-58.5 10.5q-30 0 -30 -20q0 -16 23.5 -37t52 -39.5t52 -51.5t23.5 -70q0 -62 -47.5 -102t-122.5 -40q-76 0 -157 41z
" />
    <glyph glyph-name="t" unicode="t" horiz-adv-x="351" 
d="M32 454h92l16 96h137l-19 -96h100l-18 -100h-100l-26 -147q-7 -41 1.5 -68t35.5 -27q24 0 78 27v-119q-61 -29 -116 -29q-80 0 -116 57t-22 133l32 173h-92z" />
    <glyph glyph-name="u" unicode="u" horiz-adv-x="548" 
d="M315 0l8 51q-70 -59 -147 -59q-75 0 -108 49.5t-22 124.5l41 288h135l-34 -241q-17 -121 36 -121t114 66l41 296h135l-64 -454h-135z" />
    <glyph glyph-name="v" unicode="v" horiz-adv-x="458" 
d="M215 202h2l121 252h143l-246 -462h-92l-116 462h131z" />
    <glyph glyph-name="w" unicode="w" horiz-adv-x="729" 
d="M484 191h2l129 263h142l-258 -462h-87l-49 235l-131 -235h-85l-114 462h131l52 -263h2l136 263h81z" />
    <glyph glyph-name="x" unicode="x" horiz-adv-x="531" 
d="M213 454l68 -133l105 133h166l-198 -232l134 -222h-148l-74 142l-117 -142h-170l215 238l-130 216h149z" />
    <glyph glyph-name="y" unicode="y" horiz-adv-x="490" 
d="M160 454l89 -265l120 265h141l-330 -684h-142l132 272l-145 412h135z" />
    <glyph glyph-name="z" unicode="z" horiz-adv-x="458" 
d="M232 341h-184l16 114h393l-223 -341h197l-17 -114h-413z" />
    <glyph glyph-name="braceleft" unicode="{" horiz-adv-x="385" 
d="M363 -210h-44q-92 0 -137.5 42t-45.5 140v79q0 75 -23 111.5t-84 37.5v114q61 1 84 37.5t23 111.5v79q0 98 45.5 140t137.5 42h44v-117h-6q-66 0 -80.5 -17t-14.5 -94q0 -99 -14.5 -149.5t-70.5 -89.5q56 -39 70.5 -89.5t14.5 -149.5q0 -77 14.5 -94t80.5 -17h6v-117z
" />
    <glyph glyph-name="bar" unicode="|" horiz-adv-x="281" 
d="M102 682h109v-903h-109v903z" />
    <glyph glyph-name="braceright" unicode="}" horiz-adv-x="385" 
d="M22 724h44q92 0 137.5 -42t45.5 -140v-79q0 -75 23 -111.5t84 -37.5v-114q-61 -1 -84 -37.5t-23 -111.5v-79q0 -98 -45.5 -140t-137.5 -42h-44v117h6q66 0 80.5 17t14.5 94q0 99 14.5 149.5t70.5 89.5q-56 39 -70.5 89.5t-14.5 149.5q0 77 -14.5 94t-80.5 17h-6v117z" />
    <glyph glyph-name="asciitilde" unicode="~" horiz-adv-x="584" 
d="M181 251q-35 0 -68 -16.5t-84 -59.5v131q88 72 160 72q44 0 126 -39t119 -39q60 0 146 74v-130q-28 -28 -73.5 -49.5t-84.5 -21.5q-43 0 -127.5 39t-113.5 39z" />
    <glyph glyph-name="uni00A0" unicode="&#xa0;" horiz-adv-x="281" 
 />
    <glyph glyph-name="exclamdown" unicode="&#xa1;" horiz-adv-x="260" 
d="M107 248h80l-17 -304q-6 -121 -38 -153q-21 -21 -51 -21t-47 19.5t-17 53.5q0 44 18 116zM165 301q-35 0 -59.5 24.5t-24.5 59.5t24.5 59.5t59.5 24.5t59.5 -24.5t24.5 -59.5t-24.5 -59.5t-59.5 -24.5z" />
    <glyph glyph-name="cent" unicode="&#xa2;" horiz-adv-x="469" 
d="M326 462h18l54 171h65l-57 -177q31 -5 44 -8l-18 -121q-35 14 -59 17l-73 -236q65 6 125 39l-19 -134q-60 -22 -143 -22l-57 -178h-66l59 187q-75 16 -119.5 72.5t-44.5 134.5q0 108 83.5 181.5t207.5 73.5zM236 116l71 229q-59 -8 -95.5 -45.5t-36.5 -90.5q0 -66 61 -93
z" />
    <glyph glyph-name="sterling" unicode="&#xa3;" horiz-adv-x="542" 
d="M60 261l15 106h92l20 68q76 256 232 256q58 0 99 -28l-13 -123q-39 24 -69 24q-70 0 -102 -108l-27 -89h85l-18 -106h-99l-39 -131q28 5 53 5q19 0 59 -8.5t70 -8.5q56 0 100 25l-26 -138q-32 -14 -67 -14q-36 0 -103.5 11.5t-122.5 11.5q-65 0 -130 -23h-13l79 270h-75z
" />
    <glyph glyph-name="currency" unicode="&#xa4;" horiz-adv-x="844" 
d="M473 235l65 -65l-83 -83l-66 66q-45 -28 -105 -28q-58 0 -104 27l-65 -65l-85 85l65 65q-27 43 -27 105q0 54 27 105l-65 65l83 83l64 -64q62 28 107 28q56 0 105 -28l65 65l85 -85l-65 -65q27 -49 27 -104q0 -53 -28 -107zM284 441q-41 0 -70 -29t-29 -70t29 -70t70 -29
t70.5 29t29.5 70t-29.5 70t-70.5 29z" />
    <glyph glyph-name="yen" unicode="&#xa5;" horiz-adv-x="552" 
d="M519 230l-19 -94h-181l-28 -136h-138l28 136h-182l19 94h183l13 62h-182l20 94h132l-98 330h141l71 -307h2l182 307h160l-227 -330h137l-20 -94h-180l-13 -62h180z" />
    <glyph glyph-name="brokenbar" unicode="&#xa6;" horiz-adv-x="281" 
d="M102 176h109v-397h-109v397zM102 682h109v-340h-109v340z" />
    <glyph glyph-name="section" unicode="&#xa7;" horiz-adv-x="552" 
d="M137 531q0 73 57.5 116.5t153.5 43.5q172 0 177 -157l-120 -21q-2 68 -71 68q-29 0 -47.5 -15t-18.5 -38q0 -20 18 -41t44.5 -38t57.5 -40.5t57.5 -47.5t44.5 -59.5t18 -75.5q0 -61 -29 -102.5t-94 -77.5q41 -59 41 -109q0 -67 -53 -117.5t-155 -50.5q-188 0 -193 160
l114 31q7 -73 77 -73q32 0 51 14t19 38q0 26 -25 51.5t-61 50t-72 52t-61 68.5t-25 89q0 110 133 174q-38 58 -38 107zM241 354q-68 -41 -68 -90q0 -20 13 -39t27.5 -31t49.5 -37.5t56 -42.5q30 17 46.5 41.5t16.5 49.5q0 23 -14.5 45t-29.5 34t-48.5 35.5t-48.5 34.5z" />
    <glyph glyph-name="dieresis" unicode="&#xa8;" horiz-adv-x="333" 
d="M307 656q27 0 46 -19t19 -46t-19 -46.5t-46 -19.5t-46.5 19.5t-19.5 46.5t19.5 46t46.5 19zM105 656q27 0 46 -19t19 -46t-19 -46.5t-46 -19.5t-46.5 19.5t-19.5 46.5t19.5 46t46.5 19z" />
    <glyph glyph-name="copyright" unicode="&#xa9;" horiz-adv-x="740" 
d="M539 445l-79 -19q-26 68 -87 68q-48 0 -74.5 -36t-26.5 -102q0 -65 25.5 -101.5t71.5 -36.5q67 0 91 83l79 -27q-39 -127 -164 -127q-86 0 -137.5 56t-51.5 150q0 98 51 155t139 57q120 0 163 -120zM370 730q155 0 264.5 -109.5t109.5 -264.5t-109.5 -264t-264.5 -109
t-264.5 109t-109.5 264t109.5 264.5t264.5 109.5zM370 656q-124 0 -212 -88t-88 -212q0 -125 88 -213.5t212 -88.5t212.5 88.5t88.5 213.5q0 124 -88 212t-213 88z" />
    <glyph glyph-name="ordfeminine" unicode="&#xaa;" horiz-adv-x="365" 
d="M392 682l-44 -270h-94v18q-40 -22 -76 -22q-48 0 -76.5 34t-28.5 83q0 15 2 30t14.5 41.5t34 46t65 34t102.5 14.5q49 0 101 -9zM265 494l19 124q-48 2 -75 -16q-38 -23 -38 -81q0 -7 1.5 -15t10 -20t24.5 -12q27 0 58 20z" />
    <glyph glyph-name="guillemotleft" unicode="&#xab;" horiz-adv-x="542" 
d="M362 0l-73 255l151 206h132l-164 -230l67 -231h-113zM89 0l-73 255l151 206h132l-164 -230l67 -231h-113z" />
    <glyph glyph-name="logicalnot" unicode="&#xac;" horiz-adv-x="584" 
d="M55 462h499v-341h-128v213h-371v128z" />
    <glyph glyph-name="uni00AD" unicode="&#xad;" horiz-adv-x="333" 
d="M297 298v-133h-261v133h261z" />
    <glyph glyph-name="registered" unicode="&#xae;" horiz-adv-x="740" 
d="M201 553h196q61 0 93 -30.5t32 -80.5q0 -45 -28.5 -75t-78.5 -36v-2q26 -9 40.5 -25t44.5 -68l46 -80h-99l-32 65q-24 48 -54 78q-20 20 -65 20h-15v-163h-80v397zM281 382h83q38 0 55.5 15.5t17.5 39.5q0 54 -82 54h-74v-109zM370 730q155 0 264.5 -109.5t109.5 -264.5
t-109.5 -264t-264.5 -109t-264.5 109t-109.5 264t109.5 264.5t264.5 109.5zM370 656q-124 0 -212 -88t-88 -212q0 -125 88 -213.5t212 -88.5t212.5 88.5t88.5 213.5q0 124 -88 212t-213 88z" />
    <glyph glyph-name="macron" unicode="&#xaf;" horiz-adv-x="333" 
d="M383 540h-386l14 100h386z" />
    <glyph glyph-name="degree" unicode="&#xb0;" horiz-adv-x="396" 
d="M385 572q0 -64 -45.5 -110t-110.5 -46t-110.5 46t-45.5 110t45.5 110t110.5 46t110.5 -46t45.5 -110zM299 572q0 29 -20.5 49.5t-49.5 20.5t-49.5 -20.5t-20.5 -49.5t20.5 -49.5t49.5 -20.5t49.5 20.5t20.5 49.5z" />
    <glyph glyph-name="plusminus" unicode="&#xb1;" horiz-adv-x="584" 
d="M55 128h500v-128h-500v128zM369 174h-128v186h-186v128h186v186h128v-186h186v-128h-186v-186z" />
    <glyph glyph-name="two.superior" unicode="&#xb2;" 
d="M290 348l-12 -75h-243v14q60 64 113 132q59 75 59 107q0 18 -12 25t-23 7q-33 0 -94 -42l14 87q45 29 96 29q55 0 86 -29.5t31 -66.5q0 -36 -23 -74.5t-89 -113.5h97z" />
    <glyph glyph-name="three.superior" unicode="&#xb3;" 
d="M36 292l13 74q56 -27 93 -27q24 0 41 12t17 31q0 17 -14.5 28.5t-43.5 11.5q-21 0 -38 -4l12 76q39 -7 50 -7q26 0 42.5 11t16.5 29q0 15 -11.5 24.5t-32.5 9.5q-39 0 -103 -31l14 82q53 20 101 20q50 0 89 -24t39 -70q0 -28 -16 -51t-48 -34q43 -26 43 -73
q0 -52 -45.5 -82t-110.5 -30q-50 0 -108 24z" />
    <glyph glyph-name="acute" unicode="&#xb4;" horiz-adv-x="333" 
d="M208 682h161l-177 -172h-73z" />
    <glyph glyph-name="mu" unicode="&#xb5;" horiz-adv-x="615" 
d="M382 0l11 42l-2 2q-48 -53 -110 -53q-75 0 -102 59h-2l-54 -225h-133l153 629h133l-59 -247q-13 -55 4.5 -90.5t74.5 -35.5q91 0 118 111l64 262h133l-109 -454h-120z" />
    <glyph glyph-name="paragraph" unicode="&#xb6;" horiz-adv-x="552" 
d="M377 -197v785h-67v-785h-119v511q-91 7 -141.5 59.5t-50.5 138.5q0 88 54 146t164 58h334v-128h-55v-785h-119z" />
    <glyph glyph-name="periodcentered" unicode="&#xb7;" horiz-adv-x="281" 
d="M233 346q0 -36 -25.5 -61.5t-61.5 -25.5t-61.5 25.5t-25.5 61.5t25.5 61.5t61.5 25.5t61.5 -25.5t25.5 -61.5z" />
    <glyph glyph-name="cedilla" unicode="&#xb8;" horiz-adv-x="333" 
d="M192 9l-10 -32q53 -14 53 -66q0 -26 -12 -44t-31 -26t-36.5 -11.5t-35.5 -3.5q-47 0 -70 10l10 45q20 -5 45 -5q53 0 53 32q0 12 -10 21.5t-33 10.5l31 69h46z" />
    <glyph glyph-name="one.superior" unicode="&#xb9;" 
d="M260 628l-58 -355h-95l58 355h95z" />
    <glyph glyph-name="ordmasculine" unicode="&#xba;" horiz-adv-x="375" 
d="M394 563q0 -69 -50 -112t-120 -43q-65 0 -109 38t-44 93q0 61 50 106.5t124 45.5q60 0 104.5 -33.5t44.5 -94.5zM294 562q0 24 -13 40t-40 16q-35 0 -52 -28t-17 -57q0 -22 14 -38.5t38 -16.5q31 0 50.5 26.5t19.5 57.5z" />
    <glyph glyph-name="guillemotright" unicode="&#xbb;" horiz-adv-x="542" 
d="M453 461l73 -255l-151 -206h-132l164 230l-67 231h113zM180 461l73 -255l-151 -206h-132l164 230l-67 231h113z" />
    <glyph glyph-name="onequarter" unicode="&#xbc;" horiz-adv-x="844" 
d="M809 360l-36 -226h44l-8 -54h-45l-13 -80h-94l13 80h-137v62l201 218h75zM679 134l14 88l-81 -88h67zM251 687l-59 -355h-95l59 355h95zM711 691l-478 -718h-88l478 718h88z" />
    <glyph glyph-name="onehalf" unicode="&#xbd;" horiz-adv-x="844" 
d="M251 687l-58 -355h-95l58 355h95zM694 691l-479 -718h-88l479 718h88zM788 75l-12 -75h-243v15q56 58 112 132q60 78 60 106q0 18 -12 25t-23 7q-33 0 -94 -42l14 89q46 28 96 28q56 0 86.5 -29.5t30.5 -66.5q0 -35 -23 -74t-89 -115h97z" />
    <glyph glyph-name="threequarters" unicode="&#xbe;" horiz-adv-x="844" 
d="M20 351l12 74q56 -27 93 -27q24 0 41.5 12t17.5 31q0 17 -15 28.5t-44 11.5q-19 0 -38 -4l12 76q39 -7 50 -7q27 0 43 11t16 29q0 15 -11.5 24.5t-32.5 9.5q-39 0 -103 -31l14 82q53 20 102 20t88 -24t39 -70q0 -64 -64 -85q43 -24 43 -72q0 -53 -45.5 -83t-110.5 -30
q-51 0 -107 24zM723 691l-479 -718h-88l479 718h88zM809 360l-36 -226h44l-8 -54h-45l-13 -80h-95l13 80h-136v62l200 218h76zM678 134l15 88l-82 -88h67z" />
    <glyph glyph-name="questiondown" unicode="&#xbf;" 
d="M141 245h106q-1 -44 -17 -84t-38.5 -68t-44.5 -52t-37.5 -47.5t-15.5 -44.5t16 -34.5t41 -13.5q49 0 130 48l-19 -132q-75 -47 -144 -47q-70 0 -117 46.5t-47 114.5q0 45 17 81t42 61t51.5 48.5t48 55t28.5 68.5zM198 301q-34 0 -59 24.5t-25 59.5t25 59.5t59 24.5
t59 -24.5t25 -59.5t-25 -59.5t-59 -24.5z" />
    <glyph glyph-name="Agrave" unicode="&#xc0;" horiz-adv-x="625" 
d="M138 0h-160l334 691h154l120 -691h-149l-21 149h-212zM246 246h158l-36 302h-2zM406 729l-177 172h161l89 -172h-73z" />
    <glyph glyph-name="Aacute" unicode="&#xc1;" horiz-adv-x="625" 
d="M138 0h-160l334 691h154l120 -691h-149l-21 149h-212zM246 246h158l-36 302h-2zM405 900h161l-177 -172h-73z" />
    <glyph glyph-name="Acircumflex" unicode="&#xc2;" horiz-adv-x="625" 
d="M138 0h-160l334 691h154l120 -691h-149l-21 149h-212zM246 246h158l-36 302h-2zM513 928l64 -199h-70l-83 120l-153 -120h-84l172 199h154z" />
    <glyph glyph-name="Atilde" unicode="&#xc3;" horiz-adv-x="625" 
d="M138 0h-160l334 691h154l120 -691h-149l-21 149h-212zM246 246h158l-36 302h-2zM278 729h-73q-3 68 30.5 114.5t86.5 46.5q17 0 34.5 -5.5t28.5 -11.5t38 -22q35 -20 58 -20q36 0 36 58h73q3 -81 -34.5 -120.5t-82.5 -39.5q-18 0 -35 5.5t-29.5 12t-40.5 23.5
q-30 19 -53 19q-37 0 -37 -60z" />
    <glyph glyph-name="Adieresis" unicode="&#xc4;" horiz-adv-x="625" 
d="M138 0h-160l334 691h154l120 -691h-149l-21 149h-212zM246 246h158l-36 302h-2zM500 887q27 0 46 -19t19 -46t-19 -46.5t-46 -19.5t-46.5 19.5t-19.5 46.5t19.5 46t46.5 19zM298 887q27 0 46 -19t19 -46t-19 -46.5t-46 -19.5t-46.5 19.5t-19.5 46.5t19.5 46t46.5 19z" />
    <glyph glyph-name="Aring" unicode="&#xc5;" horiz-adv-x="625" 
d="M138 0h-160l334 691h154l120 -691h-149l-21 149h-212zM246 246h158l-36 302h-2zM396 959q47 0 81 -33.5t34 -81.5t-33.5 -81.5t-81.5 -33.5t-81.5 33.5t-33.5 81.5t34 81.5t81 33.5zM397 907q-26 0 -44 -18t-18 -44q0 -25 18.5 -43.5t43.5 -18.5q26 0 44 18t18 44t-18 44
t-44 18z" />
    <glyph glyph-name="AE" unicode="&#xc6;" horiz-adv-x="993" 
d="M974 682l-13 -114h-309l-23 -160h273l-16 -114h-273l-26 -180h387l-19 -114h-530l24 169h-239l-108 -169h-167l438 682h601zM463 270l44 311h-35l-198 -311h189z" />
    <glyph glyph-name="Ccedilla" unicode="&#xc7;" horiz-adv-x="673" 
d="M673 667l-23 -126q-88 24 -162 24q-65 0 -117 -17.5t-84.5 -45t-54 -63t-30.5 -70t-9 -67.5q0 -46 15.5 -80.5t37 -53.5t50.5 -30.5t50.5 -14.5t42.5 -3q115 0 249 86l-24 -159q-114 -57 -242 -56l-8 -13q75 -20 75 -77q0 -45 -43 -69.5t-123 -24.5q-54 0 -117 10l15 54
q48 -8 82 -8q78 0 78 36q0 17 -14 26t-25.5 10.5t-33.5 3.5l43 52q-107 23 -170 85q-87 86 -87 224q0 76 28.5 146t81.5 125t136.5 88t185.5 33q107 0 197 -25z" />
    <glyph glyph-name="Egrave" unicode="&#xc8;" horiz-adv-x="583" 
d="M541 0h-499l96 682h426l-16 -114h-281l-23 -161h247l-16 -114h-247l-25 -179h354zM365 729l-177 172h161l89 -172h-73z" />
    <glyph glyph-name="Eacute" unicode="&#xc9;" horiz-adv-x="583" 
d="M541 0h-499l96 682h426l-16 -114h-281l-23 -161h247l-16 -114h-247l-25 -179h354zM409 900h161l-177 -172h-73z" />
    <glyph glyph-name="Ecircumflex" unicode="&#xca;" horiz-adv-x="583" 
d="M541 0h-499l96 682h426l-16 -114h-281l-23 -161h247l-16 -114h-247l-25 -179h354zM502 928l64 -199h-70l-83 120l-153 -120h-84l172 199h154z" />
    <glyph glyph-name="Edieresis" unicode="&#xcb;" horiz-adv-x="583" 
d="M541 0h-499l96 682h426l-16 -114h-281l-23 -161h247l-16 -114h-247l-25 -179h354zM489 887q27 0 46 -19t19 -46t-19 -46.5t-46 -19.5t-46.5 19.5t-19.5 46.5t19.5 46t46.5 19zM287 887q27 0 46 -19t19 -46t-19 -46.5t-46 -19.5t-46.5 19.5t-19.5 46.5t19.5 46t46.5 19z
" />
    <glyph glyph-name="Igrave" unicode="&#xcc;" horiz-adv-x="302" 
d="M190 0h-145l96 682h145zM240 729l-177 172h161l89 -172h-73z" />
    <glyph glyph-name="Iacute" unicode="&#xcd;" horiz-adv-x="302" 
d="M190 0h-145l96 682h145zM229 900h161l-177 -172h-73z" />
    <glyph glyph-name="Icircumflex" unicode="&#xce;" horiz-adv-x="302" 
d="M190 0h-145l96 682h145zM347 928l64 -199h-70l-83 120l-153 -120h-84l172 199h154z" />
    <glyph glyph-name="Idieresis" unicode="&#xcf;" horiz-adv-x="302" 
d="M190 0h-145l96 682h145zM328 887q27 0 46 -19t19 -46t-19 -46.5t-46 -19.5t-46.5 19.5t-19.5 46.5t19.5 46t46.5 19zM126 887q27 0 46 -19t19 -46t-19 -46.5t-46 -19.5t-46.5 19.5t-19.5 46.5t19.5 46t46.5 19z" />
    <glyph glyph-name="Eth" unicode="&#xd0;" horiz-adv-x="750" 
d="M82 300h-73l12 82h73l43 300h161q99 0 153 -8t101 -32q75 -38 119.5 -113t44.5 -178q0 -118 -55 -203t-142 -122q-43 -18 -84.5 -22t-168.5 -4h-226zM376 300h-148l-26 -186h80q57 0 82.5 1.5t57 12t60.5 33.5q83 65 83 192q0 130 -107 186q-53 27 -146 27h-46l-26 -184
h148z" />
    <glyph glyph-name="Ntilde" unicode="&#xd1;" horiz-adv-x="781" 
d="M559 237h2l61 445h145l-95 -682h-138l-280 462h-2l-64 -462h-145l96 682h145zM351 729h-73q-3 68 30.5 114.5t86.5 46.5q17 0 34.5 -5.5t28.5 -11.5t38 -22q35 -20 58 -20q36 0 36 58h73q3 -81 -34.5 -120.5t-82.5 -39.5q-18 0 -35 5.5t-29.5 12t-40.5 23.5
q-30 19 -53 19q-37 0 -37 -60z" />
    <glyph glyph-name="Ograve" unicode="&#xd2;" horiz-adv-x="797" 
d="M781 380q0 -174 -110.5 -281.5t-282.5 -107.5q-149 0 -246.5 89t-97.5 228q0 166 114 275t287 109q149 0 242.5 -87t93.5 -225zM631 370q0 85 -55.5 140t-140.5 55q-99 0 -170 -73.5t-71 -176.5q0 -88 54.5 -142.5t140.5 -54.5q101 0 171.5 73t70.5 179zM499 729
l-177 172h161l89 -172h-73z" />
    <glyph glyph-name="Oacute" unicode="&#xd3;" horiz-adv-x="797" 
d="M781 380q0 -174 -110.5 -281.5t-282.5 -107.5q-149 0 -246.5 89t-97.5 228q0 166 114 275t287 109q149 0 242.5 -87t93.5 -225zM631 370q0 85 -55.5 140t-140.5 55q-99 0 -170 -73.5t-71 -176.5q0 -88 54.5 -142.5t140.5 -54.5q101 0 171.5 73t70.5 179zM478 900h161
l-177 -172h-73z" />
    <glyph glyph-name="Ocircumflex" unicode="&#xd4;" horiz-adv-x="797" 
d="M781 380q0 -174 -110.5 -281.5t-282.5 -107.5q-149 0 -246.5 89t-97.5 228q0 166 114 275t287 109q149 0 242.5 -87t93.5 -225zM631 370q0 85 -55.5 140t-140.5 55q-99 0 -170 -73.5t-71 -176.5q0 -88 54.5 -142.5t140.5 -54.5q101 0 171.5 73t70.5 179zM596 928l64 -199
h-70l-83 120l-153 -120h-84l172 199h154z" />
    <glyph glyph-name="Otilde" unicode="&#xd5;" horiz-adv-x="797" 
d="M781 380q0 -174 -110.5 -281.5t-282.5 -107.5q-149 0 -246.5 89t-97.5 228q0 166 114 275t287 109q149 0 242.5 -87t93.5 -225zM631 370q0 85 -55.5 140t-140.5 55q-99 0 -170 -73.5t-71 -176.5q0 -88 54.5 -142.5t140.5 -54.5q101 0 171.5 73t70.5 179zM361 729h-73
q-3 68 30.5 114.5t86.5 46.5q17 0 34.5 -5.5t28.5 -11.5t38 -22q35 -20 58 -20q36 0 36 58h73q3 -81 -34.5 -120.5t-82.5 -39.5q-18 0 -35 5.5t-29.5 12t-40.5 23.5q-30 19 -53 19q-37 0 -37 -60z" />
    <glyph glyph-name="Odieresis" unicode="&#xd6;" horiz-adv-x="797" 
d="M781 380q0 -174 -110.5 -281.5t-282.5 -107.5q-149 0 -246.5 89t-97.5 228q0 166 114 275t287 109q149 0 242.5 -87t93.5 -225zM631 370q0 85 -55.5 140t-140.5 55q-99 0 -170 -73.5t-71 -176.5q0 -88 54.5 -142.5t140.5 -54.5q101 0 171.5 73t70.5 179zM583 887
q27 0 46 -19t19 -46t-19 -46.5t-46 -19.5t-46.5 19.5t-19.5 46.5t19.5 46t46.5 19zM381 887q27 0 46 -19t19 -46t-19 -46.5t-46 -19.5t-46.5 19.5t-19.5 46.5t19.5 46t46.5 19z" />
    <glyph glyph-name="multiply" unicode="&#xd7;" horiz-adv-x="584" 
d="M67 193l148 148l-148 148l90 90l147 -148l148 148l90 -90l-148 -148l148 -148l-90 -90l-148 148l-147 -148z" />
    <glyph glyph-name="Oslash" unicode="&#xd8;" horiz-adv-x="833" 
d="M771 682l-68 -74q94 -85 94 -234q0 -71 -24.5 -137.5t-71 -122.5t-124.5 -89.5t-176 -33.5q-119 0 -203 56l-90 -100l-47 44l86 97q-87 91 -87 221q0 102 48 188.5t140.5 140t210.5 53.5q102 0 190 -44l54 62zM604 498l-313 -348q52 -33 114 -33q105 0 174 74.5t69 176.5
q0 80 -44 130zM244 197l309 344q-42 25 -104 25q-107 0 -173.5 -78.5t-66.5 -169.5q0 -67 35 -121z" />
    <glyph glyph-name="Ugrave" unicode="&#xd9;" horiz-adv-x="750" 
d="M273 682l-55 -386q-6 -44 2 -77.5t24.5 -52t40 -30t44 -15t41.5 -3.5q65 0 112.5 36t58.5 115l58 413h145l-60 -425q-37 -266 -314 -266q-169 0 -243.5 83.5t-54.5 219.5l56 388h145zM464 729l-177 172h161l89 -172h-73z" />
    <glyph glyph-name="Uacute" unicode="&#xda;" horiz-adv-x="750" 
d="M273 682l-55 -386q-6 -44 2 -77.5t24.5 -52t40 -30t44 -15t41.5 -3.5q65 0 112.5 36t58.5 115l58 413h145l-60 -425q-37 -266 -314 -266q-169 0 -243.5 83.5t-54.5 219.5l56 388h145zM453 900h161l-177 -172h-73z" />
    <glyph glyph-name="Ucircumflex" unicode="&#xdb;" horiz-adv-x="750" 
d="M273 682l-55 -386q-6 -44 2 -77.5t24.5 -52t40 -30t44 -15t41.5 -3.5q65 0 112.5 36t58.5 115l58 413h145l-60 -425q-37 -266 -314 -266q-169 0 -243.5 83.5t-54.5 219.5l56 388h145zM571 928l64 -199h-70l-83 120l-153 -120h-84l172 199h154z" />
    <glyph glyph-name="Udieresis" unicode="&#xdc;" horiz-adv-x="750" 
d="M273 682l-55 -386q-6 -44 2 -77.5t24.5 -52t40 -30t44 -15t41.5 -3.5q65 0 112.5 36t58.5 115l58 413h145l-60 -425q-37 -266 -314 -266q-169 0 -243.5 83.5t-54.5 219.5l56 388h145zM558 887q27 0 46 -19t19 -46t-19 -46.5t-46 -19.5t-46.5 19.5t-19.5 46.5t19.5 46
t46.5 19zM356 887q27 0 46 -19t19 -46t-19 -46.5t-46 -19.5t-46.5 19.5t-19.5 46.5t19.5 46t46.5 19z" />
    <glyph glyph-name="Yacute" unicode="&#xdd;" horiz-adv-x="554" 
d="M213 682l88 -263l158 263h155l-257 -396l-40 -286h-145l40 286l-144 396h145zM385 900h161l-177 -172h-73z" />
    <glyph glyph-name="Thorn" unicode="&#xde;" horiz-adv-x="583" 
d="M142 682h148l-18 -129h27q76 0 122 -9t86 -44q64 -55 64 -149q0 -74 -33 -122.5t-77 -71.5q-26 -13 -60.5 -19.5t-60 -7.5t-76.5 -1h-56l-18 -129h-149zM276 445h-24l-29 -210h29q85 0 116 16q55 27 55 93q0 101 -147 101z" />
    <glyph glyph-name="germandbls" unicode="&#xdf;" horiz-adv-x="552" 
d="M232 0l15 108q18 -4 30 -4q43 0 64.5 38.5t21.5 93.5q0 41 -21 68.5t-63 26.5l14 99q22 0 34 4q27 8 42.5 32t15.5 53q0 38 -22 57t-49 19q-20 0 -35 -9.5t-23.5 -21.5t-16 -37.5t-10.5 -43.5t-8 -53l-62 -430h-132l58 405q12 86 23.5 131.5t35.5 77.5q60 77 174 77
q95 0 145 -49.5t50 -122.5q0 -107 -104 -146q94 -47 94 -158q0 -94 -59 -158.5t-155 -64.5q-28 0 -57 8z" />
    <glyph glyph-name="agrave" unicode="&#xe0;" horiz-adv-x="543" 
d="M314 0l6 42q-63 -50 -131 -50q-69 0 -114 54.5t-45 139.5q0 52 17.5 99t54.5 87.5t103 64.5t154 24q82 0 153 -14l-63 -447h-135zM333 132l30 216q-1 0 -12.5 1.5t-16.5 1.5q-40 0 -71 -13t-48 -32t-28 -44t-14 -44.5t-3 -38.5q0 -41 17.5 -64t48.5 -23q49 0 97 40z
M332 510l-177 172h161l89 -172h-73z" />
    <glyph glyph-name="aacute" unicode="&#xe1;" horiz-adv-x="543" 
d="M314 0l6 42q-63 -50 -131 -50q-69 0 -114 54.5t-45 139.5q0 52 17.5 99t54.5 87.5t103 64.5t154 24q82 0 153 -14l-63 -447h-135zM333 132l30 216q-1 0 -12.5 1.5t-16.5 1.5q-40 0 -71 -13t-48 -32t-28 -44t-14 -44.5t-3 -38.5q0 -41 17.5 -64t48.5 -23q49 0 97 40z
M324 682h161l-177 -172h-73z" />
    <glyph glyph-name="acircumflex" unicode="&#xe2;" horiz-adv-x="543" 
d="M314 0l6 42q-63 -50 -131 -50q-69 0 -114 54.5t-45 139.5q0 52 17.5 99t54.5 87.5t103 64.5t154 24q82 0 153 -14l-63 -447h-135zM333 132l30 216q-1 0 -12.5 1.5t-16.5 1.5q-40 0 -71 -13t-48 -32t-28 -44t-14 -44.5t-3 -38.5q0 -41 17.5 -64t48.5 -23q49 0 97 40z
M421 670l59 -160h-82l-61 91l-100 -91h-91l126 160h149z" />
    <glyph glyph-name="atilde" unicode="&#xe3;" horiz-adv-x="543" 
d="M314 0l6 42q-63 -50 -131 -50q-69 0 -114 54.5t-45 139.5q0 52 17.5 99t54.5 87.5t103 64.5t154 24q82 0 153 -14l-63 -447h-135zM333 132l30 216q-1 0 -12.5 1.5t-16.5 1.5q-40 0 -71 -13t-48 -32t-28 -44t-14 -44.5t-3 -38.5q0 -41 17.5 -64t48.5 -23q49 0 97 40z
M206 517h-64q0 67 24.5 107t72.5 40q23 0 40 -7.5t53 -29.5q24 -14 38 -14q31 0 38 51h64q0 -65 -24 -106.5t-74 -41.5q-28 0 -66 23q-49 30 -64 30q-17 0 -27 -15.5t-11 -36.5z" />
    <glyph glyph-name="adieresis" unicode="&#xe4;" horiz-adv-x="543" 
d="M314 0l6 42q-63 -50 -131 -50q-69 0 -114 54.5t-45 139.5q0 52 17.5 99t54.5 87.5t103 64.5t154 24q82 0 153 -14l-63 -447h-135zM333 132l30 216q-1 0 -12.5 1.5t-16.5 1.5q-40 0 -71 -13t-48 -32t-28 -44t-14 -44.5t-3 -38.5q0 -41 17.5 -64t48.5 -23q49 0 97 40z
M423 656q27 0 46 -19t19 -46t-19 -46.5t-46 -19.5t-46.5 19.5t-19.5 46.5t19.5 46t46.5 19zM221 656q27 0 46 -19t19 -46t-19 -46.5t-46 -19.5t-46.5 19.5t-19.5 46.5t19.5 46t46.5 19z" />
    <glyph glyph-name="aring" unicode="&#xe5;" horiz-adv-x="543" 
d="M314 0l6 42q-63 -50 -131 -50q-69 0 -114 54.5t-45 139.5q0 52 17.5 99t54.5 87.5t103 64.5t154 24q82 0 153 -14l-63 -447h-135zM333 132l30 216q-1 0 -12.5 1.5t-16.5 1.5q-40 0 -71 -13t-48 -32t-28 -44t-14 -44.5t-3 -38.5q0 -41 17.5 -64t48.5 -23q49 0 97 40z
M337 696q41 0 70.5 -29t29.5 -71q0 -41 -29.5 -70.5t-70.5 -29.5t-70.5 29.5t-29.5 70.5q0 42 29.5 71t70.5 29zM336 654q-23 0 -39 -16t-16 -39t16.5 -39t38.5 -16t38.5 16t16.5 39t-16 39t-39 16z" />
    <glyph glyph-name="ae" unicode="&#xe6;" horiz-adv-x="688" 
d="M626 142l-16 -115q-28 -13 -74.5 -24t-84.5 -11q-46 0 -86 15t-52.5 25t-32.5 28q-78 -68 -158 -68q-58 0 -93.5 32.5t-35.5 78.5q0 45 33.5 80t83.5 55q56 23 136 34q6 39 6 47q0 10 -5 18t-10.5 11.5t-13.5 5.5t-11.5 2h-5.5q-21 0 -45.5 -8t-41.5 -17t-48 -28l17 117
q67 42 144 42q71 0 116 -42q56 42 128 42t127 -49.5t55 -137.5q0 -30 -8 -68h-280q-4 -48 17 -76q29 -37 87 -37q67 0 152 48zM383 284h141q8 82 -54 82t-87 -82zM221 101l13 86q-29 -6 -47.5 -11t-39 -21t-20.5 -38q0 -11 9 -23t28 -12q24 0 57 19z" />
    <glyph glyph-name="ccedilla" unicode="&#xe7;" horiz-adv-x="454" 
d="M446 447l-17 -121q-31 12 -70 18q-19 2 -36 2q-56 0 -104 -37.5t-48 -100.5q0 -54 33 -77.5t75 -23.5q72 0 142 39l-19 -135q-75 -22 -146 -20l-6 -20q70 -20 70 -71q0 -26 -15 -44.5t-34 -27.5t-44 -14t-36.5 -6t-20.5 -1q-36 0 -67 7l12 52q25 -4 51 -4q9 0 19 1.5
t23 10t13 23.5q0 11 -8 18t-16 9t-22 4l25 72q-51 14 -88 40q-42 30 -62 77t-20 93q0 98 80 175t214 77q62 0 122 -15z" />
    <glyph glyph-name="egrave" unicode="&#xe8;" horiz-adv-x="505" 
d="M442 137l-24 -113q-88 -33 -158 -33q-103 0 -164.5 60t-61.5 161q0 104 71.5 177t174.5 73q106 0 158.5 -72.5t28.5 -181.5h-297q-5 -54 24.5 -85.5t79.5 -31.5q55 0 168 46zM183 286h159q6 37 -12 60t-53 23q-65 0 -94 -83zM324 510l-177 172h161l89 -172h-73z" />
    <glyph glyph-name="eacute" unicode="&#xe9;" horiz-adv-x="505" 
d="M442 137l-24 -113q-88 -33 -158 -33q-103 0 -164.5 60t-61.5 161q0 104 71.5 177t174.5 73q106 0 158.5 -72.5t28.5 -181.5h-297q-5 -54 24.5 -85.5t79.5 -31.5q55 0 168 46zM183 286h159q6 37 -12 60t-53 23q-65 0 -94 -83zM311 682h161l-177 -172h-73z" />
    <glyph glyph-name="ecircumflex" unicode="&#xea;" horiz-adv-x="505" 
d="M442 137l-24 -113q-88 -33 -158 -33q-103 0 -164.5 60t-61.5 161q0 104 71.5 177t174.5 73q106 0 158.5 -72.5t28.5 -181.5h-297q-5 -54 24.5 -85.5t79.5 -31.5q55 0 168 46zM183 286h159q6 37 -12 60t-53 23q-65 0 -94 -83zM403 670l59 -160h-82l-61 91l-100 -91h-91
l126 160h149z" />
    <glyph glyph-name="edieresis" unicode="&#xeb;" horiz-adv-x="505" 
d="M442 137l-24 -113q-88 -33 -158 -33q-103 0 -164.5 60t-61.5 161q0 104 71.5 177t174.5 73q106 0 158.5 -72.5t28.5 -181.5h-297q-5 -54 24.5 -85.5t79.5 -31.5q55 0 168 46zM183 286h159q6 37 -12 60t-53 23q-65 0 -94 -83zM405 656q27 0 46 -19t19 -46t-19 -46.5
t-46 -19.5t-46.5 19.5t-19.5 46.5t19.5 46t46.5 19zM203 656q27 0 46 -19t19 -46t-19 -46.5t-46 -19.5t-46.5 19.5t-19.5 46.5t19.5 46t46.5 19z" />
    <glyph glyph-name="igrave" unicode="&#xec;" horiz-adv-x="262" 
d="M164 0h-135l64 454h135zM185 510l-177 172h161l89 -172h-73z" />
    <glyph glyph-name="iacute" unicode="&#xed;" horiz-adv-x="262" 
d="M164 0h-135l64 454h135zM172 682h161l-177 -172h-73z" />
    <glyph glyph-name="icircumflex" unicode="&#xee;" horiz-adv-x="262" 
d="M164 0h-135l64 454h135zM269 670l59 -160h-82l-61 91l-100 -91h-91l126 160h149z" />
    <glyph glyph-name="idieresis" unicode="&#xef;" horiz-adv-x="262" 
d="M164 0h-135l64 454h135zM271 656q27 0 46 -19t19 -46t-19 -46.5t-46 -19.5t-46.5 19.5t-19.5 46.5t19.5 46t46.5 19zM69 656q27 0 46 -19t19 -46t-19 -46.5t-46 -19.5t-46.5 19.5t-19.5 46.5t19.5 46t46.5 19z" />
    <glyph glyph-name="eth" unicode="&#xf0;" horiz-adv-x="552" 
d="M394 631l110 51l21 -43l-91 -43q99 -103 99 -258q0 -89 -28.5 -165.5t-94 -128.5t-156.5 -52q-103 0 -168 63t-65 151q0 107 80 180.5t190 73.5q62 0 112 -40q-16 45 -31.5 71t-44.5 56l-110 -52l-22 44l89 42q-20 13 -37 21l56 80q51 -23 91 -51zM372 253q0 41 -25.5 69
t-68.5 28q-54 0 -86.5 -47t-32.5 -100q0 -49 26 -77t67 -28t70 28.5t39.5 61.5t10.5 65z" />
    <glyph glyph-name="ntilde" unicode="&#xf1;" horiz-adv-x="549" 
d="M229 454l-8 -51q77 59 155 59q74 0 102.5 -52t17.5 -129l-39 -281h-135l38 271q5 37 -5 64t-35 27q-48 0 -114 -70l-41 -292h-135l64 454h135zM215 517h-64q0 67 24.5 107t72.5 40q23 0 40 -7.5t53 -29.5q25 -14 38 -14q31 0 38 51h64q0 -65 -24 -106.5t-74 -41.5
q-28 0 -66 23q-49 30 -64 30q-17 0 -27 -15.5t-11 -36.5z" />
    <glyph glyph-name="ograve" unicode="&#xf2;" horiz-adv-x="543" 
d="M517 248q0 -109 -74.5 -183t-183.5 -74q-97 0 -163 63.5t-66 155.5q0 104 77 178t185 74q99 0 162 -59t63 -155zM377 252q0 45 -25 72.5t-66 27.5q-31 0 -55 -16.5t-36.5 -41.5t-18.5 -48.5t-6 -43.5q0 -48 28 -74.5t62 -26.5q54 0 85.5 48.5t31.5 102.5zM341 510
l-177 172h161l89 -172h-73z" />
    <glyph glyph-name="oacute" unicode="&#xf3;" horiz-adv-x="543" 
d="M517 248q0 -109 -74.5 -183t-183.5 -74q-97 0 -163 63.5t-66 155.5q0 104 77 178t185 74q99 0 162 -59t63 -155zM377 252q0 45 -25 72.5t-66 27.5q-31 0 -55 -16.5t-36.5 -41.5t-18.5 -48.5t-6 -43.5q0 -48 28 -74.5t62 -26.5q54 0 85.5 48.5t31.5 102.5zM318 682h161
l-177 -172h-73z" />
    <glyph glyph-name="ocircumflex" unicode="&#xf4;" horiz-adv-x="543" 
d="M517 248q0 -109 -74.5 -183t-183.5 -74q-97 0 -163 63.5t-66 155.5q0 104 77 178t185 74q99 0 162 -59t63 -155zM377 252q0 45 -25 72.5t-66 27.5q-31 0 -55 -16.5t-36.5 -41.5t-18.5 -48.5t-6 -43.5q0 -48 28 -74.5t62 -26.5q54 0 85.5 48.5t31.5 102.5zM425 670
l59 -160h-82l-61 91l-100 -91h-91l126 160h149z" />
    <glyph glyph-name="otilde" unicode="&#xf5;" horiz-adv-x="543" 
d="M517 248q0 -109 -74.5 -183t-183.5 -74q-97 0 -163 63.5t-66 155.5q0 104 77 178t185 74q99 0 162 -59t63 -155zM377 252q0 45 -25 72.5t-66 27.5q-31 0 -55 -16.5t-36.5 -41.5t-18.5 -48.5t-6 -43.5q0 -48 28 -74.5t62 -26.5q54 0 85.5 48.5t31.5 102.5zM225 517h-64
q0 67 24.5 107t72.5 40q23 0 40 -7.5t53 -29.5q25 -14 38 -14q31 0 38 51h64q0 -65 -24 -106.5t-74 -41.5q-28 0 -66 23q-49 30 -64 30q-17 0 -27 -15.5t-11 -36.5z" />
    <glyph glyph-name="odieresis" unicode="&#xf6;" horiz-adv-x="543" 
d="M517 248q0 -109 -74.5 -183t-183.5 -74q-97 0 -163 63.5t-66 155.5q0 104 77 178t185 74q99 0 162 -59t63 -155zM377 252q0 45 -25 72.5t-66 27.5q-31 0 -55 -16.5t-36.5 -41.5t-18.5 -48.5t-6 -43.5q0 -48 28 -74.5t62 -26.5q54 0 85.5 48.5t31.5 102.5zM427 656
q27 0 46 -19t19 -46t-19 -46.5t-46 -19.5t-46.5 19.5t-19.5 46.5t19.5 46t46.5 19zM225 656q27 0 46 -19t19 -46t-19 -46.5t-46 -19.5t-46.5 19.5t-19.5 46.5t19.5 46t46.5 19z" />
    <glyph glyph-name="divide" unicode="&#xf7;" horiz-adv-x="584" 
d="M305 229q30 0 51.5 -21.5t21.5 -51.5t-21.5 -51.5t-51.5 -21.5t-51.5 21.5t-21.5 51.5t21.5 51.5t51.5 21.5zM55 417h500v-128h-500v128zM305 623q30 0 51.5 -21.5t21.5 -51.5t-21.5 -51.5t-51.5 -21.5t-51.5 21.5t-21.5 51.5t21.5 51.5t51.5 21.5z" />
    <glyph glyph-name="oslash" unicode="&#xf8;" horiz-adv-x="562" 
d="M518 474l-61 -72q19 -17 35 -42q29 -52 29 -116q0 -113 -77.5 -182.5t-179.5 -69.5q-69 0 -125 34l-66 -76l-37 33l64 73q-65 68 -65 153q0 107 79 180t185 73q60 0 118 -32l63 75zM372 301l-157 -185q21 -16 50 -16q41 0 69 27.5t38.5 60t10.5 62.5q0 32 -11 51z
M182 154l156 185q-28 12 -48 12q-57 0 -87 -49.5t-30 -100.5q0 -20 9 -47z" />
    <glyph glyph-name="ugrave" unicode="&#xf9;" horiz-adv-x="548" 
d="M315 0l8 51q-70 -59 -147 -59q-75 0 -108 49.5t-22 124.5l41 288h135l-34 -241q-17 -121 36 -121t114 66l41 296h135l-64 -454h-135zM327 510l-177 172h161l89 -172h-73z" />
    <glyph glyph-name="uacute" unicode="&#xfa;" horiz-adv-x="548" 
d="M315 0l8 51q-70 -59 -147 -59q-75 0 -108 49.5t-22 124.5l41 288h135l-34 -241q-17 -121 36 -121t114 66l41 296h135l-64 -454h-135zM314 682h161l-177 -172h-73z" />
    <glyph glyph-name="ucircumflex" unicode="&#xfb;" horiz-adv-x="548" 
d="M315 0l8 51q-70 -59 -147 -59q-75 0 -108 49.5t-22 124.5l41 288h135l-34 -241q-17 -121 36 -121t114 66l41 296h135l-64 -454h-135zM411 670l59 -160h-82l-61 91l-100 -91h-91l126 160h149z" />
    <glyph glyph-name="udieresis" unicode="&#xfc;" horiz-adv-x="548" 
d="M315 0l8 51q-70 -59 -147 -59q-75 0 -108 49.5t-22 124.5l41 288h135l-34 -241q-17 -121 36 -121t114 66l41 296h135l-64 -454h-135zM413 656q27 0 46 -19t19 -46t-19 -46.5t-46 -19.5t-46.5 19.5t-19.5 46.5t19.5 46t46.5 19zM211 656q27 0 46 -19t19 -46t-19 -46.5
t-46 -19.5t-46.5 19.5t-19.5 46.5t19.5 46t46.5 19z" />
    <glyph glyph-name="yacute" unicode="&#xfd;" horiz-adv-x="490" 
d="M160 454l89 -265l120 265h141l-330 -684h-142l132 272l-145 412h135zM287 682h161l-177 -172h-73z" />
    <glyph glyph-name="thorn" unicode="&#xfe;" horiz-adv-x="583" 
d="M295 682l-33 -229q25 5 52 7q14 1 31 1q92 0 145.5 -56t53.5 -142q0 -110 -81 -191t-203 -81q-33 0 -62 9l-34 -230h-131l131 912h131zM249 355l-35 -246q18 -5 39 -5q39 0 68 13.5t44 32.5t24.5 43t11.5 40t2 30q0 48 -25.5 75t-69.5 27q-32 0 -59 -10z" />
    <glyph glyph-name="ydieresis" unicode="&#xff;" horiz-adv-x="490" 
d="M160 454l89 -265l120 265h141l-330 -684h-142l132 272l-145 412h135zM396 656q27 0 46 -19t19 -46t-19 -46.5t-46 -19.5t-46.5 19.5t-19.5 46.5t19.5 46t46.5 19zM194 656q27 0 46 -19t19 -46t-19 -46.5t-46 -19.5t-46.5 19.5t-19.5 46.5t19.5 46t46.5 19z" />
    <glyph glyph-name="Amacron" unicode="&#x100;" horiz-adv-x="625" 
d="M138 0h-160l334 691h154l120 -691h-149l-21 149h-212zM246 246h158l-36 302h-2zM572 767h-386l14 100h386z" />
    <glyph glyph-name="amacron" unicode="&#x101;" horiz-adv-x="543" 
d="M314 0l6 42q-63 -50 -131 -50q-69 0 -114 54.5t-45 139.5q0 52 17.5 99t54.5 87.5t103 64.5t154 24q82 0 153 -14l-63 -447h-135zM333 132l30 216q-1 0 -12.5 1.5t-16.5 1.5q-40 0 -71 -13t-48 -32t-28 -44t-14 -44.5t-3 -38.5q0 -41 17.5 -64t48.5 -23q49 0 97 40z
M514 540h-386l14 100h386z" />
    <glyph glyph-name="Abreve" unicode="&#x102;" horiz-adv-x="625" 
d="M138 0h-160l334 691h154l120 -691h-149l-21 149h-212zM246 246h158l-36 302h-2zM226 885h86q4 -13 8 -22t12.5 -20t23 -17t35.5 -6q63 0 90 65h86q-4 -20 -14 -42t-30 -50t-56.5 -46t-82.5 -18q-72 0 -111.5 45t-46.5 111z" />
    <glyph glyph-name="abreve" unicode="&#x103;" horiz-adv-x="543" 
d="M314 0l6 42q-63 -50 -131 -50q-69 0 -114 54.5t-45 139.5q0 52 17.5 99t54.5 87.5t103 64.5t154 24q82 0 153 -14l-63 -447h-135zM333 132l30 216q-1 0 -12.5 1.5t-16.5 1.5q-40 0 -71 -13t-48 -32t-28 -44t-14 -44.5t-3 -38.5q0 -41 17.5 -64t48.5 -23q49 0 97 40z
M188 665h88q7 -65 57 -65q25 0 43 18.5t26 46.5h88q-6 -65 -48 -110t-114 -45q-53 0 -94.5 34.5t-45.5 120.5z" />
    <glyph glyph-name="Aogonek" unicode="&#x104;" horiz-adv-x="625" 
d="M514 0q-16 -24 -16 -53q0 -17 15 -29t34 -12q25 0 75 12v-66q-63 -14 -95 -14q-53 0 -86 23.5t-33 63.5q0 36 29 75l-21 149h-212l-66 -149h-160l334 691h154l120 -691h-72zM246 246h158l-36 302h-2z" />
    <glyph glyph-name="aogonek" unicode="&#x105;" horiz-adv-x="543" 
d="M383 0q-8 -16 -8 -33q0 -15 12.5 -24.5t28.5 -9.5q42 0 69 11v-61q-43 -12 -78 -12q-53 0 -83 21t-30 49q0 27 20 59l6 42q-63 -50 -131 -50q-69 0 -114 54.5t-45 139.5q0 52 17.5 99t54.5 87.5t103 64.5t154 24q82 0 153 -14l-63 -447h-66zM333 132l30 216
q-1 0 -12.5 1.5t-16.5 1.5q-40 0 -71 -13t-48 -32t-28 -44t-14 -44.5t-3 -38.5q0 -41 17.5 -64t48.5 -23q49 0 97 40z" />
    <glyph glyph-name="Cacute" unicode="&#x106;" horiz-adv-x="674" 
d="M637 197l-21 -152q-123 -54 -240 -54q-148 0 -240 86t-92 226q0 172 124 280.5t321 108.5q81 0 185 -26l-24 -126q-81 25 -165 25q-78 0 -137 -26t-91 -67.5t-47.5 -85t-15.5 -86.5q0 -84 52.5 -133t142.5 -49q110 0 248 79zM463 900h161l-177 -172h-73z" />
    <glyph glyph-name="cacute" unicode="&#x107;" horiz-adv-x="456" 
d="M417 131l-16 -123q-66 -17 -140 -17q-102 0 -166.5 61t-64.5 158q0 107 84 179.5t207 72.5q75 0 125 -16l-17 -122q-43 16 -56 18q-9 2 -42 2q-68 0 -114.5 -40t-46.5 -99q0 -50 31 -77t87 -27q53 0 129 30zM301 682h161l-177 -172h-73z" />
    <glyph glyph-name="Ccircumflex" unicode="&#x108;" horiz-adv-x="688" 
d="M651 197l-21 -152q-123 -54 -240 -54q-148 0 -240 86t-92 226q0 172 124 280.5t321 108.5q81 0 185 -26l-24 -126q-81 25 -165 25q-78 0 -137 -26t-91 -67.5t-47.5 -85t-15.5 -86.5q0 -84 52.5 -133t142.5 -49q110 0 248 79zM590 928l64 -199h-70l-83 120l-153 -120h-84
l172 199h154z" />
    <glyph glyph-name="ccircumflex" unicode="&#x109;" horiz-adv-x="456" 
d="M417 131l-16 -123q-66 -17 -140 -17q-102 0 -166.5 61t-64.5 158q0 107 84 179.5t207 72.5q75 0 125 -16l-17 -122q-43 16 -56 18q-9 2 -42 2q-68 0 -114.5 -40t-46.5 -99q0 -50 31 -77t87 -27q53 0 129 30zM383 670l59 -160h-82l-61 91l-100 -91h-91l126 160h149z" />
    <glyph glyph-name="Cdotaccent" unicode="&#x10a;" horiz-adv-x="688" 
d="M651 197l-21 -152q-123 -54 -240 -54q-148 0 -240 86t-92 226q0 172 124 280.5t321 108.5q81 0 185 -26l-24 -126q-81 25 -165 25q-78 0 -137 -26t-91 -67.5t-47.5 -85t-15.5 -86.5q0 -84 52.5 -133t142.5 -49q110 0 248 79zM475 901q32 0 55.5 -23.5t23.5 -56.5
t-23 -56.5t-56 -23.5t-56.5 23.5t-23.5 56.5t23.5 56.5t56.5 23.5z" />
    <glyph glyph-name="cdotaccent" unicode="&#x10b;" horiz-adv-x="469" 
d="M422 131l-16 -123q-66 -17 -140 -17q-102 0 -166.5 61t-64.5 158q0 107 84 179.5t207 72.5q75 0 125 -16l-17 -122q-43 16 -56 18q-9 2 -42 2q-68 0 -114.5 -40t-46.5 -99q0 -50 31 -77t87 -27q53 0 129 30zM292 656q27 0 46 -19t19 -46t-19 -46.5t-46 -19.5t-46.5 19.5
t-19.5 46.5t19.5 46t46.5 19z" />
    <glyph glyph-name="Ccaron" unicode="&#x10c;" horiz-adv-x="674" 
d="M637 197l-21 -152q-123 -54 -240 -54q-148 0 -240 86t-92 226q0 172 124 280.5t321 108.5q81 0 185 -26l-24 -126q-81 25 -165 25q-78 0 -137 -26t-91 -67.5t-47.5 -85t-15.5 -86.5q0 -84 52.5 -133t142.5 -49q110 0 248 79zM565 890h91l-126 -160h-149l-59 160h82
l61 -91z" />
    <glyph glyph-name="ccaron" unicode="&#x10d;" horiz-adv-x="456" 
d="M417 131l-16 -123q-66 -17 -140 -17q-102 0 -166.5 61t-64.5 158q0 107 84 179.5t207 72.5q75 0 125 -16l-17 -122q-43 16 -56 18q-9 2 -42 2q-68 0 -114.5 -40t-46.5 -99q0 -50 31 -77t87 -27q53 0 129 30zM406 670h91l-126 -160h-149l-59 160h82l61 -91z" />
    <glyph glyph-name="Dcaron" unicode="&#x10e;" horiz-adv-x="740" 
d="M136 682h227q97 0 169 -30.5t110 -81t55.5 -105.5t17.5 -115q0 -151 -92.5 -250.5t-229.5 -99.5h-352zM265 568l-63 -454h136q113 0 170 70t57 168q0 94 -60.5 155t-169.5 61h-70zM495 890h91l-126 -160h-149l-59 160h82l61 -91z" />
    <glyph glyph-name="dcaron" unicode="&#x10f;" horiz-adv-x="686" 
d="M544 682l-99 -676q-87 -14 -151 -14q-132 0 -198 62.5t-66 154.5q0 100 76 176.5t206 76.5q32 0 66 -8l31 228h135zM328 106l33 236q-73 2 -107 -11q-39 -16 -61.5 -49.5t-22.5 -73.5q0 -41 28 -73t94 -32q12 0 36 3zM544 429l13 56q58 12 78 65q-44 24 -44 69
q0 36 24.5 54t51.5 18q34 0 60 -26.5t26 -68.5q0 -22 -9.5 -47t-31 -52.5t-65.5 -46.5t-103 -21z" />
    <glyph glyph-name="Dcroat" unicode="&#x110;" horiz-adv-x="740" 
d="M82 300h-73l12 82h73l43 300h161q99 0 153 -8t101 -32q75 -38 119.5 -113t44.5 -178q0 -118 -55 -203t-142 -122q-43 -18 -84.5 -22t-168.5 -4h-226zM376 300h-148l-26 -186h80q57 0 82.5 1.5t57 12t60.5 33.5q83 65 83 192q0 130 -107 186q-53 27 -146 27h-46l-26 -184
h148z" />
    <glyph glyph-name="dcroat" unicode="&#x111;" horiz-adv-x="538" 
d="M533 608h59l-11 -73h-58l-78 -529q-87 -14 -151 -14q-132 0 -198 62.5t-66 154.5q0 100 76 176.5t206 76.5q32 0 66 -8l11 81h-86l11 73h85l10 74h135zM328 106l33 236q-73 2 -107 -11q-39 -16 -61.5 -49.5t-22.5 -73.5q0 -41 28 -73t94 -32q12 0 36 3z" />
    <glyph glyph-name="Emacron" unicode="&#x112;" horiz-adv-x="583" 
d="M541 0h-499l96 682h426l-16 -114h-281l-23 -161h247l-16 -114h-247l-25 -179h354zM561 767h-386l14 100h386z" />
    <glyph glyph-name="emacron" unicode="&#x113;" horiz-adv-x="506" 
d="M443 137l-24 -113q-88 -33 -158 -33q-103 0 -164.5 60t-61.5 161q0 104 71.5 177t174.5 73q106 0 158.5 -72.5t28.5 -181.5h-297q-5 -54 24.5 -85.5t79.5 -31.5q55 0 168 46zM184 286h159q6 37 -12 60t-53 23q-65 0 -94 -83zM487 540h-386l14 100h386z" />
    <glyph glyph-name="Ebreve" unicode="&#x114;" horiz-adv-x="583" 
d="M541 0h-499l96 682h426l-16 -114h-281l-23 -161h247l-16 -114h-247l-25 -179h354zM220 885h86q4 -13 8 -22t12.5 -20t23 -17t35.5 -6q63 0 90 65h86q-4 -20 -14 -42t-30 -50t-56.5 -46t-82.5 -18q-72 0 -111.5 45t-46.5 111z" />
    <glyph glyph-name="ebreve" unicode="&#x115;" horiz-adv-x="510" 
d="M443 137l-24 -113q-88 -33 -158 -33q-103 0 -164.5 60t-61.5 161q0 104 71.5 177t174.5 73q106 0 158.5 -72.5t28.5 -181.5h-297q-5 -54 24.5 -85.5t79.5 -31.5q55 0 168 46zM184 286h159q6 37 -12 60t-53 23q-65 0 -94 -83zM156 665h88q7 -65 57 -65q25 0 43 18.5
t26 46.5h88q-6 -65 -48 -110t-114 -45q-53 0 -94.5 34.5t-45.5 120.5z" />
    <glyph glyph-name="Edotaccent" unicode="&#x116;" horiz-adv-x="583" 
d="M541 0h-499l96 682h426l-16 -114h-281l-23 -161h247l-16 -114h-247l-25 -179h354zM382 901q32 0 55.5 -23.5t23.5 -56.5t-23 -56.5t-56 -23.5t-56.5 23.5t-23.5 56.5t23.5 56.5t56.5 23.5z" />
    <glyph glyph-name="edotaccent" unicode="&#x117;" horiz-adv-x="506" 
d="M443 137l-24 -113q-88 -33 -158 -33q-103 0 -164.5 60t-61.5 161q0 104 71.5 177t174.5 73q106 0 158.5 -72.5t28.5 -181.5h-297q-5 -54 24.5 -85.5t79.5 -31.5q55 0 168 46zM184 286h159q6 37 -12 60t-53 23q-65 0 -94 -83zM308 656q27 0 46 -19t19 -46t-19 -46.5
t-46 -19.5t-46.5 19.5t-19.5 46.5t19.5 46t46.5 19z" />
    <glyph glyph-name="Eogonek" unicode="&#x118;" horiz-adv-x="583" 
d="M540 0h-105q-16 -28 -16 -48q0 -46 49 -46q25 0 75 12v-66q-63 -14 -95 -14q-53 0 -86 24.5t-33 62.5q0 35 30 75h-317l96 682h426l-16 -114h-281l-23 -161h247l-16 -114h-247l-25 -179h354z" />
    <glyph glyph-name="eogonek" unicode="&#x119;" horiz-adv-x="506" 
d="M271 -9q-7 -14 -7 -25q0 -15 10.5 -24.5t30.5 -9.5q41 0 69 11v-61q-44 -12 -78 -12t-58 7.5t-35 19.5t-15.5 22.5t-4.5 20.5q-1 34 19 60q-66 7 -116.5 62.5t-50.5 149.5q0 104 71.5 177t174.5 73t157 -72t30 -182h-297q-6 -45 21.5 -81t82.5 -36t168 46l-24 -113
q-85 -33 -148 -33zM184 286h159q6 37 -12 60t-53 23q-65 0 -94 -83z" />
    <glyph glyph-name="Ecaron" unicode="&#x11a;" horiz-adv-x="583" 
d="M541 0h-499l96 682h426l-16 -114h-281l-23 -161h247l-16 -114h-247l-25 -179h354zM481 890h91l-126 -160h-149l-59 160h82l61 -91z" />
    <glyph glyph-name="ecaron" unicode="&#x11b;" horiz-adv-x="506" 
d="M443 137l-24 -113q-88 -33 -158 -33q-103 0 -164.5 60t-61.5 161q0 104 71.5 177t174.5 73q106 0 158.5 -72.5t28.5 -181.5h-297q-5 -54 24.5 -85.5t79.5 -31.5q55 0 168 46zM184 286h159q6 37 -12 60t-53 23q-65 0 -94 -83zM407 670h91l-126 -160h-149l-59 160h82
l61 -91z" />
    <glyph glyph-name="Gcircumflex" unicode="&#x11c;" horiz-adv-x="740" 
d="M409 251l15 108h270l-49 -348q-71 -20 -212 -20q-102 0 -179 26.5t-120.5 72t-64.5 98t-21 111.5q0 54 16 107t54 105.5t93 92t140 64t188 24.5q110 0 198 -26l-17 -126q-93 25 -181 25q-151 0 -246 -72.5t-95 -188.5q0 -91 60.5 -138.5t156.5 -47.5q54 0 102 12l17 121
h-125zM611 928l64 -199h-70l-83 120l-153 -120h-84l172 199h154z" />
    <glyph glyph-name="gcircumflex" unicode="&#x11d;" horiz-adv-x="490" 
d="M-11 -118q0 67 112 102q-28 13 -45 36t-17 48q0 39 33 61q20 13 58 23q-80 47 -80 131q0 67 55 119t147 52h254l-13 -100h-73q18 -39 18 -72q0 -67 -50 -117t-141 -50q-49 0 -65.5 -4.5t-16.5 -18.5t28 -21t68.5 -13.5t81 -18t68.5 -42.5t28 -79q0 -147 -234 -147
q-118 0 -167 32.5t-49 78.5zM312 298q0 30 -17 47.5t-46 17.5q-73 0 -73 -100q0 -30 16.5 -46t45.5 -16q74 0 74 97zM190 -43q-83 -11 -83 -53q0 -47 100 -47q57 0 81.5 10t24.5 33q0 21 -21.5 30.5t-76.5 21.5q-16 3 -25 5zM384 670l59 -160h-82l-61 91l-100 -91h-91
l126 160h149z" />
    <glyph glyph-name="Gbreve" unicode="&#x11e;" horiz-adv-x="743" 
d="M405 251l15 108h270l-49 -348q-71 -20 -212 -20q-102 0 -179 26.5t-120.5 72t-64.5 98t-21 111.5q0 54 16 107t54 105.5t93 92t140 64t188 24.5q110 0 198 -26l-17 -126q-93 25 -181 25q-151 0 -246 -72.5t-95 -188.5q0 -91 60.5 -138.5t156.5 -47.5q54 0 102 12l17 121
h-125zM340 885h86q4 -13 8 -22t12.5 -20t23 -17t35.5 -6q63 0 90 65h86q-4 -20 -14 -42t-30 -50t-56.5 -46t-82.5 -18q-72 0 -111.5 45t-46.5 111z" />
    <glyph glyph-name="gbreve" unicode="&#x11f;" horiz-adv-x="490" 
d="M-11 -118q0 67 112 102q-28 13 -45 36t-17 48q0 39 33 61q20 13 58 23q-80 47 -80 131q0 67 55 119t147 52h254l-13 -100h-73q18 -39 18 -72q0 -67 -50 -117t-141 -50q-49 0 -65.5 -4.5t-16.5 -18.5t28 -21t68.5 -13.5t81 -18t68.5 -42.5t28 -79q0 -147 -234 -147
q-118 0 -167 32.5t-49 78.5zM312 298q0 30 -17 47.5t-46 17.5q-73 0 -73 -100q0 -30 16.5 -46t45.5 -16q74 0 74 97zM190 -43q-83 -11 -83 -53q0 -47 100 -47q57 0 81.5 10t24.5 33q0 21 -21.5 30.5t-76.5 21.5q-16 3 -25 5zM171 665h88q7 -65 57 -65q25 0 43 18.5t26 46.5
h88q-6 -65 -48 -110t-114 -45q-53 0 -94.5 34.5t-45.5 120.5z" />
    <glyph glyph-name="Gdotaccent" unicode="&#x120;" horiz-adv-x="740" 
d="M409 251l15 108h270l-49 -348q-71 -20 -212 -20q-102 0 -179 26.5t-120.5 72t-64.5 98t-21 111.5q0 54 16 107t54 105.5t93 92t140 64t188 24.5q110 0 198 -26l-17 -126q-93 25 -181 25q-151 0 -246 -72.5t-95 -188.5q0 -91 60.5 -138.5t156.5 -47.5q54 0 102 12l17 121
h-125zM501 901q32 0 55.5 -23.5t23.5 -56.5t-23 -56.5t-56 -23.5t-56.5 23.5t-23.5 56.5t23.5 56.5t56.5 23.5z" />
    <glyph glyph-name="gdotaccent" unicode="&#x121;" horiz-adv-x="490" 
d="M-11 -118q0 67 112 102q-28 13 -45 36t-17 48q0 39 33 61q20 13 58 23q-80 47 -80 131q0 67 55 119t147 52h254l-13 -100h-73q18 -39 18 -72q0 -67 -50 -117t-141 -50q-49 0 -65.5 -4.5t-16.5 -18.5t28 -21t68.5 -13.5t81 -18t68.5 -42.5t28 -79q0 -147 -234 -147
q-118 0 -167 32.5t-49 78.5zM312 298q0 30 -17 47.5t-46 17.5q-73 0 -73 -100q0 -30 16.5 -46t45.5 -16q74 0 74 97zM190 -43q-83 -11 -83 -53q0 -47 100 -47q57 0 81.5 10t24.5 33q0 21 -21.5 30.5t-76.5 21.5q-16 3 -25 5zM288 656q27 0 46 -19t19 -46t-19 -46.5
t-46 -19.5t-46.5 19.5t-19.5 46.5t19.5 46t46.5 19z" />
    <glyph glyph-name="Gcommaaccent" unicode="&#x122;" horiz-adv-x="743" 
d="M405 251l15 108h270l-49 -348q-71 -20 -212 -20q-102 0 -179 26.5t-120.5 72t-64.5 98t-21 111.5q0 54 16 107t54 105.5t93 92t140 64t188 24.5q110 0 198 -26l-17 -126q-93 25 -181 25q-151 0 -246 -72.5t-95 -188.5q0 -91 60.5 -138.5t156.5 -47.5q54 0 102 12l17 121
h-125zM276 -201l14 51q38 -8 73 -8q60 0 60 36q0 31 -73 31h-27l16 54h27q157 0 157 -80q0 -48 -42.5 -71.5t-110.5 -23.5q-61 0 -94 11z" />
    <glyph glyph-name="gcommaaccent" unicode="&#x123;" horiz-adv-x="490" 
d="M506 454l-13 -97h-72q16 -39 16 -72q0 -71 -50 -118.5t-122 -49.5q-50 0 -70 -2q-29 -5 -29 -21q0 -14 12.5 -19t69.5 -15q99 -17 135 -40q25 -16 40.5 -45t15.5 -61q0 -40 -24 -73t-56 -47q-55 -24 -158 -24q-104 0 -157 29q-24 12 -39.5 34t-15.5 47q0 70 112 104
q-30 14 -46.5 37.5t-16.5 47.5q0 46 51 70q2 1 41 14q-79 47 -79 133q0 39 18 71.5t35 47t35 24.5q29 17 64 21t105 4h198zM309 298q0 21 -7 35.5t-18 20.5t-19.5 8t-15.5 2q-29 0 -46 -19t-21 -38.5t-4 -41.5q0 -28 16.5 -45t42.5 -17q39 0 55.5 29.5t16.5 65.5zM189 -49
q-82 -15 -82 -50q0 -41 100 -41q106 0 106 38q0 29 -59 39q-54 11 -65 14zM413 750l-13 -55q-58 -12 -78 -65q44 -24 44 -68q0 -36 -24.5 -54t-51.5 -18q-35 0 -61 27t-26 67q0 21 9 44.5t29.5 51.5t65 47.5t106.5 22.5z" />
    <glyph glyph-name="Hcircumflex" unicode="&#x124;" horiz-adv-x="792" 
d="M247 412h347l38 270h145l-96 -682h-145l40 278h-348l-39 -278h-145l96 682h145zM592 928l64 -199h-70l-83 120l-153 -120h-84l172 199h154z" />
    <glyph glyph-name="hcircumflex" unicode="&#x125;" horiz-adv-x="552" 
d="M165 0h-135l96 682h135l-40 -280q71 60 152 60q66 0 100 -44.5t23 -123.5l-41 -294h-135l41 291q3 25 -8 43t-34 18q-47 0 -113 -57zM415 882l59 -160h-82l-61 91l-100 -91h-91l126 160h149z" />
    <glyph glyph-name="Hbar" unicode="&#x126;" horiz-adv-x="792" 
d="M765 582h77l-11 -82h-78l-74 -500h-143l39 278h-347l-39 -278h-148l74 500h-76l12 82h76l15 100h144l-14 -100h346l15 100h147zM607 500h-347l-12 -88h346z" />
    <glyph glyph-name="hbar" unicode="&#x127;" horiz-adv-x="552" 
d="M248 591h140l-9 -82h-142l-15 -107q78 60 152 60q29 0 54.5 -9t48 -40.5t22.5 -82.5q0 -24 -12 -114l-31 -216h-136l35 250q7 45 7 64q0 43 -39 43q-49 0 -117 -62l-42 -295h-135l73 509h-96l9 82h98l13 91h135z" />
    <glyph glyph-name="Itilde" unicode="&#x128;" horiz-adv-x="302" 
d="M190 0h-145l96 682h145zM101 729h-73q-3 68 30.5 114.5t86.5 46.5q17 0 34.5 -5.5t28.5 -11.5t38 -22q35 -20 58 -20q36 0 36 58h73q3 -81 -34.5 -120.5t-82.5 -39.5q-18 0 -35 5.5t-29.5 12t-40.5 23.5q-30 19 -53 19q-37 0 -37 -60z" />
    <glyph glyph-name="itilde" unicode="&#x129;" horiz-adv-x="260" 
d="M164 0h-135l64 454h135zM69 517h-64q0 67 24.5 107t72.5 40q23 0 40 -7.5t53 -29.5q25 -14 38 -14q31 0 38 51h64q0 -65 -24 -106.5t-74 -41.5q-28 0 -66 23q-49 30 -64 30q-17 0 -27 -15.5t-11 -36.5z" />
    <glyph glyph-name="Imacron" unicode="&#x12a;" horiz-adv-x="302" 
d="M190 0h-145l96 682h145zM406 767h-386l14 100h386z" />
    <glyph glyph-name="imacron" unicode="&#x12b;" horiz-adv-x="262" 
d="M164 0h-135l64 454h135zM347 540h-386l14 100h386z" />
    <glyph glyph-name="Ibreve" unicode="&#x12c;" horiz-adv-x="302" 
d="M190 0h-145l96 682h145zM63 885h86q4 -13 8 -22t12.5 -20t23 -17t35.5 -6q63 0 90 65h86q-4 -20 -14 -42t-30 -50t-56.5 -46t-82.5 -18q-72 0 -111.5 45t-46.5 111z" />
    <glyph glyph-name="ibreve" unicode="&#x12d;" horiz-adv-x="260" 
d="M164 0h-135l64 454h135zM41 665h88q7 -65 57 -65q25 0 43 18.5t26 46.5h88q-6 -65 -48 -110t-114 -45q-53 0 -94.5 34.5t-45.5 120.5z" />
    <glyph glyph-name="Iogonek" unicode="&#x12e;" horiz-adv-x="302" 
d="M122 0q-16 -23 -16 -48q0 -20 13 -33t36 -13q25 0 75 12v-66q-63 -14 -95 -14q-38 0 -64 10.5t-36.5 27t-14.5 28t-4 21.5q0 35 29 75l96 682h145l-96 -682h-68z" />
    <glyph glyph-name="iogonek" unicode="&#x12f;" horiz-adv-x="262" 
d="M99 0q-9 -17 -9 -33q0 -12 11 -23t30 -11q44 0 69 11v-61q-44 -12 -78 -12q-63 0 -88 22t-25 48q0 30 20 59l64 454h135l-64 -454h-65zM176 650q29 0 49.5 -20.5t20.5 -49.5t-20.5 -49.5t-49.5 -20.5t-49.5 20.5t-20.5 49.5t20.5 49.5t49.5 20.5z" />
    <glyph glyph-name="Idotaccent" unicode="&#x130;" horiz-adv-x="302" 
d="M190 0h-145l96 682h145zM227 901q32 0 55.5 -23.5t23.5 -56.5t-23 -56.5t-56 -23.5t-56.5 23.5t-23.5 56.5t23.5 56.5t56.5 23.5z" />
    <glyph glyph-name="dotlessi" unicode="&#x131;" horiz-adv-x="262" 
d="M164 0h-135l64 454h135z" />
    <glyph glyph-name="IJ" unicode="&#x132;" horiz-adv-x="604" 
d="M287 682l-97 -682h-147l99 682h145zM591 682l-88 -618q-18 -137 -37.5 -187t-78.5 -80q-67 -35 -167 -24l16 113q48 0 72 19q21 16 29.5 44.5t20.5 114.5l88 618h145z" />
    <glyph glyph-name="ij" unicode="&#x133;" horiz-adv-x="521" 
d="M229 454l-66 -454h-134l65 454h135zM438 650q28 0 48.5 -20t20.5 -49t-20 -49t-49 -20q-28 0 -48.5 20t-20.5 49t20.5 49t48.5 20zM486 454l-65 -454q-4 -28 -6.5 -43.5t-9 -43.5t-14.5 -44.5t-23 -37.5t-33.5 -32.5t-45.5 -20t-61 -8.5q-52 0 -112 20l17 116
q48 -13 67 -13q21 0 36.5 7.5t24.5 17t15 29.5t8 33t6 41l62 433h134zM179 650q28 0 48 -20t20 -48t-20 -48t-48 -20q-29 0 -48.5 20t-19.5 48t19.5 48t48.5 20z" />
    <glyph glyph-name="Jcircumflex" unicode="&#x134;" horiz-adv-x="302" 
d="M-82 -227l16 113q53 1 78 24t34 84l97 688h145l-101 -717q-16 -112 -82.5 -159t-186.5 -33zM347 928l64 -199h-70l-83 120l-153 -120h-84l172 199h154z" />
    <glyph glyph-name="jcircumflex" unicode="&#x135;" horiz-adv-x="260" 
d="M226 454l-64 -434q-9 -58 -13 -82.5t-13 -51.5t-22 -45q-50 -71 -143 -71q-23 0 -47 6l16 108q32 -1 54 18q13 12 19 32.5t13 65.5l67 454h133zM251 676l59 -160h-82l-61 91l-100 -91h-91l126 160h149z" />
    <glyph glyph-name="Kcommaaccent" unicode="&#x136;" horiz-adv-x="646" 
d="M242 391l2 -2l288 293h172l-306 -308l265 -374h-168l-257 362l-51 -362h-145l96 682h145zM198 -201l14 51q38 -8 73 -8q60 0 60 36q0 31 -73 31h-27l16 54h27q157 0 157 -80q0 -48 -42.5 -71.5t-110.5 -23.5q-61 0 -94 11z" />
    <glyph glyph-name="kcommaaccent" unicode="&#x137;" horiz-adv-x="540" 
d="M167 0h-135l96 682h135l-60 -422l2 -2l162 196h167l-180 -216l175 -238h-164l-167 224zM142 -164l10 45q20 -5 46 -5q52 0 52 22q0 12 -10 15.5t-43 6.5l9 43q20 0 32 -1t31.5 -4.5t30 -9.5t19 -17.5t8.5 -28.5q0 -26 -14.5 -43.5t-38.5 -23.5t-37 -7.5t-26 -1.5
q-33 0 -69 10z" />
    <glyph glyph-name="kgreenlandic" unicode="&#x138;" horiz-adv-x="510" 
d="M227 454l-29 -196l164 196h166l-179 -216l169 -238h-156l-164 224l-35 -224h-133l67 454h130z" />
    <glyph glyph-name="Lacute" unicode="&#x139;" horiz-adv-x="535" 
d="M499 0h-455l96 682h145l-80 -568h310zM267 900h161l-177 -172h-73z" />
    <glyph glyph-name="lacute" unicode="&#x13a;" horiz-adv-x="260" 
d="M167 0h-135l96 682h135zM172 894h161l-177 -172h-73z" />
    <glyph glyph-name="Lcommaaccent" unicode="&#x13b;" horiz-adv-x="535" 
d="M499 0h-455l96 682h145l-80 -568h310zM144 -201l14 51q38 -8 73 -8q60 0 60 36q0 31 -73 31h-27l16 54h27q157 0 157 -80q0 -48 -42.5 -71.5t-110.5 -23.5q-61 0 -94 11z" />
    <glyph glyph-name="lcommaaccent" unicode="&#x13c;" horiz-adv-x="260" 
d="M167 0h-135l96 682h135zM-12 -164l10 45q20 -5 46 -5q52 0 52 22q0 12 -10 15.5t-43 6.5l9 43q20 0 32 -1t31.5 -4.5t30 -9.5t19 -17.5t8.5 -28.5q0 -26 -14.5 -43.5t-38.5 -23.5t-37 -7.5t-26 -1.5q-33 0 -69 10z" />
    <glyph glyph-name="Lcaron" unicode="&#x13d;" horiz-adv-x="534" 
d="M285 682l-80 -570h309l-16 -112h-455l97 682h145zM339 429l13 56q58 12 78 65q-44 24 -44 69q0 36 24.5 54t51.5 18q34 0 60.5 -26.5t26.5 -68.5q0 -22 -9.5 -47t-31.5 -52.5t-66 -46.5t-103 -21z" />
    <glyph glyph-name="lcaron" unicode="&#x13e;" horiz-adv-x="394" 
d="M260 682l-97 -682h-132l97 682h132zM260 429l12 56q58 12 78 65q-43 23 -43 69q0 36 24.5 54t51.5 18q34 0 60 -26.5t26 -68.5q0 -22 -9.5 -47t-31 -52.5t-65.5 -46.5t-103 -21z" />
    <glyph glyph-name="Ldot" unicode="&#x13f;" horiz-adv-x="531" 
d="M283 682l-81 -570h309l-16 -112h-455l97 682h146zM383 450q33 0 56.5 -23t23.5 -57q0 -33 -23.5 -57t-56.5 -24t-56.5 23.5t-23.5 57.5t23.5 57t56.5 23z" />
    <glyph glyph-name="ldot" unicode="&#x140;" horiz-adv-x="417" 
d="M261 682l-97 -682h-132l96 682h133zM337 422q32 0 55.5 -23.5t23.5 -56.5t-23 -56.5t-56 -23.5t-56.5 23.5t-23.5 56.5t23.5 56.5t56.5 23.5z" />
    <glyph glyph-name="Lslash" unicode="&#x141;" horiz-adv-x="531" 
d="M282 682l-31 -221l156 127l-15 -100l-156 -129l-36 -246h311l-17 -113h-456l32 223l-71 -57l14 101l72 59l52 356h145z" />
    <glyph glyph-name="lslash" unicode="&#x142;" horiz-adv-x="260" 
d="M216 453l52 43l-12 -83l-52 -44l-52 -369h-136l35 241l-55 -47l12 84l55 47l52 357h133z" />
    <glyph glyph-name="Nacute" unicode="&#x143;" horiz-adv-x="781" 
d="M559 237h2l61 445h145l-95 -682h-138l-280 462h-2l-64 -462h-145l96 682h145zM498 900h161l-177 -172h-73z" />
    <glyph glyph-name="nacute" unicode="&#x144;" horiz-adv-x="549" 
d="M229 454l-8 -51q77 59 155 59q74 0 102.5 -52t17.5 -129l-39 -281h-135l38 271q5 37 -5 64t-35 27q-48 0 -114 -70l-41 -292h-135l64 454h135zM333 682h161l-177 -172h-73z" />
    <glyph glyph-name="Ncommaaccent" unicode="&#x145;" horiz-adv-x="781" 
d="M559 237h2l61 445h145l-95 -682h-138l-280 462h-2l-64 -462h-145l96 682h145zM265 -201l14 51q38 -8 73 -8q60 0 60 36q0 31 -73 31h-27l16 54h27q157 0 157 -80q0 -48 -42.5 -71.5t-110.5 -23.5q-61 0 -94 11z" />
    <glyph glyph-name="ncommaaccent" unicode="&#x146;" horiz-adv-x="549" 
d="M229 454l-8 -51q77 59 155 59q74 0 102.5 -52t17.5 -129l-39 -281h-135l38 271q5 37 -5 64t-35 27q-48 0 -114 -70l-41 -292h-135l64 454h135zM160 -164l10 45q20 -5 46 -5q52 0 52 22q0 12 -10 15.5t-43 6.5l9 43q20 0 32 -1t31.5 -4.5t30 -9.5t19 -17.5t8.5 -28.5
q0 -26 -14.5 -43.5t-38.5 -23.5t-37 -7.5t-26 -1.5q-33 0 -69 10z" />
    <glyph glyph-name="Ncaron" unicode="&#x147;" horiz-adv-x="781" 
d="M559 237h2l61 445h145l-95 -682h-138l-280 462h-2l-64 -462h-145l96 682h145zM565 890h91l-126 -160h-149l-59 160h82l61 -91z" />
    <glyph glyph-name="ncaron" unicode="&#x148;" horiz-adv-x="549" 
d="M229 454l-8 -51q77 59 155 59q74 0 102.5 -52t17.5 -129l-39 -281h-135l38 271q5 37 -5 64t-35 27q-48 0 -114 -70l-41 -292h-135l64 454h135zM443 670h91l-126 -160h-149l-59 160h82l61 -91z" />
    <glyph glyph-name="napostrophe" unicode="&#x149;" horiz-adv-x="771" 
d="M46 400l14 62q64 11 87 72q-49 27 -49 77q0 39 28 59.5t57 20.5q38 0 67 -30t29 -76q0 -23 -10 -50t-33.5 -58t-72.5 -52.5t-117 -24.5zM448 454l-7 -51q77 59 156 59q34 0 59 -12.5t36.5 -28.5t18.5 -37t8 -31.5t1 -18.5q0 -53 -12 -125l-32 -209h-133l34 239q8 55 8 73
q0 19 -9.5 31t-17.5 14.5t-14 2.5q-44 0 -119 -68l-41 -292h-133l64 454h133z" />
    <glyph glyph-name="Eng" unicode="&#x14a;" horiz-adv-x="786" 
d="M440 -9l15 114q60 1 82 27.5t31 93.5l24 178q21 160 -129 160q-86 0 -149 -59.5t-78 -165.5l-50 -339h-145l100 682h144l-12 -78q34 30 96.5 58.5t134.5 28.5q121 0 187 -80t46 -219l-28 -199q-15 -110 -68.5 -156t-158.5 -46h-42z" />
    <glyph glyph-name="eng" unicode="&#x14b;" horiz-adv-x="558" 
d="M223 -224l15 108q21 -1 36 6t23 16t14.5 27.5t8.5 30.5t5 36l34 261q5 38 5 51q0 48 -41 48q-51 0 -119 -68l-42 -292h-132l64 454h133l-7 -51q78 59 157 59q65 0 96 -44q26 -38 26 -87q0 -35 -5 -72l-33 -239q-16 -102 -28.5 -140.5t-46.5 -67.5q-48 -42 -117 -42
q-22 0 -46 6z" />
    <glyph glyph-name="Omacron" unicode="&#x14c;" horiz-adv-x="797" 
d="M781 380q0 -174 -110.5 -281.5t-282.5 -107.5q-149 0 -246.5 89t-97.5 228q0 166 114 275t287 109q149 0 242.5 -87t93.5 -225zM631 370q0 85 -55.5 140t-140.5 55q-99 0 -170 -73.5t-71 -176.5q0 -88 54.5 -142.5t140.5 -54.5q101 0 171.5 73t70.5 179zM665 767h-386
l14 100h386z" />
    <glyph glyph-name="omacron" unicode="&#x14d;" horiz-adv-x="543" 
d="M517 248q0 -109 -74.5 -183t-183.5 -74q-97 0 -163 63.5t-66 155.5q0 104 77 178t185 74q99 0 162 -59t63 -155zM377 252q0 45 -25 72.5t-66 27.5q-31 0 -55 -16.5t-36.5 -41.5t-18.5 -48.5t-6 -43.5q0 -48 28 -74.5t62 -26.5q54 0 85.5 48.5t31.5 102.5zM503 540h-386
l14 100h386z" />
    <glyph glyph-name="Obreve" unicode="&#x14e;" horiz-adv-x="833" 
d="M797 380q0 -174 -110.5 -281.5t-282.5 -107.5q-149 0 -246.5 89t-97.5 228q0 166 114 275t287 109q149 0 242.5 -87t93.5 -225zM647 370q0 85 -55.5 140t-140.5 55q-99 0 -170 -73.5t-71 -176.5q0 -88 54.5 -142.5t140.5 -54.5q101 0 171.5 73t70.5 179zM325 885h86
q4 -13 8 -22t12.5 -20t23 -17t35.5 -6q63 0 90 65h86q-4 -20 -14 -42t-30 -50t-56.5 -46t-82.5 -18q-72 0 -111.5 45t-46.5 111z" />
    <glyph glyph-name="obreve" unicode="&#x14f;" horiz-adv-x="562" 
d="M522 248q0 -109 -74.5 -183t-183.5 -74q-97 0 -163 63.5t-66 155.5q0 104 77 178t185 74q99 0 162 -59t63 -155zM382 252q0 45 -25 72.5t-66 27.5q-31 0 -55 -16.5t-36.5 -41.5t-18.5 -48.5t-6 -43.5q0 -48 28 -74.5t62 -26.5q54 0 85.5 48.5t31.5 102.5zM192 665h88
q7 -65 57 -65q25 0 43 18.5t26 46.5h88q-6 -65 -48 -110t-114 -45q-53 0 -94.5 34.5t-45.5 120.5z" />
    <glyph glyph-name="Ohungarumlaut" unicode="&#x150;" horiz-adv-x="797" 
d="M781 380q0 -174 -110.5 -281.5t-282.5 -107.5q-149 0 -246.5 89t-97.5 228q0 166 114 275t287 109q149 0 242.5 -87t93.5 -225zM631 370q0 85 -55.5 140t-140.5 55q-99 0 -170 -73.5t-71 -176.5q0 -88 54.5 -142.5t140.5 -54.5q101 0 171.5 73t70.5 179zM378 900h127
l-103 -164h-61zM545 900h127l-103 -164h-61z" />
    <glyph glyph-name="ohungarumlaut" unicode="&#x151;" horiz-adv-x="543" 
d="M517 248q0 -109 -74.5 -183t-183.5 -74q-97 0 -163 63.5t-66 155.5q0 104 77 178t185 74q99 0 162 -59t63 -155zM377 252q0 45 -25 72.5t-66 27.5q-31 0 -55 -16.5t-36.5 -41.5t-18.5 -48.5t-6 -43.5q0 -48 28 -74.5t62 -26.5q54 0 85.5 48.5t31.5 102.5zM237 674h127
l-103 -164h-61zM393 674h127l-103 -164h-61z" />
    <glyph glyph-name="OE" unicode="&#x152;" horiz-adv-x="1052" 
d="M1033 682l-16 -114h-282l-23 -161h259l-16 -113h-259l-26 -180h363l-16 -114h-554q-117 0 -152 5q-130 19 -198.5 101t-68.5 196q0 89 43 177t135 146q43 27 94.5 40t85 15t94.5 2h537zM525 114l64 454h-77q-137 0 -201 -38q-118 -72 -118 -222q0 -126 95 -174
q19 -9 45.5 -14t48 -5.5t66.5 -0.5h77z" />
    <glyph glyph-name="oe" unicode="&#x153;" horiz-adv-x="786" 
d="M729 143l-25 -116q-72 -35 -152 -35q-95 0 -167 56q-73 -56 -147 -56q-90 0 -147.5 65t-57.5 156q0 97 65 173t173 76q80 0 143 -58q71 58 156 58q81 0 133.5 -53.5t52.5 -136.5q0 -20 -8 -63h-284q-3 -15 -3 -30q0 -11 4 -23t14 -26.5t32.5 -23.5t54.5 -9q69 0 163 46z
M477 285h146q0 2 0.5 10.5t0.5 13.5q0 23 -15.5 40t-43.5 17q-21 0 -37.5 -8t-26.5 -23.5t-14.5 -25t-9.5 -24.5zM335 268q0 41 -19.5 63.5t-48.5 22.5q-45 0 -70 -52t-25 -109q0 -48 20 -70.5t46 -22.5q31 0 52.5 22.5t30 55.5t11.5 54.5t3 35.5z" />
    <glyph glyph-name="Racute" unicode="&#x154;" horiz-adv-x="646" 
d="M226 276l-38 -276h-145l95 682h234q62 0 108.5 -20t72 -51.5t37.5 -65.5t12 -68q0 -66 -38.5 -115t-113.5 -63v-2q26 -11 41 -29t31 -51l105 -217h-160l-65 138q-43 92 -67.5 115t-77.5 23h-31zM267 568l-26 -186h72q69 0 104 29t35 70t-30 64t-84 23h-71zM381 900h161
l-177 -172h-73z" />
    <glyph glyph-name="racute" unicode="&#x155;" horiz-adv-x="372" 
d="M219 389l2 -2q61 75 110 75q38 0 81 -50l-63 -125q-33 49 -64 49q-22 0 -46 -20.5t-36 -45.5l-38 -270h-135l64 454h135zM261 682h161l-177 -172h-73z" />
    <glyph glyph-name="Rcommaaccent" unicode="&#x156;" horiz-adv-x="646" 
d="M226 276l-38 -276h-145l95 682h234q62 0 108.5 -20t72 -51.5t37.5 -65.5t12 -68q0 -66 -38.5 -115t-113.5 -63v-2q26 -11 41 -29t31 -51l105 -217h-160l-65 138q-43 92 -67.5 115t-77.5 23h-31zM267 568l-26 -186h72q69 0 104 29t35 70t-30 64t-84 23h-71zM198 -201
l14 51q38 -8 73 -8q60 0 60 36q0 31 -73 31h-27l16 54h27q157 0 157 -80q0 -48 -42.5 -71.5t-110.5 -23.5q-61 0 -94 11z" />
    <glyph glyph-name="rcommaaccent" unicode="&#x157;" horiz-adv-x="372" 
d="M219 389l2 -2q61 75 110 75q38 0 81 -50l-63 -125q-33 49 -64 49q-22 0 -46 -20.5t-36 -45.5l-38 -270h-135l64 454h135zM23 -164l10 45q20 -5 46 -5q52 0 52 22q0 12 -10 15.5t-43 6.5l9 43q20 0 32 -1t31.5 -4.5t30 -9.5t19 -17.5t8.5 -28.5q0 -26 -14.5 -43.5
t-38.5 -23.5t-37 -7.5t-26 -1.5q-33 0 -69 10z" />
    <glyph glyph-name="Rcaron" unicode="&#x158;" horiz-adv-x="646" 
d="M226 276l-38 -276h-145l95 682h234q62 0 108.5 -20t72 -51.5t37.5 -65.5t12 -68q0 -66 -38.5 -115t-113.5 -63v-2q26 -11 41 -29t31 -51l105 -217h-160l-65 138q-43 92 -67.5 115t-77.5 23h-31zM267 568l-26 -186h72q69 0 104 29t35 70t-30 64t-84 23h-71zM458 890h91
l-126 -160h-149l-59 160h82l61 -91z" />
    <glyph glyph-name="rcaron" unicode="&#x159;" horiz-adv-x="372" 
d="M219 389l2 -2q61 75 110 75q38 0 81 -50l-63 -125q-33 49 -64 49q-22 0 -46 -20.5t-36 -45.5l-38 -270h-135l64 454h135zM371 670h91l-126 -160h-149l-59 160h82l61 -91z" />
    <glyph glyph-name="Sacute" unicode="&#x15a;" horiz-adv-x="523" 
d="M22 56l22 119q42 -30 96.5 -50t96.5 -20q44 0 71 20.5t27 54.5q0 31 -26 57.5t-63 48t-73.5 46.5t-62.5 64t-26 89q0 89 68.5 147.5t171.5 58.5q104 0 195 -54l-20 -120q-34 25 -82.5 42.5t-86.5 17.5q-41 0 -68.5 -21t-27.5 -54q0 -26 26 -49.5t63 -44.5t73.5 -46.5
t62.5 -67t26 -94.5q0 -88 -61 -148.5t-170 -60.5q-133 0 -232 65zM363 900h161l-177 -172h-73z" />
    <glyph glyph-name="sacute" unicode="&#x15b;" horiz-adv-x="375" 
d="M11 33l19 101q87 -32 124 -32q44 0 44 25q0 16 -23.5 37.5t-52 41t-52 49.5t-23.5 60q0 65 47 106t122 41q69 0 143 -41l-11 -107q-34 17 -72.5 27.5t-58.5 10.5q-30 0 -30 -20q0 -16 23.5 -37t52 -39.5t52 -51.5t23.5 -70q0 -62 -47.5 -102t-122.5 -40q-76 0 -157 41z
M244 682h161l-177 -172h-73z" />
    <glyph glyph-name="Scircumflex" unicode="&#x15c;" horiz-adv-x="521" 
d="M12 56l22 119q42 -30 96.5 -50t96.5 -20q44 0 71 20.5t27 54.5q0 31 -26 57.5t-63 48t-73.5 46.5t-62.5 64t-26 89q0 89 68.5 147.5t171.5 58.5q104 0 195 -54l-20 -120q-34 25 -82.5 42.5t-86.5 17.5q-41 0 -68.5 -21t-27.5 -54q0 -26 26 -49.5t63 -44.5t73.5 -46.5
t62.5 -67t26 -94.5q0 -88 -61 -148.5t-170 -60.5q-133 0 -232 65zM456 928l64 -199h-70l-83 120l-153 -120h-84l172 199h154z" />
    <glyph glyph-name="scircumflex" unicode="&#x15d;" horiz-adv-x="375" 
d="M11 33l19 101q87 -32 124 -32q44 0 44 25q0 16 -23.5 37.5t-52 41t-52 49.5t-23.5 60q0 65 47 106t122 41q69 0 143 -41l-11 -107q-34 17 -72.5 27.5t-58.5 10.5q-30 0 -30 -20q0 -16 23.5 -37t52 -39.5t52 -51.5t23.5 -70q0 -62 -47.5 -102t-122.5 -40q-76 0 -157 41z
M326 670l59 -160h-82l-61 91l-100 -91h-91l126 160h149z" />
    <glyph glyph-name="uni015E" unicode="&#x15e;" horiz-adv-x="519" 
d="M287 -7l-12 -15q76 -20 76 -77q0 -35 -25 -56.5t-48 -27.5q-37 -10 -95 -10q-53 0 -115 10l15 54q46 -8 81 -8q40 0 59 7.5t19 28.5q0 13 -6 21t-20 12t-22 5t-24 2l39 53q-113 13 -189 64l22 119q36 -26 92 -47.5t103 -21.5q53 0 76 23t23 52q0 34 -24 56t-95 66
q-76 46 -105.5 88.5t-29.5 94.5q0 91 69.5 148t170.5 57q104 0 195 -54l-20 -120q-97 55 -170 55q-45 0 -70.5 -22t-25.5 -51q0 -28 20.5 -46.5t87.5 -57.5q81 -49 112.5 -94.5t31.5 -102.5q0 -93 -67 -153q-22 -19 -48 -31t-40 -14.5t-41 -6.5z" />
    <glyph glyph-name="uni015F" unicode="&#x15f;" horiz-adv-x="374" 
d="M185 -8l-7 -21q70 -20 70 -71q0 -26 -15 -44.5t-34 -27.5t-44 -14t-36.5 -6t-19.5 -1q-37 0 -67 7l11 52q25 -4 51 -4q9 0 19 1.5t23 10t13 23.5q0 11 -8 18t-16 9t-22 4l25 66q-62 11 -118 39l19 101q82 -37 127 -37q18 0 29 6t13 10.5t2 8.5q0 13 -12 24.5t-52 41.5
q-2 1 -3.5 2.5t-3.5 2.5q-43 32 -63 60.5t-20 67.5q0 63 49.5 102t119.5 39q73 0 143 -41l-11 -107q-94 38 -134 38q-28 0 -28 -18q0 -14 11 -25t57 -46q45 -34 64.5 -63.5t19.5 -65.5q0 -62 -50 -104q-36 -30 -102 -38z" />
    <glyph glyph-name="Scaron" unicode="&#x160;" horiz-adv-x="523" 
d="M22 56l22 119q42 -30 96.5 -50t96.5 -20q44 0 71 20.5t27 54.5q0 31 -26 57.5t-63 48t-73.5 46.5t-62.5 64t-26 89q0 89 68.5 147.5t171.5 58.5q104 0 195 -54l-20 -120q-34 25 -82.5 42.5t-86.5 17.5q-41 0 -68.5 -21t-27.5 -54q0 -26 26 -49.5t63 -44.5t73.5 -46.5
t62.5 -67t26 -94.5q0 -88 -61 -148.5t-170 -60.5q-133 0 -232 65zM445 890h91l-126 -160h-149l-59 160h82l61 -91z" />
    <glyph glyph-name="scaron" unicode="&#x161;" horiz-adv-x="375" 
d="M11 33l19 101q87 -32 124 -32q44 0 44 25q0 16 -23.5 37.5t-52 41t-52 49.5t-23.5 60q0 65 47 106t122 41q69 0 143 -41l-11 -107q-34 17 -72.5 27.5t-58.5 10.5q-30 0 -30 -20q0 -16 23.5 -37t52 -39.5t52 -51.5t23.5 -70q0 -62 -47.5 -102t-122.5 -40q-76 0 -157 41z
M339 670h91l-126 -160h-149l-59 160h82l61 -91z" />
    <glyph glyph-name="Tcommaaccent" unicode="&#x162;" horiz-adv-x="619" 
d="M283 568h-216l16 114h583l-16 -114h-222l-80 -568h-145zM154 -201l14 51q38 -8 73 -8q60 0 60 36q0 31 -73 31h-27l16 54h27q157 0 157 -80q0 -48 -42.5 -71.5t-110.5 -23.5q-61 0 -94 11z" />
    <glyph glyph-name="tcommaaccent" unicode="&#x163;" horiz-adv-x="351" 
d="M32 454h92l16 96h137l-19 -96h100l-18 -100h-100l-26 -147q-7 -41 1.5 -68t35.5 -27q24 0 78 27v-119q-61 -29 -116 -29q-80 0 -116 57t-22 133l32 173h-92zM91 -164l10 45q20 -5 46 -5q52 0 52 22q0 12 -10 15.5t-43 6.5l9 43q20 0 32 -1t31.5 -4.5t30 -9.5t19 -17.5
t8.5 -28.5q0 -26 -14.5 -43.5t-38.5 -23.5t-37 -7.5t-26 -1.5q-33 0 -69 10z" />
    <glyph glyph-name="Tcaron" unicode="&#x164;" horiz-adv-x="619" 
d="M283 568h-216l16 114h583l-16 -114h-222l-80 -568h-145zM484 890h91l-126 -160h-149l-59 160h82l61 -91z" />
    <glyph glyph-name="tcaron" unicode="&#x165;" horiz-adv-x="533" 
d="M277 549l-18 -95h99l-17 -101h-100l-21 -114q-12 -62 -12 -82q0 -19 10 -30t17 -12.5t13 -1.5q34 0 82 31v-123q-60 -29 -116 -29q-39 0 -67.5 14t-42 32t-21.5 41.5t-9 34.5t-1 19q0 33 15 116l19 104h-92l18 101h92l17 95h135zM394 429l13 56q58 12 78 65
q-44 24 -44 69q0 36 24.5 54t51.5 18q34 0 60 -26.5t26 -68.5q0 -22 -9.5 -47t-31 -52.5t-65.5 -46.5t-103 -21z" />
    <glyph glyph-name="Tbar" unicode="&#x166;" horiz-adv-x="615" 
d="M393 327h191l-10 -83h-192l-35 -244h-146l34 244h-177l10 83h179l34 240h-216l16 115h583l-16 -115h-220z" />
    <glyph glyph-name="tbar" unicode="&#x167;" horiz-adv-x="365" 
d="M226 277h101l-11 -81h-105q-3 -21 -3 -37q0 -21 10 -32t16.5 -12.5t12.5 -1.5q34 0 82 31v-123q-61 -29 -116 -29q-45 0 -76 17.5t-43.5 44.5t-17 46t-4.5 35q0 21 5 61h-83l10 81h88l14 76h-91l17 101h92l17 95h135l-18 -95h99l-17 -101h-100z" />
    <glyph glyph-name="Utilde" unicode="&#x168;" horiz-adv-x="750" 
d="M273 682l-55 -386q-6 -44 2 -77.5t24.5 -52t40 -30t44 -15t41.5 -3.5q65 0 112.5 36t58.5 115l58 413h145l-60 -425q-37 -266 -314 -266q-169 0 -243.5 83.5t-54.5 219.5l56 388h145zM336 729h-73q-3 68 30.5 114.5t86.5 46.5q17 0 34.5 -5.5t28.5 -11.5t38 -22
q35 -20 58 -20q36 0 36 58h73q3 -81 -34.5 -120.5t-82.5 -39.5q-18 0 -35 5.5t-29.5 12t-40.5 23.5q-30 19 -53 19q-37 0 -37 -60z" />
    <glyph glyph-name="utilde" unicode="&#x169;" horiz-adv-x="552" 
d="M319 0l8 51q-70 -59 -147 -59q-75 0 -108 49.5t-22 124.5l41 288h135l-34 -241q-17 -121 36 -121t114 66l41 296h135l-64 -454h-135zM215 517h-64q0 67 24.5 107t72.5 40q23 0 40 -7.5t53 -29.5q25 -14 38 -14q31 0 38 51h64q0 -65 -24 -106.5t-74 -41.5q-28 0 -66 23
q-49 30 -64 30q-17 0 -27 -15.5t-11 -36.5z" />
    <glyph glyph-name="Umacron" unicode="&#x16a;" horiz-adv-x="750" 
d="M273 682l-55 -386q-6 -44 2 -77.5t24.5 -52t40 -30t44 -15t41.5 -3.5q65 0 112.5 36t58.5 115l58 413h145l-60 -425q-37 -266 -314 -266q-169 0 -243.5 83.5t-54.5 219.5l56 388h145zM630 767h-386l14 100h386z" />
    <glyph glyph-name="umacron" unicode="&#x16b;" horiz-adv-x="548" 
d="M315 0l8 51q-70 -59 -147 -59q-75 0 -108 49.5t-22 124.5l41 288h135l-34 -241q-17 -121 36 -121t114 66l41 296h135l-64 -454h-135zM489 540h-386l14 100h386z" />
    <glyph glyph-name="Ubreve" unicode="&#x16c;" horiz-adv-x="750" 
d="M273 682l-55 -386q-6 -44 2 -77.5t24.5 -52t40 -30t44 -15t41.5 -3.5q65 0 112.5 36t58.5 115l58 413h145l-60 -425q-37 -266 -314 -266q-169 0 -243.5 83.5t-54.5 219.5l56 388h145zM284 885h86q4 -13 8 -22t12.5 -20t23 -17t35.5 -6q63 0 90 65h86q-4 -20 -14 -42
t-30 -50t-56.5 -46t-82.5 -18q-72 0 -111.5 45t-46.5 111z" />
    <glyph glyph-name="ubreve" unicode="&#x16d;" horiz-adv-x="552" 
d="M319 0l8 51q-70 -59 -147 -59q-75 0 -108 49.5t-22 124.5l41 288h135l-34 -241q-17 -121 36 -121t114 66l41 296h135l-64 -454h-135zM187 665h88q7 -65 57 -65q25 0 43 18.5t26 46.5h88q-6 -65 -48 -110t-114 -45q-53 0 -94.5 34.5t-45.5 120.5z" />
    <glyph glyph-name="Uring" unicode="&#x16e;" horiz-adv-x="750" 
d="M273 682l-55 -386q-6 -44 2 -77.5t24.5 -52t40 -30t44 -15t41.5 -3.5q65 0 112.5 36t58.5 115l58 413h145l-60 -425q-37 -266 -314 -266q-169 0 -243.5 83.5t-54.5 219.5l56 388h145zM454 959q47 0 81 -33.5t34 -81.5t-33.5 -81.5t-81.5 -33.5t-81.5 33.5t-33.5 81.5
t34 81.5t81 33.5zM455 907q-26 0 -44 -18t-18 -44q0 -25 18.5 -43.5t43.5 -18.5q26 0 44 18t18 44t-18 44t-44 18z" />
    <glyph glyph-name="uring" unicode="&#x16f;" horiz-adv-x="548" 
d="M315 0l8 51q-70 -59 -147 -59q-75 0 -108 49.5t-22 124.5l41 288h135l-34 -241q-17 -121 36 -121t114 66l41 296h135l-64 -454h-135zM327 696q41 0 70.5 -29t29.5 -71q0 -41 -29.5 -70.5t-70.5 -29.5t-70.5 29.5t-29.5 70.5q0 42 29.5 71t70.5 29zM326 654q-23 0 -39 -16
t-16 -39t16.5 -39t38.5 -16t38.5 16t16.5 39t-16 39t-39 16z" />
    <glyph glyph-name="Uhungarumlaut" unicode="&#x170;" horiz-adv-x="750" 
d="M273 682l-55 -386q-6 -44 2 -77.5t24.5 -52t40 -30t44 -15t41.5 -3.5q65 0 112.5 36t58.5 115l58 413h145l-60 -425q-37 -266 -314 -266q-169 0 -243.5 83.5t-54.5 219.5l56 388h145zM353 900h127l-103 -164h-61zM520 900h127l-103 -164h-61z" />
    <glyph glyph-name="uhungarumlaut" unicode="&#x171;" horiz-adv-x="548" 
d="M315 0l8 51q-70 -59 -147 -59q-75 0 -108 49.5t-22 124.5l41 288h135l-34 -241q-17 -121 36 -121t114 66l41 296h135l-64 -454h-135zM233 674h127l-103 -164h-61zM389 674h127l-103 -164h-61z" />
    <glyph glyph-name="Uogonek" unicode="&#x172;" horiz-adv-x="750" 
d="M412 -8q-7 -1 -42 -1q-166 0 -242.5 81t-55.5 222l56 388h145l-55 -386q-12 -89 29 -133.5t123 -44.5q71 0 116 39t55 112l58 413h145l-60 -425q-16 -109 -66.5 -167.5t-115.5 -78.5q-23 -31 -23 -58q0 -24 14.5 -35t34.5 -11q26 0 75 12v-66q-63 -14 -95 -14
q-64 0 -91.5 27.5t-27.5 59.5q0 30 23 66z" />
    <glyph glyph-name="uogonek" unicode="&#x173;" horiz-adv-x="548" 
d="M383 0q-9 -16 -9 -33q0 -15 11 -24.5t30 -9.5q42 0 69 11v-61q-44 -12 -78 -12q-60 0 -86.5 20.5t-26.5 49.5t22 59l8 51q-70 -59 -147 -59q-75 0 -108 49.5t-22 124.5l41 288h135l-34 -241q-17 -121 36 -121q48 0 114 66l41 296h135l-64 -454h-67z" />
    <glyph glyph-name="Wcircumflex" unicode="&#x174;" horiz-adv-x="948" 
d="M665 281h2l184 401h147l-336 -691h-59l-110 422l-230 -422h-60l-139 691h137l72 -401h2l217 401h71zM670 928l64 -199h-70l-83 120l-153 -120h-84l172 199h154z" />
    <glyph glyph-name="wcircumflex" unicode="&#x175;" horiz-adv-x="729" 
d="M484 191h2l129 263h142l-258 -462h-87l-49 235l-131 -235h-85l-114 462h131l52 -263h2l136 263h81zM503 670l59 -160h-82l-61 91l-100 -91h-91l126 160h149z" />
    <glyph glyph-name="Ycircumflex" unicode="&#x176;" horiz-adv-x="563" 
d="M217 682l88 -263l158 263h155l-257 -396l-40 -286h-145l40 286l-144 396h145zM476 928l64 -199h-70l-83 120l-153 -120h-84l172 199h154z" />
    <glyph glyph-name="ycircumflex" unicode="&#x177;" horiz-adv-x="490" 
d="M160 454l89 -265l120 265h141l-330 -684h-142l132 272l-145 412h135zM371 670l59 -160h-82l-61 91l-100 -91h-91l126 160h149z" />
    <glyph glyph-name="Ydieresis" unicode="&#x178;" horiz-adv-x="554" 
d="M213 682l88 -263l158 263h155l-257 -396l-40 -286h-145l40 286l-144 396h145zM460 887q27 0 46 -19t19 -46t-19 -46.5t-46 -19.5t-46.5 19.5t-19.5 46.5t19.5 46t46.5 19zM258 887q27 0 46 -19t19 -46t-19 -46.5t-46 -19.5t-46.5 19.5t-19.5 46.5t19.5 46t46.5 19z" />
    <glyph glyph-name="Zacute" unicode="&#x179;" horiz-adv-x="635" 
d="M425 568h-331l17 114h588l-455 -568h339l-16 -114h-598zM402 900h161l-177 -172h-73z" />
    <glyph glyph-name="zacute" unicode="&#x17a;" horiz-adv-x="458" 
d="M232 341h-184l16 114h393l-223 -341h197l-17 -114h-413zM271 682h161l-177 -172h-73z" />
    <glyph glyph-name="Zdotaccent" unicode="&#x17b;" horiz-adv-x="635" 
d="M425 568h-331l17 114h588l-455 -568h339l-16 -114h-598zM393 901q32 0 55.5 -23.5t23.5 -56.5t-23 -56.5t-56 -23.5t-56.5 23.5t-23.5 56.5t23.5 56.5t56.5 23.5z" />
    <glyph glyph-name="zdotaccent" unicode="&#x17c;" horiz-adv-x="458" 
d="M232 341h-184l16 114h393l-223 -341h197l-17 -114h-413zM272 656q27 0 46 -19t19 -46t-19 -46.5t-46 -19.5t-46.5 19.5t-19.5 46.5t19.5 46t46.5 19z" />
    <glyph glyph-name="Zcaron" unicode="&#x17d;" horiz-adv-x="635" 
d="M425 568h-331l17 114h588l-455 -568h339l-16 -114h-598zM492 890h91l-126 -160h-149l-59 160h82l61 -91z" />
    <glyph glyph-name="zcaron" unicode="&#x17e;" horiz-adv-x="458" 
d="M232 341h-184l16 114h393l-223 -341h197l-17 -114h-413zM381 670h91l-126 -160h-149l-59 160h82l61 -91z" />
    <glyph glyph-name="florin" unicode="&#x192;" horiz-adv-x="552" 
d="M-10 -191l28 108q42 -9 83 -9q29 0 39.5 14.5t19.5 66.5l73 426h-98l18 103h98l15 83q12 67 47 97.5t112 30.5h4q64 0 129 -21l-27 -110q-45 13 -77 13q-29 0 -41 -13t-19 -52l-5 -28h101l-18 -103h-100l-85 -485q-13 -74 -47.5 -107t-112.5 -33q-75 0 -137 19z" />
    <glyph glyph-name="AEacute" unicode="&#x1fc;" horiz-adv-x="990" 
d="M974 682l-13 -114h-309l-23 -160h273l-16 -114h-273l-26 -180h387l-19 -114h-530l24 169h-239l-108 -169h-167l438 682h601zM463 270l44 311h-35l-198 -311h189zM693 900h161l-177 -172h-73z" />
    <glyph glyph-name="aeacute" unicode="&#x1fd;" horiz-adv-x="688" 
d="M626 142l-16 -115q-28 -13 -74.5 -24t-84.5 -11q-46 0 -86 15t-52.5 25t-32.5 28q-78 -68 -158 -68q-58 0 -93.5 32.5t-35.5 78.5q0 45 33.5 80t83.5 55q56 23 136 34q6 39 6 47q0 10 -5 18t-10.5 11.5t-13.5 5.5t-11.5 2h-5.5q-21 0 -45.5 -8t-41.5 -17t-48 -28l17 117
q67 42 144 42q71 0 116 -42q56 42 128 42t127 -49.5t55 -137.5q0 -30 -8 -68h-280q-4 -48 17 -76q29 -37 87 -37q67 0 152 48zM383 284h141q8 82 -54 82t-87 -82zM221 101l13 86q-29 -6 -47.5 -11t-39 -21t-20.5 -38q0 -11 9 -23t28 -12q24 0 57 19zM401 682h161l-177 -172
h-73z" />
    <glyph glyph-name="Oslashacute" unicode="&#x1fe;" horiz-adv-x="833" 
d="M771 682l-68 -74q94 -85 94 -234q0 -71 -24.5 -137.5t-71 -122.5t-124.5 -89.5t-176 -33.5q-119 0 -203 56l-90 -100l-47 44l86 97q-87 91 -87 221q0 102 48 188.5t140.5 140t210.5 53.5q102 0 190 -44l54 62zM604 498l-313 -348q52 -33 114 -33q105 0 174 74.5t69 176.5
q0 80 -44 130zM244 197l309 344q-42 25 -104 25q-107 0 -173.5 -78.5t-66.5 -169.5q0 -67 35 -121zM494 900h161l-177 -172h-73z" />
    <glyph glyph-name="oslashacute" unicode="&#x1ff;" horiz-adv-x="562" 
d="M518 474l-61 -72q19 -17 35 -42q29 -52 29 -116q0 -113 -77.5 -182.5t-179.5 -69.5q-69 0 -125 34l-66 -76l-37 33l64 73q-65 68 -65 153q0 107 79 180t185 73q60 0 118 -32l63 75zM372 301l-157 -185q21 -16 50 -16q41 0 69 27.5t38.5 60t10.5 62.5q0 32 -11 51z
M182 154l156 185q-28 12 -48 12q-57 0 -87 -49.5t-30 -100.5q0 -20 9 -47zM323 682h161l-177 -172h-73z" />
    <glyph glyph-name="uni0218" unicode="&#x218;" horiz-adv-x="523" 
d="M22 56l22 119q42 -30 96.5 -50t96.5 -20q44 0 71 20.5t27 54.5q0 31 -26 57.5t-63 48t-73.5 46.5t-62.5 64t-26 89q0 89 68.5 147.5t171.5 58.5q104 0 195 -54l-20 -120q-34 25 -82.5 42.5t-86.5 17.5q-41 0 -68.5 -21t-27.5 -54q0 -26 26 -49.5t63 -44.5t73.5 -46.5
t62.5 -67t26 -94.5q0 -88 -61 -148.5t-170 -60.5q-133 0 -232 65zM125 -201l14 51q38 -8 73 -8q60 0 60 36q0 31 -73 31h-27l16 54h27q157 0 157 -80q0 -48 -42.5 -71.5t-110.5 -23.5q-61 0 -94 11z" />
    <glyph glyph-name="uni0219" unicode="&#x219;" horiz-adv-x="375" 
d="M11 33l19 101q87 -32 124 -32q44 0 44 25q0 16 -23.5 37.5t-52 41t-52 49.5t-23.5 60q0 65 47 106t122 41q69 0 143 -41l-11 -107q-34 17 -72.5 27.5t-58.5 10.5q-30 0 -30 -20q0 -16 23.5 -37t52 -39.5t52 -51.5t23.5 -70q0 -62 -47.5 -102t-122.5 -40q-76 0 -157 41z
M56 -164l10 45q20 -5 46 -5q52 0 52 22q0 12 -10 15.5t-43 6.5l9 43q20 0 32 -1t31.5 -4.5t30 -9.5t19 -17.5t8.5 -28.5q0 -26 -14.5 -43.5t-38.5 -23.5t-37 -7.5t-26 -1.5q-33 0 -69 10z" />
    <glyph glyph-name="uni021A" unicode="&#x21a;" horiz-adv-x="619" 
d="M283 568h-216l16 114h583l-16 -114h-222l-80 -568h-145zM154 -201l14 51q38 -8 73 -8q60 0 60 36q0 31 -73 31h-27l16 54h27q157 0 157 -80q0 -48 -42.5 -71.5t-110.5 -23.5q-61 0 -94 11z" />
    <glyph glyph-name="uni021B" unicode="&#x21b;" horiz-adv-x="351" 
d="M32 454h92l16 96h137l-19 -96h100l-18 -100h-100l-26 -147q-7 -41 1.5 -68t35.5 -27q24 0 78 27v-119q-61 -29 -116 -29q-80 0 -116 57t-22 133l32 173h-92zM91 -164l10 45q20 -5 46 -5q52 0 52 22q0 12 -10 15.5t-43 6.5l9 43q20 0 32 -1t31.5 -4.5t30 -9.5t19 -17.5
t8.5 -28.5q0 -26 -14.5 -43.5t-38.5 -23.5t-37 -7.5t-26 -1.5q-33 0 -69 10z" />
    <glyph glyph-name="circumflex" unicode="&#x2c6;" horiz-adv-x="333" 
d="M305 670l59 -160h-82l-61 91l-100 -91h-91l126 160h149z" />
    <glyph glyph-name="caron" unicode="&#x2c7;" horiz-adv-x="333" 
d="M318 670h91l-126 -160h-149l-59 160h82l61 -91z" />
    <glyph glyph-name="uni02C9" unicode="&#x2c9;" horiz-adv-x="333" 
d="M383 540h-386l14 100h386z" />
    <glyph glyph-name="breve" unicode="&#x2d8;" horiz-adv-x="333" 
d="M77 665h88q7 -65 57 -65q25 0 43 18.5t26 46.5h88q-6 -65 -48 -110t-114 -45q-53 0 -94.5 34.5t-45.5 120.5z" />
    <glyph glyph-name="dotaccent" unicode="&#x2d9;" horiz-adv-x="333" 
d="M209 656q27 0 46 -19t19 -46t-19 -46.5t-46 -19.5t-46.5 19.5t-19.5 46.5t19.5 46t46.5 19z" />
    <glyph glyph-name="ring" unicode="&#x2da;" horiz-adv-x="333" 
d="M221 696q41 0 70.5 -29t29.5 -71q0 -41 -29.5 -70.5t-70.5 -29.5t-70.5 29.5t-29.5 70.5q0 42 29.5 71t70.5 29zM220 654q-23 0 -39 -16t-16 -39t16.5 -39t38.5 -16t38.5 16t16.5 39t-16 39t-39 16z" />
    <glyph glyph-name="ogonek" unicode="&#x2db;" horiz-adv-x="333" 
d="M319 -57v-61q-43 -12 -78 -12q-59 0 -86 22t-27 48q0 39 32 71h68q-19 -20 -19 -45q0 -13 12 -23.5t29 -10.5q42 0 69 11z" />
    <glyph glyph-name="tilde" unicode="&#x2dc;" horiz-adv-x="333" 
d="M105 517h-64q0 67 24.5 107t72.5 40q23 0 40 -7.5t53 -29.5q25 -14 38 -14q31 0 38 51h64q0 -65 -24 -106.5t-74 -41.5q-28 0 -66 23q-49 30 -64 30q-17 0 -27 -15.5t-11 -36.5z" />
    <glyph glyph-name="hungarumlaut" unicode="&#x2dd;" horiz-adv-x="333" 
d="M107 674h127l-103 -164h-61zM263 674h127l-103 -164h-61z" />
    <glyph glyph-name="uni03A9" unicode="&#x3a9;" horiz-adv-x="710" 
d="M652 0h-264v128q93 101 93 242q0 92 -35 147t-98 55q-65 0 -102.5 -56t-37.5 -151q0 -141 94 -237v-128h-263v128h139q-28 23 -48.5 44t-44.5 54.5t-36.5 78.5t-12.5 99q0 134 88 221t227 87q144 0 223.5 -85t79.5 -219q0 -170 -143 -280h141v-128z" />
    <glyph glyph-name="uni03BC" unicode="&#x3bc;" horiz-adv-x="615" 
d="M392 459h145v-301q0 -56 28 -56q7 0 21 5v-94q-48 -23 -91 -23q-45 0 -64 37q-40 -37 -91 -37q-42 0 -73 23t-48 51v-294h-145v689h145v-295q52 -66 104 -66q44 0 64 57q5 15 5 64v240z" />
    <glyph glyph-name="pi" unicode="&#x3c0;" horiz-adv-x="653" 
d="M671 16q-33 -26 -102 -26q-82 0 -115.5 49t-33.5 119v230h-122v-238q0 -91 -16 -150h-159q18 69 18 160v228q-38 0 -77 -24q-8 18 -22 50.5t-19 44.5q61 41 168 41h469v-112h-82v-207q0 -79 39 -79q13 0 29 10q4 -16 12.5 -48t12.5 -48z" />
    <glyph glyph-name="Wgrave" unicode="&#x1e80;" horiz-adv-x="948" 
d="M665 281h2l184 401h147l-336 -691h-59l-110 422l-230 -422h-60l-139 691h137l72 -401h2l217 401h71zM563 729l-177 172h161l89 -172h-73z" />
    <glyph glyph-name="wgrave" unicode="&#x1e81;" horiz-adv-x="729" 
d="M484 191h2l129 263h142l-258 -462h-87l-49 235l-131 -235h-85l-114 462h131l52 -263h2l136 263h81zM419 510l-177 172h161l89 -172h-73z" />
    <glyph glyph-name="Wacute" unicode="&#x1e82;" horiz-adv-x="948" 
d="M665 281h2l184 401h147l-336 -691h-59l-110 422l-230 -422h-60l-139 691h137l72 -401h2l217 401h71zM552 900h161l-177 -172h-73z" />
    <glyph glyph-name="wacute" unicode="&#x1e83;" horiz-adv-x="729" 
d="M484 191h2l129 263h142l-258 -462h-87l-49 235l-131 -235h-85l-114 462h131l52 -263h2l136 263h81zM406 682h161l-177 -172h-73z" />
    <glyph glyph-name="Wdieresis" unicode="&#x1e84;" horiz-adv-x="948" 
d="M665 281h2l184 401h147l-336 -691h-59l-110 422l-230 -422h-60l-139 691h137l72 -401h2l217 401h71zM657 887q27 0 46 -19t19 -46t-19 -46.5t-46 -19.5t-46.5 19.5t-19.5 46.5t19.5 46t46.5 19zM455 887q27 0 46 -19t19 -46t-19 -46.5t-46 -19.5t-46.5 19.5t-19.5 46.5
t19.5 46t46.5 19z" />
    <glyph glyph-name="wdieresis" unicode="&#x1e85;" horiz-adv-x="729" 
d="M484 191h2l129 263h142l-258 -462h-87l-49 235l-131 -235h-85l-114 462h131l52 -263h2l136 263h81zM505 656q27 0 46 -19t19 -46t-19 -46.5t-46 -19.5t-46.5 19.5t-19.5 46.5t19.5 46t46.5 19zM303 656q27 0 46 -19t19 -46t-19 -46.5t-46 -19.5t-46.5 19.5t-19.5 46.5
t19.5 46t46.5 19z" />
    <glyph glyph-name="Ygrave" unicode="&#x1ef2;" horiz-adv-x="563" 
d="M217 682l88 -263l158 263h155l-257 -396l-40 -286h-145l40 286l-144 396h145zM340 729l-177 172h161l89 -172h-73z" />
    <glyph glyph-name="ygrave" unicode="&#x1ef3;" horiz-adv-x="490" 
d="M160 454l89 -265l120 265h141l-330 -684h-142l132 272l-145 412h135zM300 510l-177 172h161l89 -172h-73z" />
    <glyph glyph-name="endash" unicode="&#x2013;" horiz-adv-x="500" 
d="M506 164h-512v134h512v-134z" />
    <glyph glyph-name="emdash" unicode="&#x2014;" horiz-adv-x="1000" 
d="M1006 164h-1012v134h1012v-134z" />
    <glyph glyph-name="quoteleft" unicode="&#x2018;" horiz-adv-x="260" 
d="M300 691l-15 -61q-64 -15 -86 -72q48 -27 48 -76q0 -34 -24 -57t-60 -23q-40 0 -68 31t-28 74q0 72 64 128t169 56z" />
    <glyph glyph-name="quoteright" unicode="&#x2019;" horiz-adv-x="260" 
d="M48 402l15 61q64 15 86 72q-48 27 -48 76q0 34 24 57t60 23q40 0 68 -31t28 -74q0 -72 -64 -128t-169 -56z" />
    <glyph glyph-name="quotesinglbase" unicode="&#x201a;" horiz-adv-x="260" 
d="M-45 -145l15 61q64 15 86 72q-48 27 -48 76q0 34 24 57t60 23q40 0 68 -31t28 -74q0 -72 -64 -128t-169 -56z" />
    <glyph glyph-name="quotedblleft" unicode="&#x201c;" horiz-adv-x="490" 
d="M544 691l-15 -61q-64 -15 -86 -72q48 -27 48 -76q0 -34 -24 -57t-60 -23q-40 0 -68 31t-28 74q0 72 64 128t169 56zM286 691l-15 -61q-64 -15 -86 -72q48 -27 48 -76q0 -34 -24 -57t-60 -23q-40 0 -68 31t-28 74q0 72 64 128t169 56z" />
    <glyph glyph-name="quotedblright" unicode="&#x201d;" horiz-adv-x="490" 
d="M295 402l15 61q64 15 86 72q-48 27 -48 76q0 34 24 57t60 23q40 0 68 -31t28 -74q0 -72 -64 -128t-169 -56zM38 402l15 61q64 15 86 72q-48 27 -48 76q0 34 24 57t60 23q40 0 68 -31t28 -74q0 -72 -64 -128t-169 -56z" />
    <glyph glyph-name="quotedblbase" unicode="&#x201e;" horiz-adv-x="490" 
d="M186 -145l15 61q64 15 86 72q-48 27 -48 76q0 34 24 57t60 23q40 0 68 -31t28 -74q0 -72 -64 -128t-169 -56zM-41 -145l15 61q64 15 86 72q-48 27 -48 76q0 34 24 57t60 23q40 0 68 -31t28 -74q0 -72 -64 -128t-169 -56z" />
    <glyph glyph-name="dagger" unicode="&#x2020;" horiz-adv-x="531" 
d="M250 366q-88 -35 -132 -35q-32 0 -50 19.5t-18 43.5q0 28 21 48t57 20q59 0 129 -39q-10 86 -10 137q0 131 82 131q28 0 45.5 -19.5t17.5 -55.5q0 -61 -63 -194q87 40 131 40q31 0 46.5 -18.5t15.5 -44.5q0 -29 -21 -48.5t-61 -19.5q-56 0 -123 35q-1 -39 -2 -145.5
t-2.5 -151.5t-7 -114.5t-17.5 -106.5t-31 -56q-22 -22 -47 -22q-34 0 -52 26.5t-18 71.5q0 101 110 498z" />
    <glyph glyph-name="daggerdbl" unicode="&#x2021;" horiz-adv-x="510" 
d="M200 -230q-30 0 -50 22t-20 56q0 29 14.5 64.5t33 68.5t22.5 49q-93 -51 -138 -51q-30 0 -48 18.5t-18 46.5q0 26 18.5 46t53.5 20q49 0 137 -44q8 96 -8 165q49 103 59 166q-73 -47 -128 -47q-35 0 -52.5 21t-17.5 47t17 44.5t47 18.5q19 0 42.5 -7.5t39.5 -15.5t52 -27
q1 24 -10 85.5t-11 81.5q0 39 23.5 66t53.5 27q32 0 51 -22t19 -54q0 -37 -31 -96t-39 -88q98 49 138 49q31 0 47.5 -19t16.5 -44q0 -32 -20 -50t-47 -18q-39 0 -140 46q-18 -75 0 -163q-43 -81 -51 -166q84 44 128 44q30 0 49 -17t19 -51q0 -23 -16.5 -43t-47.5 -20
q-51 0 -132 50q-1 -31 9.5 -83.5t10.5 -79.5q0 -48 -23 -72t-53 -24z" />
    <glyph glyph-name="bullet" unicode="&#x2022;" horiz-adv-x="354" 
d="M188 485q60 0 102 -42t42 -102t-42 -102t-102 -42t-102 42t-42 102t42 102t102 42z" />
    <glyph glyph-name="ellipsis" unicode="&#x2026;" horiz-adv-x="1000" 
d="M890 78q0 -36 -25.5 -61.5t-61.5 -25.5t-61.5 25.5t-25.5 61.5t25.5 61.5t61.5 25.5t61.5 -25.5t25.5 -61.5zM557 78q0 -36 -25.5 -61.5t-61.5 -25.5t-61.5 25.5t-25.5 61.5t25.5 61.5t61.5 25.5t61.5 -25.5t25.5 -61.5zM224 78q0 -36 -25.5 -61.5t-61.5 -25.5
t-61.5 25.5t-25.5 61.5t25.5 61.5t61.5 25.5t61.5 -25.5t25.5 -61.5z" />
    <glyph glyph-name="perthousand" unicode="&#x2030;" horiz-adv-x="1083" 
d="M267 530q0 31 -21 53t-50 22q-30 0 -50.5 -21.5t-20.5 -53.5q0 -30 21 -52.5t50 -22.5q30 0 50.5 21.5t20.5 53.5zM357 530q0 -66 -47 -113.5t-114 -47.5t-114 47.5t-47 113.5q0 67 47 114t114 47t114 -47t47 -114zM172 -8h-83l480 699h80zM1074 152q0 -66 -47 -113.5
t-114 -47.5t-114 47.5t-47 113.5q0 67 47 114t114 47t114 -47t47 -114zM984 152q0 31 -21 53t-50 22q-30 0 -50.5 -21.5t-20.5 -53.5q0 -30 21 -52.5t50 -22.5q30 0 50.5 21.5t20.5 53.5zM705 152q0 -66 -47 -113.5t-114 -47.5t-114 47.5t-47 113.5q0 67 47 114t114 47
t114 -47t47 -114zM615 152q0 31 -21 53t-50 22q-30 0 -50.5 -21.5t-20.5 -53.5q0 -30 21 -52.5t50 -22.5q30 0 50.5 21.5t20.5 53.5z" />
    <glyph glyph-name="guilsinglleft" unicode="&#x2039;" horiz-adv-x="271" 
d="M88 0l-73 255l151 206h132l-164 -230l67 -231h-113z" />
    <glyph glyph-name="guilsinglright" unicode="&#x203a;" horiz-adv-x="292" 
d="M189 461l73 -255l-151 -206h-132l164 230l-67 231h113z" />
    <glyph glyph-name="fraction" unicode="&#x2044;" horiz-adv-x="188" 
d="M377 691l-479 -718h-88l479 718h88z" />
    <glyph glyph-name="Euro" unicode="&#x20ac;" horiz-adv-x="575" 
d="M106 235h-86l14 77h67q0 13 4 60h-85l14 77h89q80 242 326 242q54 0 128 -12l-18 -116q-62 13 -101 13q-123 0 -182 -127h266l-15 -77h-275q-7 -35 -7 -60h274l-15 -77h-255q13 -67 43.5 -97.5t84.5 -30.5q71 0 166 50l-13 -133q-81 -33 -165 -33q-129 0 -194 84
q-51 66 -65 160z" />
    <glyph glyph-name="afii61289" unicode="&#x2113;" horiz-adv-x="493" 
d="M412 38q-67 -55 -141 -55q-70 0 -109 41q-46 46 -46 142v45q-8 -8 -24.5 -23.5t-24.5 -23.5q-12 23 -38 67q14 14 43 41.5t44 41.5v195q0 106 45 162.5t121 56.5q64 0 94.5 -39.5t30.5 -91.5q0 -69 -30 -129t-88 -125q-5 -5 -16.5 -18t-14.5 -16v-122q0 -96 54 -96
q31 0 63 32q6 -14 18.5 -42t18.5 -43zM329 578q0 42 -31 42q-40 0 -40 -81v-121q1 2 3.5 4.5t4.5 5t4 5.5q26 32 42.5 73t16.5 72z" />
    <glyph glyph-name="trademark" unicode="&#x2122;" horiz-adv-x="1000" 
d="M430 646h-120v-330h-81v330h-123v70h324v-70zM557 635h-2v-319h-77v400h127l72 -276h2l72 276h127v-400h-77v319h-2l-85 -319h-73z" />
    <glyph glyph-name="Omega" unicode="&#x2126;" horiz-adv-x="710" 
d="M652 0h-264v128q93 101 93 242q0 92 -35 147t-98 55q-65 0 -102.5 -56t-37.5 -151q0 -141 94 -237v-128h-263v128h139q-28 23 -48.5 44t-44.5 54.5t-36.5 78.5t-12.5 99q0 134 88 221t227 87q144 0 223.5 -85t79.5 -219q0 -170 -143 -280h141v-128z" />
    <glyph glyph-name="estimated" unicode="&#x212e;" horiz-adv-x="661" 
d="M584 276h-426v-190q63 -61 152 -61q129 0 202 125q6 -4 18 -11t18 -11q-48 -70 -103 -105t-135 -35q-122 0 -196 82.5t-74 205.5t73.5 205.5t195.5 82.5q125 0 197.5 -81t77.5 -207zM462 313v151q-64 64 -154 64q-88 0 -150 -63v-152h304z" />
    <glyph glyph-name="onethird" unicode="&#x2153;" horiz-adv-x="844" 
d="M251 687l-58 -355h-95l58 355h95zM706 691l-479 -718h-88l479 718h88zM533 19l12 74q59 -27 94 -27q24 0 41 12t17 32q0 16 -14.5 28t-44.5 12q-10 0 -38 -4l13 75q33 -6 50 -6q26 0 42.5 11t16.5 28q0 34 -45 34q-42 0 -102 -30l13 81q54 21 102 21q50 0 89 -24.5
t39 -70.5q0 -27 -16.5 -50.5t-47.5 -33.5q43 -28 43 -73q0 -52 -46 -82.5t-111 -30.5q-44 0 -107 24z" />
    <glyph glyph-name="twothirds" unicode="&#x2154;" horiz-adv-x="844" 
d="M281 407l-12 -75h-243v14q64 69 112 132q60 78 60 107q0 18 -12 25t-23 7q-33 0 -94 -42l14 87q42 29 96 29q55 0 86 -29.5t31 -66.5q0 -36 -23.5 -74.5t-89.5 -113.5h98zM717 691l-478 -718h-88l478 718h88zM542 19l12 74q56 -27 93 -27q25 0 42 12t17 32q0 16 -14.5 28
t-44.5 12q-10 0 -38 -4l13 75q33 -6 50 -6q26 0 42.5 11t16.5 28q0 34 -45 34q-42 0 -102 -30l13 81q54 21 102 21q50 0 88.5 -24.5t38.5 -70.5q0 -28 -16 -51t-47 -33q43 -28 43 -73q0 -52 -46 -82.5t-111 -30.5q-44 0 -107 24z" />
    <glyph glyph-name="oneeighth" unicode="&#x215b;" horiz-adv-x="844" 
d="M755 183q54 -27 54 -77q0 -46 -40 -78.5t-99 -32.5q-56 0 -93 28t-37 73q0 31 20.5 58.5t57.5 38.5q-36 23 -36 64t37.5 72t92.5 31q53 0 83.5 -26.5t30.5 -61.5q0 -59 -71 -89zM731 265q0 26 -23 26q-15 0 -24 -12t-10.5 -21t-1.5 -14q0 -13 8 -19t17 -6t16 5t10 11
t5 13.5t2.5 11t0.5 5.5zM716 115q0 17 -10.5 25.5t-23.5 8.5q-20 0 -32.5 -14.5t-12.5 -34.5q0 -34 33 -34q21 0 33.5 15t12.5 34zM251 687l-58 -355h-95l58 355h95zM706 691l-479 -718h-88l479 718h88z" />
    <glyph glyph-name="threeeighths" unicode="&#x215c;" horiz-adv-x="844" 
d="M755 183q54 -27 54 -77q0 -46 -40 -78.5t-99 -32.5q-56 0 -93 28t-37 73q0 32 20 59t58 38q-37 24 -37 64q0 41 37.5 72t93.5 31q53 0 83.5 -26.5t30.5 -61.5q0 -59 -71 -89zM731 265q0 26 -24 26q-15 0 -23.5 -12t-10 -20.5t-1.5 -14.5q0 -25 25 -25q14 0 22.5 12t10 21
t1.5 13zM716 115q0 17 -10.5 25.5t-24.5 8.5q-19 0 -32 -15t-13 -34q0 -34 34 -34q21 0 33.5 15t12.5 34zM705 691l-478 -718h-88l478 718h88zM20 351l12 74q56 -27 93 -27q25 0 42 12t17 31q0 17 -14.5 28.5t-44.5 11.5q-19 0 -38 -4l13 76q38 -7 50 -7q26 0 42.5 11
t16.5 29q0 15 -11.5 24.5t-33.5 9.5q-40 0 -102 -31l13 82q53 20 102 20q50 0 88.5 -24t38.5 -70q0 -28 -16 -51t-47 -34q42 -27 42 -73q0 -52 -45.5 -82t-110.5 -30q-51 0 -107 24z" />
    <glyph glyph-name="fiveeighths" unicode="&#x215d;" horiz-adv-x="844" 
d="M755 183q54 -27 54 -77q0 -46 -40 -78.5t-99 -32.5q-56 0 -93 28t-37 73q0 31 20.5 58.5t57.5 38.5q-36 23 -36 64t37.5 72t92.5 31q53 0 83.5 -26.5t30.5 -61.5q0 -59 -71 -89zM731 265q0 26 -24 26q-14 0 -23 -12t-10.5 -21t-1.5 -14q0 -13 8 -19t17 -6q14 0 22.5 12
t10 21t1.5 13zM716 115q0 17 -10.5 25.5t-24.5 8.5q-19 0 -31.5 -15t-12.5 -34q0 -34 33 -34q21 0 33.5 15t12.5 34zM302 687l-13 -79h-105l-10 -51q110 -14 110 -105q0 -59 -46 -92t-111 -33q-63 0 -111 29l26 71q52 -26 83 -26q29 0 46.5 13t17.5 35q0 19 -17 32.5
t-54 13.5q-22 0 -52 -5l38 197h198zM706 691l-479 -718h-88l479 718h88z" />
    <glyph glyph-name="seveneighths" unicode="&#x215e;" horiz-adv-x="844" 
d="M756 183q54 -27 54 -77q0 -46 -40 -78.5t-99 -32.5q-56 0 -93 28t-37 73q0 32 20 59t58 38q-37 24 -37 64q0 41 37.5 72t93.5 31q53 0 83.5 -26.5t30.5 -61.5q0 -59 -71 -89zM732 265q0 26 -24 26q-15 0 -23.5 -12t-10 -20.5t-1.5 -14.5q0 -25 25 -25q14 0 22.5 12t10 21
t1.5 13zM717 115q0 17 -10.5 25.5t-24.5 8.5q-19 0 -32 -15t-13 -34q0 -34 34 -34q21 0 33.5 15t12.5 34zM312 687l-161 -355h-100l127 278h-132l17 77h249zM700 691l-478 -718h-88l478 718h88z" />
    <glyph glyph-name="partialdiff" unicode="&#x2202;" horiz-adv-x="576" 
d="M559 453q0 -97 -23 -187q-33 -124 -107 -200.5t-177 -76.5q-97 0 -158 58t-61 149q0 74 22.5 132t60 92.5t80.5 52t89 17.5q38 0 70 -15t45 -36h2q3 27 3 50q0 61 -31 94.5t-84 33.5q-48 0 -93 -25q-20 68 -30 103q57 38 147 38q113 0 179 -74t66 -206zM387 330
q-21 54 -71 54q-48 0 -85.5 -58t-37.5 -141q0 -35 15.5 -56.5t43.5 -21.5q51 0 87.5 68t47.5 155z" />
    <glyph glyph-name="Delta" unicode="&#x2206;" horiz-adv-x="608" 
d="M645 0h-624v65q34 106 100.5 317.5t99.5 317.5h228q33 -106 98 -317.5t98 -317.5v-65zM455 129q-20 70 -57.5 200t-52.5 183q-15 60 -16 65h-5q-2 -17 -13 -62q-74 -258 -110 -386h254z" />
    <glyph glyph-name="product" unicode="&#x220f;" horiz-adv-x="719" 
d="M652 -230h-163v791h-260v-791h-162v930h585v-930z" />
    <glyph glyph-name="summation" unicode="&#x2211;" horiz-adv-x="631" 
d="M559 -230h-535v87q42 64 126.5 191.5t127.5 191.5q-40 61 -119.5 183.5t-119.5 183.5v93h503v-128h-314q35 -55 106 -164.5t107 -164.5q-115 -175 -226 -345h344v-128z" />
    <glyph glyph-name="minus" unicode="&#x2212;" horiz-adv-x="584" 
d="M54 277v128h501v-128h-501z" />
    <glyph glyph-name="uni2215" unicode="&#x2215;" horiz-adv-x="188" 
d="M377 691l-479 -718h-88l479 718h88z" />
    <glyph glyph-name="uni2219" unicode="&#x2219;" horiz-adv-x="281" 
d="M233 346q0 -36 -25.5 -61.5t-61.5 -25.5t-61.5 25.5t-25.5 61.5t25.5 61.5t61.5 25.5t61.5 -25.5t25.5 -61.5z" />
    <glyph glyph-name="radical" unicode="&#x221a;" horiz-adv-x="513" 
d="M522 729l-162 -741h-128l-111 285q-9 -6 -27 -18.5t-27 -18.5q-28 41 -49 74q28 20 84.5 59t84.5 58q18 -47 54 -143t54 -143l126 588h101z" />
    <glyph glyph-name="infinity" unicode="&#x221e;" horiz-adv-x="783" 
d="M743 294q0 -82 -53 -135.5t-130 -53.5q-51 0 -97.5 25.5t-78.5 72.5h-2q-72 -98 -175 -98q-72 0 -128 49t-56 138q0 85 56 134.5t128 49.5q107 0 175 -98h2q25 39 70.5 68.5t104.5 29.5q79 0 131.5 -52.5t52.5 -129.5zM626 293q0 34 -21 56.5t-58 22.5q-33 0 -57.5 -20
t-49.5 -61q44 -82 108 -82q36 0 57 25t21 59zM326 291q-52 81 -108 81q-35 0 -56.5 -24t-21.5 -57q0 -34 22 -58t57 -24q58 0 107 82z" />
    <glyph glyph-name="integral" unicode="&#x222b;" horiz-adv-x="491" 
d="M411 624q-20 8 -39 8q-60 0 -60 -79v-573q0 -98 -46.5 -157.5t-146.5 -59.5q-60 0 -94 15l27 111q19 -7 39 -7q61 0 61 79v571q0 100 47.5 159.5t146.5 59.5q64 0 96 -18q-6 -19 -16 -55.5t-15 -53.5z" />
    <glyph glyph-name="approxequal" unicode="&#x2248;" horiz-adv-x="583" 
d="M554 425q-34 -51 -70 -74.5t-87 -23.5q-64 0 -112 30q-50 33 -92 33q-9 0 -17 -2.5t-15.5 -7.5t-12.5 -9.5t-11 -13t-9 -12.5t-8 -13t-6 -10l-84 98q34 49 69 74t87 25q58 0 112 -30q55 -33 94 -33q19 0 36 13t24 23t19 31zM554 180q-34 -51 -70 -74.5t-87 -23.5
q-64 0 -112 31q-52 32 -92 32q-7 0 -13.5 -1.5t-12.5 -5t-10.5 -6t-10 -8.5t-8.5 -9.5t-7.5 -10.5t-6 -9.5t-6 -9.5t-4.5 -8l-84 99q34 48 69 73t87 25q58 0 112 -30q57 -33 94 -33q14 0 26.5 5.5t23.5 19.5t15 20t14 23z" />
    <glyph glyph-name="notequal" unicode="&#x2260;" horiz-adv-x="583" 
d="M514 115h-230l-40 -94h-143l40 94h-71v129h127l50 117h-177v129h234l50 117h144l-51 -117h67v-129h-124l-50 -117h174v-129z" />
    <glyph glyph-name="lessequal" unicode="&#x2264;" horiz-adv-x="583" 
d="M514 0h-444v129h444v-129zM514 148l-444 168v126l444 167v-132l-290 -99v-2l290 -98v-130z" />
    <glyph glyph-name="greaterequal" unicode="&#x2265;" horiz-adv-x="583" 
d="M513 0h-443v129h443v-129zM514 315l-444 -166v132l290 98v2l-290 98v131l444 -168v-127z" />
    <glyph glyph-name="lozenge" unicode="&#x25ca;" horiz-adv-x="559" 
d="M488 350q-33 -58 -98 -175t-97 -175h-71q-33 58 -97 174.5t-97 174.5q33 59 97 176t97 175h71q33 -59 98 -175.5t97 -174.5zM377 350q-39 74 -119 222q-80 -148 -119 -222q53 -100 119 -221q23 42 64.5 120t54.5 101z" />
    <glyph glyph-name="one.alt" unicode="&#xe000;" horiz-adv-x="531" 
d="M344 0h-141l73 501q-72 -37 -128 -53l30 125q87 31 189 118h78z" />
    <glyph glyph-name="zero.fitted" unicode="&#xf639;" horiz-adv-x="531" 
d="M505 434q0 -69 -16.5 -144t-48 -143t-85 -112t-118.5 -44q-86 0 -135 68.5t-49 188.5q0 73 16.5 148.5t47.5 142.5t84 109.5t119 42.5q87 0 136 -68t49 -189zM365 474q0 45 -15.5 67.5t-38.5 22.5q-41 0 -69.5 -73t-38.5 -148.5t-10 -131.5q0 -93 55 -93q39 0 67.5 80
t39 157t10.5 119z" />
    <glyph glyph-name="two.fitted" unicode="&#xf63a;" horiz-adv-x="484" 
d="M4 0v22q173 228 234.5 326t61.5 148q0 29 -21 48.5t-53 19.5q-48 0 -145 -62l19 137q68 52 152 52q86 0 137 -52.5t51 -129.5q0 -71 -40 -142t-155 -228h170l-19 -139h-392z" />
    <glyph glyph-name="three.fitted" unicode="&#xf63b;" horiz-adv-x="499" 
d="M128 288l18 130q47 -11 77 -11q47 0 78.5 24t31.5 60q0 32 -23.5 52.5t-61.5 20.5q-59 0 -161 -45l19 135q83 37 162 37q91 0 148 -49.5t57 -128.5q0 -62 -29 -104.5t-84 -60.5q80 -42 80 -143q0 -95 -71 -154.5t-184 -59.5q-79 0 -172 43l18 130q88 -46 150 -46
q46 0 77.5 26.5t31.5 64.5t-30 61t-80 23q-23 0 -52 -5z" />
    <glyph glyph-name="four.fitted" unicode="&#xf63c;" horiz-adv-x="502" 
d="M14 157v114l336 420h113l-62 -441h74l-13 -93h-74l-22 -157h-141l22 157h-233zM109 250h151l32 224l-2 2z" />
    <glyph glyph-name="five.fitted" unicode="&#xf63d;" horiz-adv-x="486" 
d="M0 42l40 127q42 -29 71.5 -40t63.5 -11q51 0 84.5 28.5t33.5 72.5q0 46 -35.5 73t-95.5 27q-36 0 -77 -6l62 369h316l-20 -139h-179l-16 -112q97 -11 141 -66t44 -135q0 -107 -70.5 -173t-185.5 -66q-99 0 -177 51z" />
    <glyph glyph-name="six.fitted" unicode="&#xf63e;" horiz-adv-x="531" 
d="M277 416l2 -2q33 13 66 13q67 0 109.5 -49.5t42.5 -127.5q0 -109 -70.5 -184t-174.5 -75q-94 0 -150.5 58.5t-56.5 154.5q0 58 20.5 113.5t70.5 130.5l154 234h159zM357 240q0 31 -18.5 50t-47.5 19q-43 0 -74.5 -34t-31.5 -82q0 -33 19.5 -54t50.5 -21q41 0 71.5 36.5
t30.5 85.5z" />
    <glyph glyph-name="seven.fitted" unicode="&#xf63f;" horiz-adv-x="468" 
d="M290 543h-224l27 139h400l-269 -682h-149z" />
    <glyph glyph-name="eight.fitted" unicode="&#xf640;" horiz-adv-x="531" 
d="M111 497q0 81 61.5 137.5t150.5 56.5q79 0 130 -47t51 -118q0 -53 -31.5 -99.5t-93.5 -74.5q46 -20 71.5 -60.5t25.5 -91.5q0 -88 -65.5 -148.5t-159.5 -60.5q-92 0 -151 53.5t-59 136.5q0 36 13 73t45.5 70.5t78.5 43.5q-67 48 -67 129zM364 511q0 23 -14.5 38t-36.5 15
q-31 0 -49.5 -29.5t-18.5 -66.5q0 -22 13.5 -36t36.5 -14q33 0 51 28.5t18 64.5zM336 219q0 32 -19.5 52t-49.5 20q-35 0 -60.5 -29.5t-25.5 -71.5q0 -32 19 -52t49 -20q36 0 61.5 29t25.5 72z" />
    <glyph glyph-name="nine.fitted" unicode="&#xf641;" horiz-adv-x="531" 
d="M280 268l-2 2q-35 -13 -65 -13q-67 0 -110.5 49t-43.5 126q0 45 15.5 90t44.5 83t77 62t108 24q95 0 150.5 -58t55.5 -156q0 -106 -84 -233l-161 -244h-158zM370 491q0 31 -20.5 52t-50.5 21q-39 0 -69.5 -37.5t-30.5 -85.5q0 -30 19 -48t50 -18q48 0 75 38t27 78z" />
    <glyph glyph-name="zero.taboldstyle" unicode="&#xf643;" horiz-adv-x="526" 
d="M494 249q0 -25 -5.5 -54.5t-22 -67t-42 -66.5t-71 -49.5t-103.5 -20.5q-53 0 -94.5 16t-65 39t-38.5 54.5t-20 58t-5 52.5q0 107 73.5 179t179.5 72q94 0 154 -58t60 -155zM358 249q0 42 -21.5 68.5t-66.5 26.5q-43 0 -75 -35.5t-32 -96.5q0 -50 25.5 -76.5t63.5 -26.5
q48 0 77 43.5t29 96.5z" />
    <glyph glyph-name="one.taboldstyle" unicode="&#xf644;" horiz-adv-x="526" 
d="M332 0h-143l44 280l-125 -46l22 123l233 105h37z" />
    <glyph glyph-name="two.taboldstyle" unicode="&#xf645;" horiz-adv-x="526" 
d="M445 130l-19 -130h-392v21q164 129 202 170q49 51 49 99q0 25 -16.5 39.5t-45.5 14.5q-53 0 -141 -62l10 133q83 47 169 47q81 0 123.5 -34t42.5 -100q0 -49 -25 -95t-86 -103h129z" />
    <glyph glyph-name="three.taboldstyle" unicode="&#xf646;" horiz-adv-x="526" 
d="M110 64l162 255h-193l26 135h393l-199 -319q127 -39 127 -166q0 -92 -75.5 -145.5t-176.5 -53.5q-76 0 -172 35l17 121q83 -40 149 -40q61 0 88.5 26t27.5 63q0 45 -31.5 69t-86.5 24q-20 0 -56 -4z" />
    <glyph glyph-name="four.taboldstyle" unicode="&#xf647;" horiz-adv-x="526" 
d="M456 454l-54 -361h77l-15 -93h-75l-36 -230h-135l38 230h-256l15 93l347 361h94zM272 93l27 167l-159 -167h132z" />
    <glyph glyph-name="five.taboldstyle" unicode="&#xf648;" horiz-adv-x="526" 
d="M465 454l-20 -135h-166l-44 -146q41 -7 73 -23t51.5 -35.5t32 -43.5t17 -44.5t4.5 -40.5q0 -85 -70 -150.5t-179 -65.5q-96 0 -173 51l35 110q24 -16 37 -24t41 -17t57 -9q50 0 83 27t33 72q0 61 -60.5 86.5t-146.5 7.5l115 380h280z" />
    <glyph glyph-name="six.taboldstyle" unicode="&#xf649;" horiz-adv-x="526" 
d="M398 624l-139 -210q96 32 160.5 -14.5t64.5 -140.5q0 -113 -70 -190.5t-177 -77.5q-93 0 -150 57t-57 159q0 20 3.5 41.5t10 42.5t14 40.5t18 40t19 36t19.5 33t17 27t14.5 22t9.5 13.5l121 179zM342 241q0 33 -19.5 51t-47.5 18q-52 0 -79 -38t-27 -77q0 -31 18 -52.5
t52 -21.5q49 0 76 40.5t27 79.5z" />
    <glyph glyph-name="seven.taboldstyle" unicode="&#xf64a;" horiz-adv-x="526" 
d="M488 454l-268 -684l-133 48l207 501h-232l26 135h400z" />
    <glyph glyph-name="eight.taboldstyle" unicode="&#xf64b;" horiz-adv-x="526" 
d="M359 358q116 -57 116 -159q0 -84 -65 -146t-162 -62q-99 0 -154.5 56t-55.5 133q0 74 46.5 122t109.5 60q-86 52 -86 136q0 76 60 134.5t152 58.5q89 0 136 -51.5t47 -111.5q0 -55 -37 -100t-107 -70zM361 513q0 30 -14.5 43t-35.5 13q-30 0 -48.5 -30t-18.5 -65
q0 -28 15 -42.5t36 -14.5q33 0 49.5 34t16.5 62zM336 219q0 29 -18.5 51t-49.5 22q-42 0 -65 -35t-23 -69q0 -35 20.5 -53.5t47.5 -18.5q37 0 62.5 28.5t25.5 74.5z" />
    <glyph glyph-name="nine.taboldstyle" unicode="&#xf64c;" horiz-adv-x="526" 
d="M118 -171l139 210q-96 -32 -160.5 14.5t-64.5 140.5q0 113 70 190.5t177 77.5q93 0 150 -57t57 -159q0 -20 -3.5 -41.5t-10 -42.5t-14 -40.5t-18 -40t-19 -36t-19.5 -33t-17 -27t-14.5 -22t-9.5 -13.5l-121 -179zM174 212q0 -33 19.5 -51t47.5 -18q52 0 79 38t27 77
q0 31 -18 52.5t-52 21.5q-49 0 -76 -40.5t-27 -79.5z" />
    <glyph glyph-name="zero.denominator" unicode="&#xf655;" 
d="M309 225q0 -47 -15.5 -97t-55 -91.5t-93.5 -41.5q-18 0 -35 5t-37 18.5t-32 42t-12 69.5q0 89 45 159.5t119 70.5q51 0 83.5 -33.5t32.5 -101.5zM217 243q0 45 -28 45q-31 0 -49 -64.5t-18 -110.5t28 -46q30 0 48.5 65t18.5 111z" />
    <glyph glyph-name="one.denominator" unicode="&#xf656;" 
d="M247 355l-58 -355h-95l58 355h95z" />
    <glyph glyph-name="two.denominator" unicode="&#xf657;" 
d="M271 75l-12 -75h-243v15q72 75 130 156q42 58 42 82q0 18 -12 25t-24 7q-33 0 -94 -42l15 87q43 30 95 30q56 0 86.5 -29t30.5 -67q0 -36 -23 -74.5t-89 -114.5h98z" />
    <glyph glyph-name="three.denominator" unicode="&#xf658;" 
d="M16 19l12 74q59 -27 93 -27q24 0 41.5 12t17.5 32q0 16 -14.5 28t-44.5 12q-10 0 -38 -4l12 75q33 -6 51 -6q26 0 42.5 11t16.5 28q0 15 -12 24.5t-33 9.5q-42 0 -102 -30l13 81q53 21 102 21t88 -24.5t39 -70.5q0 -63 -63 -84q42 -27 42 -73q0 -52 -45.5 -82.5
t-110.5 -30.5q-46 0 -107 24z" />
    <glyph glyph-name="four.denominator" unicode="&#xf659;" 
d="M292 360l-36 -226h44l-8 -54h-45l-13 -80h-95l13 80h-136v62l200 218h76zM161 134l15 88l-82 -88h67z" />
    <glyph glyph-name="five.denominator" unicode="&#xf65a;" 
d="M298 355l-13 -79h-105l-10 -50q110 -14 110 -106q0 -59 -46 -92t-111 -33q-63 0 -111 29l26 72q48 -26 83 -26q29 0 46.5 13t17.5 34q0 19 -17 32.5t-54 13.5q-28 0 -52 -4l38 196h198z" />
    <glyph glyph-name="six.denominator" unicode="&#xf65b;" 
d="M278 355l-99 -134q12 3 30 3q43 0 69.5 -27t26.5 -65q0 -59 -44 -98t-108 -39q-55 0 -91.5 29.5t-36.5 84.5q0 53 56 126l91 120h106zM209 126q0 17 -9.5 25t-23.5 8q-24 0 -40.5 -17t-16.5 -39q0 -15 9 -25t26 -10q25 0 40 19t15 39z" />
    <glyph glyph-name="seven.denominator" unicode="&#xf65c;" 
d="M308 355l-161 -355h-100l127 279h-132l17 76h249z" />
    <glyph glyph-name="eight.denominator" unicode="&#xf65d;" 
d="M238 183q16 -9 24.5 -15.5t19 -23.5t10.5 -39q0 -45 -40.5 -77.5t-98.5 -32.5q-56 0 -93 28t-37 73q0 32 20 59t58 38q-37 25 -37 64q0 42 37.5 72.5t93.5 30.5q53 0 83.5 -27t30.5 -61q0 -57 -71 -89zM214 265q0 26 -24 26q-14 0 -23 -12t-10.5 -21t-1.5 -14
q0 -25 25 -25q14 0 22.5 12t10 20.5t1.5 13.5zM199 115q0 17 -11 25.5t-24 8.5q-19 0 -32 -15t-13 -34q0 -34 34 -34q21 0 33.5 15t12.5 34z" />
    <glyph glyph-name="nine.denominator" unicode="&#xf65e;" 
d="M260 125l-95 -125h-106l100 135q-14 -4 -29 -4q-42 0 -69.5 26t-27.5 66q0 53 40.5 95t110.5 42q30 0 57 -9t49 -36t22 -69q0 -52 -52 -121zM219 254q0 17 -12 25.5t-25 8.5q-23 0 -38.5 -19.5t-15.5 -40.5q0 -30 36 -30q28 0 41.5 19.5t13.5 36.5z" />
    <glyph glyph-name="zero.numerator" unicode="&#xf661;" 
d="M332 558q0 -49 -16 -99.5t-55 -91t-93 -40.5q-18 0 -35.5 5.5t-36.5 18.5t-31 41.5t-12 68.5q0 89 45 159.5t119 70.5q50 0 82.5 -33t32.5 -100zM240 575q0 45 -28 45q-31 0 -49 -64.5t-18 -110.5t28 -46q30 0 48.5 64.5t18.5 111.5z" />
    <glyph glyph-name="one.numerator" unicode="&#xf662;" 
d="M270 687l-58 -355h-95l58 355h95z" />
    <glyph glyph-name="two.numerator" unicode="&#xf663;" 
d="M294 407l-12 -75h-243v14q60 64 113 132q59 78 59 107q0 18 -12 25t-23 7q-33 0 -94 -42l14 87q45 29 96 29q55 0 86 -29.5t31 -66.5q0 -36 -23 -74.5t-89 -113.5h97z" />
    <glyph glyph-name="three.numerator" unicode="&#xf664;" 
d="M39 351l13 74q56 -27 93 -27q24 0 41 12t17 31q0 17 -14.5 28.5t-43.5 11.5q-21 0 -38 -4l12 76q38 -7 50 -7q26 0 42.5 11t16.5 29q0 15 -11.5 24.5t-32.5 9.5q-39 0 -103 -31l14 82q53 20 101 20q50 0 89 -24t39 -70q0 -28 -16 -51t-48 -34q43 -26 43 -73
q0 -52 -45.5 -82t-110.5 -30q-50 0 -108 24z" />
    <glyph glyph-name="four.numerator" unicode="&#xf665;" 
d="M316 691l-37 -225h45l-8 -54h-46l-13 -80h-94l13 80h-136v62l200 217h76zM185 466l14 88l-81 -88h67z" />
    <glyph glyph-name="five.numerator" unicode="&#xf666;" 
d="M321 687l-12 -79h-106l-9 -51q110 -14 110 -105q0 -59 -46 -92t-111 -33q-63 0 -112 29l27 71q50 -26 83 -26q29 0 46.5 13t17.5 35q0 19 -17 32.5t-54 13.5q-23 0 -53 -5l38 197h198z" />
    <glyph glyph-name="six.numerator" unicode="&#xf667;" 
d="M302 687l-99 -134q24 3 29 3q44 0 70 -27t26 -65q0 -59 -43.5 -98t-107.5 -39q-55 0 -92 29.5t-37 84.5q0 52 57 126l91 120h106zM233 458q0 32 -34 32q-23 0 -40 -17t-17 -38q0 -35 36 -35q25 0 40 19t15 39z" />
    <glyph glyph-name="seven.numerator" unicode="&#xf668;" 
d="M349 687l-161 -355h-100l127 278h-132l17 77h249z" />
    <glyph glyph-name="eight.numerator" unicode="&#xf669;" 
d="M262 515q54 -30 54 -78q0 -45 -40.5 -77.5t-99.5 -32.5q-56 0 -93 28t-37 73q0 31 20.5 58.5t57.5 37.5q-36 26 -36 64q0 42 37.5 72.5t93.5 30.5q53 0 83 -26.5t30 -61.5q0 -58 -70 -88zM238 597q0 25 -24 25q-15 0 -24 -12t-10.5 -20.5t-1.5 -14.5q0 -24 25 -24
q14 0 23 12t10.5 20.5t1.5 13.5zM222 447q0 17 -10.5 25.5t-23.5 8.5q-20 0 -32.5 -15t-12.5 -35q0 -16 10 -25t24 -9q21 0 33 15t12 35z" />
    <glyph glyph-name="nine.numerator" unicode="&#xf66a;" 
d="M284 457l-96 -125h-105l100 134q-21 -3 -29 -3q-43 0 -70 26t-27 66q0 53 40.5 94.5t110.5 41.5q49 0 88.5 -26t39.5 -87q0 -53 -52 -121zM243 586q0 16 -11.5 24.5t-25.5 8.5q-23 0 -38.5 -19t-15.5 -40q0 -30 35 -30q28 0 42 19t14 37z" />
    <glyph glyph-name="abreve.sc" unicode="&#xf66d;" horiz-adv-x="477" 
d="M428 0h-120l-14 104h-135l-46 -104h-129l239 499h119zM283 188l-20 173l-69 -173h89zM132 703h86q4 -13 8 -22t12.5 -20t23 -17t35.5 -6q63 0 90 65h86q-4 -20 -14 -42t-30 -50t-56.5 -46t-82.5 -18q-72 0 -111.5 45t-46.5 111z" />
    <glyph glyph-name="amacron.sc" unicode="&#xf66e;" horiz-adv-x="477" 
d="M428 0h-120l-14 104h-135l-46 -104h-129l239 499h119zM283 188l-20 173l-69 -173h89zM469 577h-386l14 100h386z" />
    <glyph glyph-name="aogonek.sc" unicode="&#xf66f;" horiz-adv-x="477" 
d="M475 -120q-49 -9 -76 -9q-61 0 -87.5 23t-26.5 47q0 30 23 60l-14 103h-135l-46 -104h-129l239 499h119l86 -499h-52q-17 -32 -8 -49.5t38 -17.5q30 0 69 13v-66zM283 188l-20 173l-69 -173h89z" />
    <glyph glyph-name="aeacute.sc" unicode="&#xf670;" horiz-adv-x="754" 
d="M722 95l-15 -95h-385l17 118h-153l-75 -118h-135l315 493h431l-11 -96h-216l-13 -96h191l-14 -96h-191l-15 -110h269zM379 406h-11l-127 -202h110zM550 719h161l-177 -172h-73z" />
    <glyph glyph-name="cacute.sc" unicode="&#xf671;" horiz-adv-x="515" 
d="M495 480l-19 -105q-63 20 -121 20q-52 0 -91.5 -17.5t-61 -45.5t-31.5 -57t-10 -58q0 -56 34 -88t93 -32q73 0 183 63l-18 -127q-90 -40 -174 -40q-107 0 -173 63t-66 164q0 124 89 201.5t229 77.5q62 0 137 -19zM355 719h161l-177 -172h-73z" />
    <glyph glyph-name="ccaron.sc" unicode="&#xf672;" horiz-adv-x="515" 
d="M495 480l-19 -105q-63 20 -121 20q-52 0 -91.5 -17.5t-61 -45.5t-31.5 -57t-10 -58q0 -56 34 -88t93 -32q73 0 183 63l-18 -127q-90 -40 -174 -40q-107 0 -173 63t-66 164q0 124 89 201.5t229 77.5q62 0 137 -19zM439 707h91l-126 -160h-149l-59 160h82l61 -91z" />
    <glyph glyph-name="ccircumflex.sc" unicode="&#xf673;" horiz-adv-x="515" 
d="M495 480l-19 -105q-63 20 -121 20q-52 0 -91.5 -17.5t-61 -45.5t-31.5 -57t-10 -58q0 -56 34 -88t93 -32q73 0 183 63l-18 -127q-90 -40 -174 -40q-107 0 -173 63t-66 164q0 124 89 201.5t229 77.5q62 0 137 -19zM459 746l64 -199h-70l-83 120l-153 -120h-84l172 199h154
z" />
    <glyph glyph-name="cdotaccent.sc" unicode="&#xf674;" horiz-adv-x="515" 
d="M495 480l-19 -105q-63 20 -121 20q-52 0 -91.5 -17.5t-61 -45.5t-31.5 -57t-10 -58q0 -56 34 -88t93 -32q73 0 183 63l-18 -127q-90 -40 -174 -40q-107 0 -173 63t-66 164q0 124 89 201.5t229 77.5q62 0 137 -19zM338 692q27 0 46 -19t19 -46t-19 -46.5t-46 -19.5
t-46.5 19.5t-19.5 46.5t19.5 46t46.5 19z" />
    <glyph glyph-name="dcaron.sc" unicode="&#xf675;" horiz-adv-x="559" 
d="M519 252q0 -109 -66.5 -180.5t-165.5 -71.5h-254l69 493h164q70 0 121.5 -22t79 -59t40 -77t12.5 -83zM399 254q0 63 -40 103t-112 40h-42l-41 -302h85q74 0 112 46.5t38 112.5zM381 707h91l-126 -160h-149l-59 160h82l61 -91z" />
    <glyph glyph-name="dcroat.sc" unicode="&#xf676;" horiz-adv-x="559" 
d="M62 210h-62l8 72h64l30 211h164q70 0 121.5 -22t79 -59t40 -77t12.5 -83q0 -109 -66.5 -180.5t-165.5 -71.5h-254zM205 397l-16 -115h112l-9 -72h-113l-15 -115h85q74 0 112 46.5t38 112.5q0 63 -40 103t-112 40h-42z" />
    <glyph glyph-name="ebreve.sc" unicode="&#xf677;" horiz-adv-x="446" 
d="M414 493l-13 -96h-195l-14 -97h171l-13 -95h-172l-15 -110h246l-13 -95h-363l69 493h312zM107 703h86q4 -13 8 -22t12.5 -20t23 -17t35.5 -6q63 0 90 65h86q-4 -20 -14 -42t-30 -50t-56.5 -46t-82.5 -18q-72 0 -111.5 45t-46.5 111z" />
    <glyph glyph-name="ecaron.sc" unicode="&#xf678;" horiz-adv-x="446" 
d="M414 493l-13 -96h-195l-14 -97h171l-13 -95h-172l-15 -110h246l-13 -95h-363l69 493h312zM370 707h91l-126 -160h-149l-59 160h82l61 -91z" />
    <glyph glyph-name="edotaccent.sc" unicode="&#xf679;" horiz-adv-x="446" 
d="M414 493l-13 -96h-195l-14 -97h171l-13 -95h-172l-15 -110h246l-13 -95h-363l69 493h312zM292 692q27 0 46 -19t19 -46t-19 -46.5t-46 -19.5t-46.5 19.5t-19.5 46.5t19.5 46t46.5 19z" />
    <glyph glyph-name="emacron.sc" unicode="&#xf67a;" horiz-adv-x="446" 
d="M414 493l-13 -96h-195l-14 -97h171l-13 -95h-172l-15 -110h246l-13 -95h-363l69 493h312zM464 577h-386l14 100h386z" />
    <glyph glyph-name="eng.sc" unicode="&#xf67b;" horiz-adv-x="552" 
d="M301 -7l12 88q41 0 56.5 16.5t23.5 71.5l11 74q7 56 7 79q0 86 -85 86q-81 0 -124 -70q-22 -35 -33 -111l-33 -227h-113l70 500h114l-7 -47q38 27 74 39q39 15 81 15q76 0 124 -49t48 -121q0 -29 -9 -94l-11 -79q-6 -46 -14.5 -74.5t-26.5 -53t-49 -35t-78 -10.5
q-12 0 -38 2z" />
    <glyph glyph-name="eogonek.sc" unicode="&#xf67c;" horiz-adv-x="446" 
d="M414 493l-13 -96h-195l-14 -97h171l-13 -95h-172l-15 -110h246l-13 -95h-115q-12 -17 -12 -34q0 -14 11 -23t28 -9q25 0 73 23v-74q-43 -12 -78 -12q-53 0 -83 18.5t-30 51.5q0 30 22 59h-179l69 493h312z" />
    <glyph glyph-name="gbreve.sc" unicode="&#xf67d;" horiz-adv-x="568" 
d="M536 479l-14 -104q-73 20 -132 20q-102 0 -165.5 -48.5t-63.5 -126.5q0 -60 39 -91.5t103 -31.5q32 0 64 8l10 70h-87l13 92h204l-37 -258q-59 -16 -154 -16q-140 0 -208 65.5t-68 158.5q0 49 20 97t59.5 90.5t110 68.5t160.5 26q77 0 146 -20zM188 703h86q4 -13 8 -22
t12.5 -20t23 -17t35.5 -6q63 0 90 65h86q-4 -20 -14 -42t-30 -50t-56.5 -46t-82.5 -18q-72 0 -111.5 45t-46.5 111z" />
    <glyph glyph-name="gcircumflex.sc" unicode="&#xf67e;" horiz-adv-x="568" 
d="M536 479l-14 -104q-73 20 -132 20q-102 0 -165.5 -48.5t-63.5 -126.5q0 -60 39 -91.5t103 -31.5q32 0 64 8l10 70h-87l13 92h204l-37 -258q-59 -16 -154 -16q-140 0 -208 65.5t-68 158.5q0 49 20 97t59.5 90.5t110 68.5t160.5 26q77 0 146 -20zM474 746l64 -199h-70
l-83 120l-153 -120h-84l172 199h154z" />
    <glyph glyph-name="gcommaaccent.sc" unicode="&#xf67f;" horiz-adv-x="568" 
d="M536 479l-14 -104q-73 20 -132 20q-102 0 -165.5 -48.5t-63.5 -126.5q0 -60 39 -91.5t103 -31.5q32 0 64 8l10 70h-87l13 92h204l-37 -258q-59 -16 -154 -16q-140 0 -208 65.5t-68 158.5q0 49 20 97t59.5 90.5t110 68.5t160.5 26q77 0 146 -20zM136 -201l14 51
q38 -8 73 -8q60 0 60 36q0 31 -73 31h-27l16 54h27q157 0 157 -80q0 -48 -42.5 -71.5t-110.5 -23.5q-61 0 -94 11z" />
    <glyph glyph-name="gdotaccent.sc" unicode="&#xf680;" horiz-adv-x="568" 
d="M536 479l-14 -104q-73 20 -132 20q-102 0 -165.5 -48.5t-63.5 -126.5q0 -60 39 -91.5t103 -31.5q32 0 64 8l10 70h-87l13 92h204l-37 -258q-59 -16 -154 -16q-140 0 -208 65.5t-68 158.5q0 49 20 97t59.5 90.5t110 68.5t160.5 26q77 0 146 -20zM360 692q27 0 46 -19
t19 -46t-19 -46.5t-46 -19.5t-46.5 19.5t-19.5 46.5t19.5 46t46.5 19z" />
    <glyph glyph-name="hbar.sc" unicode="&#xf681;" horiz-adv-x="594" 
d="M632 435l-10 -72h-79l-51 -363h-117l28 194h-226l-27 -194h-117l51 363h-80l10 72h80l8 58h117l-8 -58h225l8 58h117l-8 -58h79zM426 363h-225l-8 -59h225z" />
    <glyph glyph-name="hcircumflex.sc" unicode="&#xf682;" horiz-adv-x="594" 
d="M561 493l-69 -493h-117l28 194h-226l-27 -194h-117l69 493h117l-26 -189h225l26 189h117zM469 746l64 -199h-70l-83 120l-153 -120h-84l172 199h154z" />
    <glyph glyph-name="ibreve.sc" unicode="&#xf683;" horiz-adv-x="252" 
d="M219 493l-69 -493h-117l69 493h117zM20 703h86q4 -13 8 -22t12.5 -20t23 -17t35.5 -6q63 0 90 65h86q-4 -20 -14 -42t-30 -50t-56.5 -46t-82.5 -18q-72 0 -111.5 45t-46.5 111z" />
    <glyph glyph-name="i_j.sc" unicode="&#xf684;" horiz-adv-x="516" 
d="M219 493l-69 -493h-117l69 493h117zM482 493l-71 -511q-11 -83 -61.5 -117t-142.5 -23l13 94q39 1 55 14.5t22 53.5l68 489h117z" />
    <glyph glyph-name="imacron.sc" unicode="&#xf685;" horiz-adv-x="252" 
d="M219 493l-69 -493h-117l69 493h117zM357 577h-386l14 100h386z" />
    <glyph glyph-name="iogonek.sc" unicode="&#xf686;" horiz-adv-x="302" 
d="M110 0q-14 -18 -14 -38q0 -14 12.5 -25t30.5 -11q40 0 82 26v-81q-40 -14 -87 -14q-61 0 -93 24.5t-32 52.5q0 31 24 66l69 493h117l-69 -493h-40z" />
    <glyph glyph-name="itilde.sc" unicode="&#xf687;" horiz-adv-x="252" 
d="M219 493l-69 -493h-117l69 493h117zM54 547h-73q0 88 36 124.5t81 36.5q32 0 101 -39q35 -20 58 -20q36 0 36 58h73q0 -86 -36 -123t-81 -37q-18 0 -35 5.5t-29.5 12t-40.5 23.5q-30 19 -53 19q-37 0 -37 -60z" />
    <glyph glyph-name="jcircumflex.sc" unicode="&#xf688;" horiz-adv-x="264" 
d="M231 493l-71 -511q-11 -83 -61.5 -117t-142.5 -23l13 94q39 1 55 14.5t22 53.5l68 489h117zM304 746l64 -199h-70l-83 120l-153 -120h-84l172 199h154z" />
    <glyph glyph-name="kcommaaccent.sc" unicode="&#xf689;" horiz-adv-x="527" 
d="M521 493l-221 -225l189 -268h-136l-169 240l-34 -240h-117l69 493h117l-27 -192l187 192h142zM115 -201l14 51q38 -8 73 -8q60 0 60 36q0 31 -73 31h-27l16 54h27q157 0 157 -80q0 -48 -42.5 -71.5t-110.5 -23.5q-61 0 -94 11z" />
    <glyph glyph-name="lacute.sc" unicode="&#xf68a;" horiz-adv-x="413" 
d="M378 95l-13 -95h-332l69 493h116l-55 -398h215zM249 719h161l-177 -172h-73z" />
    <glyph glyph-name="lcaron.sc" unicode="&#xf68b;" horiz-adv-x="413" 
d="M378 95l-13 -95h-332l69 493h116l-55 -398h215zM245 277l3 38q34 0 56.5 18t27.5 44q-47 8 -47 59q0 25 19.5 44t48.5 19q25 0 45.5 -20t20.5 -54q0 -24 -8.5 -48t-27 -47.5t-54 -38t-84.5 -14.5z" />
    <glyph glyph-name="lcommaaccent.sc" unicode="&#xf68c;" horiz-adv-x="413" 
d="M378 95l-13 -95h-332l69 493h116l-55 -398h215zM58 -201l14 51q38 -8 73 -8q60 0 60 36q0 31 -73 31h-27l16 54h27q157 0 157 -80q0 -48 -42.5 -71.5t-110.5 -23.5q-61 0 -94 11z" />
    <glyph glyph-name="ldot.sc" unicode="&#xf68d;" horiz-adv-x="413" 
d="M378 95l-13 -95h-332l69 493h116l-55 -398h215zM319 364q-28 0 -47.5 -19.5t-19.5 -47.5t19.5 -47.5t47.5 -19.5t47.5 19.5t19.5 47.5t-19.5 47.5t-47.5 19.5z" />
    <glyph glyph-name="nacute.sc" unicode="&#xf68e;" horiz-adv-x="587" 
d="M554 493l-68 -493h-107l-187 309l-42 -309h-117l69 493h112l183 -298l40 298h117zM356 719h161l-177 -172h-73z" />
    <glyph glyph-name="ncaron.sc" unicode="&#xf68f;" horiz-adv-x="587" 
d="M554 493l-68 -493h-107l-187 309l-42 -309h-117l69 493h112l183 -298l40 298h117zM430 707h91l-126 -160h-149l-59 160h82l61 -91z" />
    <glyph glyph-name="ncommaaccent.sc" unicode="&#xf690;" horiz-adv-x="587" 
d="M554 493l-68 -493h-107l-187 309l-42 -309h-117l69 493h112l183 -298l40 298h117zM145 -201l14 51q38 -8 73 -8q60 0 60 36q0 31 -73 31h-27l16 54h27q157 0 157 -80q0 -48 -42.5 -71.5t-110.5 -23.5q-61 0 -94 11z" />
    <glyph glyph-name="obreve.sc" unicode="&#xf691;" horiz-adv-x="608" 
d="M568 273q0 -125 -79.5 -202.5t-201.5 -77.5q-107 0 -177 64.5t-70 165.5q0 119 81 197.5t205 78.5q107 0 174.5 -63t67.5 -163zM448 266q0 56 -36.5 92.5t-92.5 36.5q-65 0 -112 -49t-47 -118q0 -58 35.5 -94.5t91.5 -36.5q67 0 114 49t47 120zM198 703h86q4 -13 8 -22
t12.5 -20t23 -17t35.5 -6q63 0 90 65h86q-4 -20 -14 -42t-30 -50t-56.5 -46t-82.5 -18q-72 0 -111.5 45t-46.5 111z" />
    <glyph glyph-name="ohungarumlaut.sc" unicode="&#xf692;" horiz-adv-x="608" 
d="M568 273q0 -125 -79.5 -202.5t-201.5 -77.5q-107 0 -177 64.5t-70 165.5q0 119 81 197.5t205 78.5q107 0 174.5 -63t67.5 -163zM448 266q0 56 -36.5 92.5t-92.5 36.5q-65 0 -112 -49t-47 -118q0 -58 35.5 -94.5t91.5 -36.5q67 0 114 49t47 120zM253 711h127l-103 -164
h-61zM420 711h127l-103 -164h-61z" />
    <glyph glyph-name="omacron.sc" unicode="&#xf693;" horiz-adv-x="608" 
d="M568 273q0 -125 -79.5 -202.5t-201.5 -77.5q-107 0 -177 64.5t-70 165.5q0 119 81 197.5t205 78.5q107 0 174.5 -63t67.5 -163zM448 266q0 56 -36.5 92.5t-92.5 36.5q-65 0 -112 -49t-47 -118q0 -58 35.5 -94.5t91.5 -36.5q67 0 114 49t47 120zM535 577h-386l14 100h386z
" />
    <glyph glyph-name="oslashacute.sc" unicode="&#xf694;" horiz-adv-x="608" 
d="M568 273q0 -125 -79.5 -202.5t-201.5 -77.5q-78 0 -139 36l-69 -79l-37 33l66 76q-68 63 -68 164q0 119 81 197.5t205 78.5q76 0 134 -33l67 77l38 -31l-65 -76q68 -63 68 -163zM448 266q0 47 -26 81l-201 -233q29 -17 66 -17q67 0 114 49t47 120zM385 379q-30 16 -66 16
q-65 0 -112 -49t-47 -118q0 -46 24 -81zM367 719h161l-177 -172h-73z" />
    <glyph glyph-name="racute.sc" unicode="&#xf695;" horiz-adv-x="490" 
d="M460 0h-129l-47 101q-29 63 -44 77.5t-49 14.5h-15l-26 -193h-117l68 493h170q85 0 126 -47.5t41 -104.5q0 -44 -23.5 -79t-69.5 -49q20 -14 37 -50zM318 344q0 53 -71 53h-42l-16 -114h41q45 0 66.5 18t21.5 43zM308 719h161l-177 -172h-73z" />
    <glyph glyph-name="rcaron.sc" unicode="&#xf696;" horiz-adv-x="490" 
d="M460 0h-129l-47 101q-29 63 -44 77.5t-49 14.5h-15l-26 -193h-117l68 493h170q85 0 126 -47.5t41 -104.5q0 -44 -23.5 -79t-69.5 -49q20 -14 37 -50zM318 344q0 53 -71 53h-42l-16 -114h41q45 0 66.5 18t21.5 43zM372 707h91l-126 -160h-149l-59 160h82l61 -91z" />
    <glyph glyph-name="rcommaaccent.sc" unicode="&#xf697;" horiz-adv-x="490" 
d="M460 0h-129l-47 101q-29 63 -44 77.5t-49 14.5h-15l-26 -193h-117l68 493h170q85 0 126 -47.5t41 -104.5q0 -44 -23.5 -79t-69.5 -49q20 -14 37 -50zM318 344q0 53 -71 53h-42l-16 -114h41q45 0 66.5 18t21.5 43zM97 -201l14 51q38 -8 73 -8q60 0 60 36q0 31 -73 31h-27
l16 54h27q157 0 157 -80q0 -48 -42.5 -71.5t-110.5 -23.5q-61 0 -94 11z" />
    <glyph glyph-name="sacute.sc" unicode="&#xf698;" horiz-adv-x="393" 
d="M375 457l-17 -102q-66 48 -124 48q-26 0 -42 -12.5t-16 -31.5q0 -25 51 -55q32 -19 46.5 -29.5t36.5 -30.5t31 -43.5t9 -53.5q0 -65 -44.5 -109.5t-123.5 -44.5q-95 0 -170 50l18 101q74 -55 140 -55q28 0 44 12.5t16 31.5q0 30 -52 63q-4 3 -21 13.5t-22.5 14.5
t-20 14.5t-20 17t-15 18t-13.5 21.5t-7.5 23.5t-3.5 28.5q0 66 50 109t125 43q74 0 145 -42zM274 719h161l-177 -172h-73z" />
    <glyph glyph-name="scedilla.sc" unicode="&#xf699;" horiz-adv-x="393" 
d="M375 457l-17 -102q-66 48 -124 48q-26 0 -42 -12.5t-16 -31.5q0 -25 51 -55q32 -19 46.5 -29.5t36.5 -30.5t31 -43.5t9 -53.5q0 -65 -44 -109.5t-123 -44.5l-5 -16q53 -14 53 -67q0 -39 -30.5 -61.5t-85.5 -22.5q-44 0 -69 10l10 45q20 -5 45 -5q53 0 53 32q0 30 -43 32
l25 56q-64 8 -124 47l18 101q74 -55 140 -55q28 0 44 12.5t16 31.5q0 30 -52 63q-4 3 -21 13.5t-22.5 14.5t-20 14.5t-20 17t-15 18t-13.5 21.5t-7.5 23.5t-3.5 28.5q0 66 50 109t125 43q74 0 145 -42z" />
    <glyph glyph-name="scircumflex.sc" unicode="&#xf69a;" horiz-adv-x="393" 
d="M375 457l-17 -102q-66 48 -124 48q-26 0 -42 -12.5t-16 -31.5q0 -25 51 -55q32 -19 46.5 -29.5t36.5 -30.5t31 -43.5t9 -53.5q0 -65 -44.5 -109.5t-123.5 -44.5q-95 0 -170 50l18 101q74 -55 140 -55q28 0 44 12.5t16 31.5q0 30 -52 63q-4 3 -21 13.5t-22.5 14.5
t-20 14.5t-20 17t-15 18t-13.5 21.5t-7.5 23.5t-3.5 28.5q0 66 50 109t125 43q74 0 145 -42zM368 746l64 -199h-70l-83 120l-153 -120h-84l172 199h154z" />
    <glyph glyph-name="scommaaccent.sc" unicode="&#xf69b;" horiz-adv-x="393" 
d="M375 457l-17 -102q-66 48 -124 48q-26 0 -42 -12.5t-16 -31.5q0 -25 51 -55q32 -19 46.5 -29.5t36.5 -30.5t31 -43.5t9 -53.5q0 -65 -44.5 -109.5t-123.5 -44.5q-95 0 -170 50l18 101q74 -55 140 -55q28 0 44 12.5t16 31.5q0 30 -52 63q-4 3 -21 13.5t-22.5 14.5
t-20 14.5t-20 17t-15 18t-13.5 21.5t-7.5 23.5t-3.5 28.5q0 66 50 109t125 43q74 0 145 -42zM33 -201l14 51q38 -8 73 -8q60 0 60 36q0 31 -73 31h-27l16 54h27q157 0 157 -80q0 -48 -42.5 -71.5t-110.5 -23.5q-61 0 -94 11z" />
    <glyph glyph-name="tbar.sc" unicode="&#xf69c;" horiz-adv-x="479" 
d="M62 276h120l17 121h-150l14 96h421l-13 -96h-155l-17 -121h125l-14 -89h-123l-26 -187h-117l26 187h-122z" />
    <glyph glyph-name="tcaron.sc" unicode="&#xf69d;" horiz-adv-x="479" 
d="M484 493l-13 -96h-155l-55 -397h-117l55 397h-150l14 96h421zM376 707h91l-126 -160h-149l-59 160h82l61 -91z" />
    <glyph glyph-name="tcommaaccent.sc" unicode="&#xf69e;" horiz-adv-x="479" 
d="M484 493l-13 -96h-155l-55 -397h-117l55 397h-150l14 96h421zM76 -201l14 51q38 -8 73 -8q60 0 60 36q0 31 -73 31h-27l16 54h27q157 0 157 -80q0 -48 -42.5 -71.5t-110.5 -23.5q-61 0 -94 11z" />
    <glyph glyph-name="ubreve.sc" unicode="&#xf69f;" horiz-adv-x="555" 
d="M534 493l-43 -307q-28 -193 -226 -193q-120 0 -174.5 61.5t-40.5 159.5l40 279h117l-40 -279q-5 -35 3.5 -60t26 -36.5t34 -16t34.5 -4.5q42 0 73 24t38 76l41 296h117zM171 703h86q4 -13 8 -22t12.5 -20t23 -17t35.5 -6q63 0 90 65h86q-4 -20 -14 -42t-30 -50t-56.5 -46
t-82.5 -18q-72 0 -111.5 45t-46.5 111z" />
    <glyph glyph-name="uhungarumlaut.sc" unicode="&#xf6a0;" horiz-adv-x="555" 
d="M534 493l-43 -307q-28 -193 -226 -193q-120 0 -174.5 61.5t-40.5 159.5l40 279h117l-40 -279q-5 -35 3.5 -60t26 -36.5t34 -16t34.5 -4.5q42 0 73 24t38 76l41 296h117zM226 711h127l-103 -164h-61zM393 711h127l-103 -164h-61z" />
    <glyph glyph-name="umacron.sc" unicode="&#xf6a1;" horiz-adv-x="555" 
d="M534 493l-43 -307q-28 -193 -226 -193q-120 0 -174.5 61.5t-40.5 159.5l40 279h117l-40 -279q-5 -35 3.5 -60t26 -36.5t34 -16t34.5 -4.5q42 0 73 24t38 76l41 296h117zM508 577h-386l14 100h386z" />
    <glyph glyph-name="uogonek.sc" unicode="&#xf6a2;" horiz-adv-x="555" 
d="M534 493l-43 -307q-27 -193 -227 -193q-7 -14 -7 -27q0 -14 11 -23t28 -9q25 0 73 23v-74q-43 -12 -78 -12q-53 0 -83 18.5t-30 51.5q0 30 21 58q-86 16 -123.5 73.5t-25.5 141.5l40 279h117l-40 -279q-5 -35 3.5 -60t26 -36.5t34 -16t34.5 -4.5q42 0 73 24t38 76l41 296
h117z" />
    <glyph glyph-name="uring.sc" unicode="&#xf6a3;" horiz-adv-x="555" 
d="M534 493l-43 -307q-28 -193 -226 -193q-120 0 -174.5 61.5t-40.5 159.5l40 279h117l-40 -279q-5 -35 3.5 -60t26 -36.5t34 -16t34.5 -4.5q42 0 73 24t38 76l41 296h117zM339 777q47 0 81 -33.5t34 -81.5t-33.5 -81.5t-81.5 -33.5t-81.5 33.5t-33.5 81.5t34 81.5t81 33.5z
M340 725q-26 0 -44 -18t-18 -44q0 -25 18 -43.5t44 -18.5t44 18t18 44t-18 44t-44 18z" />
    <glyph glyph-name="utilde.sc" unicode="&#xf6a4;" horiz-adv-x="555" 
d="M534 493l-43 -307q-28 -193 -226 -193q-120 0 -174.5 61.5t-40.5 159.5l40 279h117l-40 -279q-5 -35 3.5 -60t26 -36.5t34 -16t34.5 -4.5q42 0 73 24t38 76l41 296h117zM205 547h-73q0 88 36 124.5t81 36.5q32 0 101 -39q35 -20 58 -20q36 0 36 58h73q0 -86 -36 -123
t-81 -37q-18 0 -35 5.5t-29.5 12t-40.5 23.5q-30 19 -53 19q-37 0 -37 -60z" />
    <glyph glyph-name="wacute.sc" unicode="&#xf6a5;" horiz-adv-x="697" 
d="M717 493l-241 -500h-52l-73 282l-152 -282h-53l-100 500h111l48 -267l143 267h61l67 -267l121 267h120zM411 719h161l-177 -172h-73z" />
    <glyph glyph-name="wcircumflex.sc" unicode="&#xf6a6;" horiz-adv-x="697" 
d="M717 493l-241 -500h-52l-73 282l-152 -282h-53l-100 500h111l48 -267l143 267h61l67 -267l121 267h120zM520 746l64 -199h-70l-83 120l-153 -120h-84l172 199h154z" />
    <glyph glyph-name="wdieresis.sc" unicode="&#xf6a7;" horiz-adv-x="697" 
d="M717 493l-241 -500h-52l-73 282l-152 -282h-53l-100 500h111l48 -267l143 267h61l67 -267l121 267h120zM514 692q27 0 46 -19t19 -46t-19 -46.5t-46 -19.5t-46.5 19.5t-19.5 46.5t19.5 46t46.5 19zM312 692q27 0 46 -19t19 -46t-19 -46.5t-46 -19.5t-46.5 19.5
t-19.5 46.5t19.5 46t46.5 19z" />
    <glyph glyph-name="wgrave.sc" unicode="&#xf6a8;" horiz-adv-x="697" 
d="M717 493l-241 -500h-52l-73 282l-152 -282h-53l-100 500h111l48 -267l143 267h61l67 -267l121 267h120zM410 547l-177 172h161l89 -172h-73z" />
    <glyph glyph-name="ycircumflex.sc" unicode="&#xf6a9;" horiz-adv-x="436" 
d="M456 493l-185 -288l-29 -205h-117l29 207l-103 286h118l57 -173l103 173h127zM379 746l64 -199h-70l-83 120l-153 -120h-84l172 199h154z" />
    <glyph glyph-name="ygrave.sc" unicode="&#xf6aa;" horiz-adv-x="436" 
d="M456 493l-185 -288l-29 -205h-117l29 207l-103 286h118l57 -173l103 173h127zM280 547l-177 172h161l89 -172h-73z" />
    <glyph glyph-name="zacute.sc" unicode="&#xf6ab;" horiz-adv-x="524" 
d="M514 493l-316 -398h228l-13 -95h-439l317 397h-223l14 96h432zM335 719h161l-177 -172h-73z" />
    <glyph glyph-name="zdotaccent.sc" unicode="&#xf6ac;" horiz-adv-x="524" 
d="M514 493l-316 -398h228l-13 -95h-439l317 397h-223l14 96h432zM313 692q27 0 46 -19t19 -46t-19 -46.5t-46 -19.5t-46.5 19.5t-19.5 46.5t19.5 46t46.5 19z" />
    <glyph glyph-name="idotaccent.sc" unicode="&#xf6ad;" horiz-adv-x="252" 
d="M219 493l-69 -493h-117l69 493h117zM177 692q27 0 46 -19t19 -46t-19 -46.5t-46 -19.5t-46.5 19.5t-19.5 46.5t19.5 46t46.5 19z" />
    <glyph glyph-name="one.fitted" unicode="&#xf6dc;" horiz-adv-x="312" 
d="M288 682l-97 -682h-141l97 682h141z" />
    <glyph glyph-name="lslash.sc" unicode="&#xf6f9;" horiz-adv-x="413" 
d="M283 417l-14 -103l-84 -57l-22 -162h215l-13 -95h-332l24 169l-54 -37l14 105l54 37l31 219h116l-18 -132z" />
    <glyph glyph-name="oe.sc" unicode="&#xf6fa;" horiz-adv-x="776" 
d="M744 95l-13 -95h-392h-66q-107 0 -170 60.5t-63 159.5q0 48 17.5 95t50.5 87.5t89.5 65.5t127.5 25h419l-13 -96h-197l-13 -96h180l-13 -96h-180l-16 -110h252zM417 397h-69q-91 0 -139.5 -48t-48.5 -126q0 -128 138 -128h77z" />
    <glyph glyph-name="scaron.sc" unicode="&#xf6fd;" horiz-adv-x="393" 
d="M375 457l-17 -102q-66 48 -124 48q-26 0 -42 -12.5t-16 -31.5q0 -25 51 -55q32 -19 46.5 -29.5t36.5 -30.5t31 -43.5t9 -53.5q0 -65 -44.5 -109.5t-123.5 -44.5q-95 0 -170 50l18 101q74 -55 140 -55q28 0 44 12.5t16 31.5q0 30 -52 63q-4 3 -21 13.5t-22.5 14.5
t-20 14.5t-20 17t-15 18t-13.5 21.5t-7.5 23.5t-3.5 28.5q0 66 50 109t125 43q74 0 145 -42zM333 707h91l-126 -160h-149l-59 160h82l61 -91z" />
    <glyph glyph-name="zcaron.sc" unicode="&#xf6ff;" horiz-adv-x="524" 
d="M514 493l-316 -398h228l-13 -95h-439l317 397h-223l14 96h432zM399 707h91l-126 -160h-149l-59 160h82l61 -91z" />
    <glyph glyph-name="ampersand.sc" unicode="&#xf726;" horiz-adv-x="538" 
d="M521 97l-37 -96q-30 -13 -74.5 -5.5t-79.5 33.5q-65 -36 -133 -36q-75 0 -125.5 43.5t-50.5 109.5q0 62 45 107.5t133 59.5q-4 89 41.5 137.5t121.5 48.5q54 0 89.5 -30.5t35.5 -78.5q0 -110 -166 -142q15 -52 35 -85q28 27 44 67h109q-29 -74 -76 -125q24 -8 47 -8h41z
M396 391q0 15 -10.5 24.5t-28.5 9.5q-25 0 -39 -17.5t-14 -50.5q0 -17 2 -26q53 12 71.5 26.5t18.5 33.5zM265 96q-37 63 -52 129q-71 -17 -71 -71q0 -31 20.5 -50t52.5 -19q27 0 50 11z" />
    <glyph glyph-name="zero.oldstyle" unicode="&#xf730;" horiz-adv-x="526" 
d="M494 249q0 -20 -3.5 -45t-19.5 -66t-42 -71q-65 -76 -179 -76q-53 0 -94.5 16t-65 39t-38.5 54.5t-20 58t-5 52.5q0 107 73.5 179t179.5 72q94 0 154 -58t60 -155zM357 249q0 38 -20 66.5t-67 28.5t-77 -37t-30 -95q0 -50 25.5 -76.5t63.5 -26.5q33 0 56 18.5t32.5 45.5
t13 45.5t3.5 30.5z" />
    <glyph glyph-name="one.oldstyle" unicode="&#xf731;" horiz-adv-x="380" 
d="M259 0h-143l44 280l-125 -46l22 123l233 105h37z" />
    <glyph glyph-name="two.oldstyle" unicode="&#xf732;" horiz-adv-x="482" 
d="M423 130l-19 -130h-392v21q164 129 202 170q49 51 49 99q0 53 -62 53q-27 0 -56.5 -11.5t-43.5 -21t-41 -28.5l10 133q81 47 169 47q31 0 57 -5.5t52.5 -19t41.5 -41.5t15 -68q0 -31 -10 -60.5t-30 -56.5t-33.5 -42.5t-37.5 -38.5h129z" />
    <glyph glyph-name="three.oldstyle" unicode="&#xf733;" horiz-adv-x="473" 
d="M84 64l162 255h-193l26 135h393l-199 -319q57 -14 92 -62t35 -104q0 -86 -70.5 -142.5t-181.5 -56.5q-76 0 -172 35l17 121q83 -40 147 -40q51 0 85.5 24t34.5 65q0 8 -1.5 17t-9 23.5t-19.5 25.5t-35.5 19t-54.5 8q-20 0 -56 -4z" />
    <glyph glyph-name="four.oldstyle" unicode="&#xf734;" horiz-adv-x="502" 
d="M444 454l-54 -361h77l-15 -93h-75l-36 -230h-135l38 230h-256l15 93l347 361h94zM260 93l27 167l-159 -167h132z" />
    <glyph glyph-name="five.oldstyle" unicode="&#xf735;" horiz-adv-x="481" 
d="M442 454l-20 -135h-166l-44 -146q45 -7 79.5 -25t52.5 -39t29 -47t14 -43.5t3 -32.5q0 -85 -70 -150.5t-179 -65.5q-96 0 -173 51l35 110q24 -16 37 -24t41 -17t57 -9q53 0 84.5 28t31.5 71q0 54 -47 81q-33 20 -91 20q-33 0 -69 -7l115 380h280z" />
    <glyph glyph-name="six.oldstyle" unicode="&#xf736;" horiz-adv-x="513" 
d="M392 624l-139 -210q42 12 70 12q72 0 113 -43q42 -42 42 -124q0 -117 -71 -192.5t-176 -75.5q-90 0 -148.5 56.5t-58.5 159.5q0 57 29 127q28 67 96 169l121 179zM336 241q0 33 -19.5 51t-47.5 18q-44 0 -75 -34.5t-31 -80.5q0 -32 19 -53t51 -21q47 0 75 39.5t28 80.5z
" />
    <glyph glyph-name="seven.oldstyle" unicode="&#xf737;" horiz-adv-x="450" 
d="M450 454l-268 -684l-133 48l207 501h-232l26 135h400z" />
    <glyph glyph-name="eight.oldstyle" unicode="&#xf738;" horiz-adv-x="514" 
d="M353 358q21 -10 35.5 -19t36 -28t33 -47.5t11.5 -64.5q0 -84 -65.5 -146t-161.5 -62q-94 0 -152 54t-58 135q0 85 64 139q34 27 92 43q-86 52 -86 136q0 76 60 134.5t152 58.5q89 0 136 -51.5t47 -111.5q0 -39 -20 -74t-50 -57q-26 -19 -74 -39zM356 514q0 26 -15 40.5
t-36 14.5q-36 0 -52.5 -32.5t-16.5 -62.5q0 -24 14 -40.5t39 -16.5q20 0 34.5 12.5t21 31t9 31.5t2.5 22zM330 219q0 37 -21.5 55t-46.5 18q-37 0 -61.5 -31t-24.5 -73q0 -35 19.5 -53.5t46.5 -18.5q39 0 63.5 30.5t24.5 72.5z" />
    <glyph glyph-name="nine.oldstyle" unicode="&#xf739;" horiz-adv-x="512" 
d="M395 15l-162 -245l-127 61l143 209q-39 -13 -68 -13q-66 0 -110 48.5t-44 127.5q0 60 25.5 117.5t83.5 99.5t137 42q33 0 65 -9.5t65.5 -31.5t54.5 -67.5t21 -108.5q0 -103 -84 -230zM342 263q0 32 -22.5 51t-50.5 19q-44 0 -72.5 -40t-28.5 -82q0 -6 2 -14t7.5 -21.5
t21.5 -22t39 -8.5q49 0 76.5 39t27.5 79z" />
    <glyph glyph-name="a.sc" unicode="&#xf761;" horiz-adv-x="477" 
d="M428 0h-120l-14 104h-135l-46 -104h-129l239 499h119zM283 188l-20 173l-69 -173h89z" />
    <glyph glyph-name="b.sc" unicode="&#xf762;" horiz-adv-x="485" 
d="M445 146q0 -55 -43.5 -100.5t-126.5 -45.5h-242l69 493h158q87 0 126.5 -36t39.5 -88q0 -66 -58 -104q36 -16 56.5 -48t20.5 -71zM311 357q0 40 -59 40h-45l-14 -89h59q31 0 45 14t14 35zM325 157q0 55 -80 55h-65l-18 -117h87q76 0 76 62z" />
    <glyph glyph-name="c.sc" unicode="&#xf763;" horiz-adv-x="515" 
d="M495 480l-19 -105q-63 20 -121 20q-52 0 -91.5 -17.5t-61 -45.5t-31.5 -57t-10 -58q0 -56 34 -88t93 -32q73 0 183 63l-18 -127q-90 -40 -174 -40q-107 0 -173 63t-66 164q0 124 89 201.5t229 77.5q62 0 137 -19z" />
    <glyph glyph-name="d.sc" unicode="&#xf764;" horiz-adv-x="559" 
d="M519 252q0 -109 -66.5 -180.5t-165.5 -71.5h-254l69 493h164q70 0 121.5 -22t79 -59t40 -77t12.5 -83zM399 254q0 63 -40 103t-112 40h-42l-41 -302h85q74 0 112 46.5t38 112.5z" />
    <glyph glyph-name="e.sc" unicode="&#xf765;" horiz-adv-x="446" 
d="M414 493l-13 -96h-195l-14 -97h171l-13 -95h-172l-15 -110h246l-13 -95h-363l69 493h312z" />
    <glyph glyph-name="f.sc" unicode="&#xf766;" horiz-adv-x="389" 
d="M391 493l-14 -96h-171l-14 -97h149l-14 -96h-148l-29 -204h-117l69 493h289z" />
    <glyph glyph-name="g.sc" unicode="&#xf767;" horiz-adv-x="568" 
d="M536 479l-14 -104q-73 20 -132 20q-102 0 -165.5 -48.5t-63.5 -126.5q0 -60 39 -91.5t103 -31.5q32 0 64 8l10 70h-87l13 92h204l-37 -258q-59 -16 -154 -16q-140 0 -208 65.5t-68 158.5q0 49 20 97t59.5 90.5t110 68.5t160.5 26q77 0 146 -20z" />
    <glyph glyph-name="h.sc" unicode="&#xf768;" horiz-adv-x="594" 
d="M561 493l-69 -493h-117l28 194h-226l-27 -194h-117l69 493h117l-26 -189h225l26 189h117z" />
    <glyph glyph-name="i.sc" unicode="&#xf769;" horiz-adv-x="252" 
d="M219 493l-69 -493h-117l69 493h117z" />
    <glyph glyph-name="j.sc" unicode="&#xf76a;" horiz-adv-x="264" 
d="M231 493l-71 -511q-11 -83 -61.5 -117t-142.5 -23l13 94q39 1 55 14.5t22 53.5l68 489h117z" />
    <glyph glyph-name="k.sc" unicode="&#xf76b;" horiz-adv-x="527" 
d="M521 493l-221 -225l189 -268h-136l-169 240l-34 -240h-117l69 493h117l-27 -192l187 192h142z" />
    <glyph glyph-name="l.sc" unicode="&#xf76c;" horiz-adv-x="413" 
d="M378 95l-13 -95h-332l69 493h116l-55 -398h215z" />
    <glyph glyph-name="m.sc" unicode="&#xf76d;" horiz-adv-x="696" 
d="M642 0h-114l-13 304l-166 -304h-59l-79 313l-101 -313h-118l159 493h123l73 -286l152 286h120z" />
    <glyph glyph-name="n.sc" unicode="&#xf76e;" horiz-adv-x="587" 
d="M554 493l-68 -493h-107l-187 309l-42 -309h-117l69 493h112l183 -298l40 298h117z" />
    <glyph glyph-name="o.sc" unicode="&#xf76f;" horiz-adv-x="608" 
d="M568 273q0 -125 -79.5 -202.5t-201.5 -77.5q-107 0 -177 64.5t-70 165.5q0 119 81 197.5t205 78.5q107 0 174.5 -63t67.5 -163zM448 266q0 56 -36.5 92.5t-92.5 36.5q-65 0 -112 -49t-47 -118q0 -58 35.5 -94.5t91.5 -36.5q67 0 114 49t47 120z" />
    <glyph glyph-name="p.sc" unicode="&#xf770;" horiz-adv-x="457" 
d="M427 343q0 -86 -53 -125t-126 -39h-73l-25 -179h-117l68 493h162q70 0 117 -39t47 -111zM307 339q0 62 -84 62h-18l-18 -131h34q44 0 65 19.5t21 49.5z" />
    <glyph glyph-name="q.sc" unicode="&#xf771;" horiz-adv-x="608" 
d="M568 271q0 -95 -56 -172t-162 -98q25 -24 61.5 -37.5t62.5 -3.5l26 -17l-90 -90q-131 30 -233 161q-28 15 -46.5 28t-42 37.5t-36 60.5t-12.5 83q0 119 81.5 197.5t205.5 78.5q108 0 174.5 -62.5t66.5 -165.5zM448 265q0 53 -34.5 91.5t-93.5 38.5q-67 0 -113.5 -49
t-46.5 -120q0 -58 35.5 -93.5t91.5 -35.5q69 0 115 50t46 118z" />
    <glyph glyph-name="r.sc" unicode="&#xf772;" horiz-adv-x="490" 
d="M460 0h-129l-47 101q-29 63 -44 77.5t-49 14.5h-15l-26 -193h-117l68 493h170q85 0 126 -47.5t41 -104.5q0 -44 -23.5 -79t-69.5 -49q20 -14 37 -50zM318 344q0 53 -71 53h-42l-16 -114h41q45 0 66.5 18t21.5 43z" />
    <glyph glyph-name="s.sc" unicode="&#xf773;" horiz-adv-x="393" 
d="M375 457l-17 -102q-66 48 -124 48q-26 0 -42 -12.5t-16 -31.5q0 -25 51 -55q32 -19 46.5 -29.5t36.5 -30.5t31 -43.5t9 -53.5q0 -65 -44.5 -109.5t-123.5 -44.5q-95 0 -170 50l18 101q74 -55 140 -55q28 0 44 12.5t16 31.5q0 30 -52 63q-4 3 -21 13.5t-22.5 14.5
t-20 14.5t-20 17t-15 18t-13.5 21.5t-7.5 23.5t-3.5 28.5q0 66 50 109t125 43q74 0 145 -42z" />
    <glyph glyph-name="t.sc" unicode="&#xf774;" horiz-adv-x="479" 
d="M484 493l-13 -96h-155l-55 -397h-117l55 397h-150l14 96h421z" />
    <glyph glyph-name="u.sc" unicode="&#xf775;" horiz-adv-x="555" 
d="M534 493l-43 -307q-28 -193 -226 -193q-120 0 -174.5 61.5t-40.5 159.5l40 279h117l-40 -279q-5 -35 3.5 -60t26 -36.5t34 -16t34.5 -4.5q42 0 73 24t38 76l41 296h117z" />
    <glyph glyph-name="v.sc" unicode="&#xf776;" horiz-adv-x="428" 
d="M448 493l-239 -500h-61l-102 500h112l49 -264l120 264h121z" />
    <glyph glyph-name="w.sc" unicode="&#xf777;" horiz-adv-x="697" 
d="M717 493l-241 -500h-52l-73 282l-152 -282h-53l-100 500h111l48 -267l143 267h61l67 -267l121 267h120z" />
    <glyph glyph-name="x.sc" unicode="&#xf778;" horiz-adv-x="539" 
d="M559 493l-217 -252l144 -241h-129l-92 153l-136 -153h-146l222 253l-143 240h129l91 -151l131 151h146z" />
    <glyph glyph-name="y.sc" unicode="&#xf779;" horiz-adv-x="436" 
d="M456 493l-185 -288l-29 -205h-117l29 207l-103 286h118l57 -173l103 173h127z" />
    <glyph glyph-name="z.sc" unicode="&#xf77a;" horiz-adv-x="524" 
d="M514 493l-316 -398h228l-13 -95h-439l317 397h-223l14 96h432z" />
    <glyph glyph-name="agrave.sc" unicode="&#xf7e0;" horiz-adv-x="477" 
d="M428 0h-120l-14 104h-135l-46 -104h-129l239 499h119zM283 188l-20 173l-69 -173h89zM300 547l-177 172h161l89 -172h-73z" />
    <glyph glyph-name="aacute.sc" unicode="&#xf7e1;" horiz-adv-x="477" 
d="M428 0h-120l-14 104h-135l-46 -104h-129l239 499h119zM283 188l-20 173l-69 -173h89zM301 719h161l-177 -172h-73z" />
    <glyph glyph-name="acircumflex.sc" unicode="&#xf7e2;" horiz-adv-x="477" 
d="M428 0h-120l-14 104h-135l-46 -104h-129l239 499h119zM283 188l-20 173l-69 -173h89zM410 746l64 -199h-70l-83 120l-153 -120h-84l172 199h154z" />
    <glyph glyph-name="atilde.sc" unicode="&#xf7e3;" horiz-adv-x="477" 
d="M428 0h-120l-14 104h-135l-46 -104h-129l239 499h119zM283 188l-20 173l-69 -173h89zM166 547h-73q0 88 36 124.5t81 36.5q32 0 101 -39q35 -20 58 -20q36 0 36 58h73q0 -86 -36 -123t-81 -37q-18 0 -35 5.5t-29.5 12t-40.5 23.5q-30 19 -53 19q-37 0 -37 -60z" />
    <glyph glyph-name="adieresis.sc" unicode="&#xf7e4;" horiz-adv-x="477" 
d="M428 0h-120l-14 104h-135l-46 -104h-129l239 499h119zM283 188l-20 173l-69 -173h89zM404 692q27 0 46 -19t19 -46t-19 -46.5t-46 -19.5t-46.5 19.5t-19.5 46.5t19.5 46t46.5 19zM202 692q27 0 46 -19t19 -46t-19 -46.5t-46 -19.5t-46.5 19.5t-19.5 46.5t19.5 46t46.5 19
z" />
    <glyph glyph-name="aring.sc" unicode="&#xf7e5;" horiz-adv-x="477" 
d="M428 0h-120l-14 104h-135l-46 -104h-129l239 499h119zM283 188l-20 173l-69 -173h89zM300 777q47 0 81 -33.5t34 -81.5t-33.5 -81.5t-81.5 -33.5t-81.5 33.5t-33.5 81.5t34 81.5t81 33.5zM301 725q-26 0 -44 -18t-18 -44q0 -25 18.5 -43.5t43.5 -18.5q26 0 44 18t18 44
t-18 44t-44 18z" />
    <glyph glyph-name="ae.sc" unicode="&#xf7e6;" horiz-adv-x="754" 
d="M722 95l-15 -95h-385l17 118h-153l-75 -118h-135l315 493h431l-11 -96h-216l-13 -96h191l-14 -96h-191l-15 -110h269zM379 406h-11l-127 -202h110z" />
    <glyph glyph-name="ccedilla.sc" unicode="&#xf7e7;" horiz-adv-x="515" 
d="M495 480l-19 -105q-63 20 -121 20q-52 0 -91.5 -17.5t-61 -45.5t-31.5 -57t-10 -58q0 -56 34 -88t93 -32q73 0 183 63l-18 -127q-80 -35 -146 -39l-5 -17q53 -14 53 -67q0 -39 -30.5 -61.5t-85.5 -22.5q-44 0 -69 10l10 45q20 -5 45 -5q53 0 53 32q0 30 -43 32l24 54
q-99 6 -159 68t-60 158q0 124 89 201.5t229 77.5q62 0 137 -19z" />
    <glyph glyph-name="egrave.sc" unicode="&#xf7e8;" horiz-adv-x="446" 
d="M414 493l-13 -96h-195l-14 -97h171l-13 -95h-172l-15 -110h246l-13 -95h-363l69 493h312zM285 547l-177 172h161l89 -172h-73z" />
    <glyph glyph-name="eacute.sc" unicode="&#xf7e9;" horiz-adv-x="446" 
d="M414 493l-13 -96h-195l-14 -97h171l-13 -95h-172l-15 -110h246l-13 -95h-363l69 493h312zM286 719h161l-177 -172h-73z" />
    <glyph glyph-name="ecircumflex.sc" unicode="&#xf7ea;" horiz-adv-x="446" 
d="M414 493l-13 -96h-195l-14 -97h171l-13 -95h-172l-15 -110h246l-13 -95h-363l69 493h312zM395 746l64 -199h-70l-83 120l-153 -120h-84l172 199h154z" />
    <glyph glyph-name="edieresis.sc" unicode="&#xf7eb;" horiz-adv-x="446" 
d="M414 493l-13 -96h-195l-14 -97h171l-13 -95h-172l-15 -110h246l-13 -95h-363l69 493h312zM389 692q27 0 46 -19t19 -46t-19 -46.5t-46 -19.5t-46.5 19.5t-19.5 46.5t19.5 46t46.5 19zM187 692q27 0 46 -19t19 -46t-19 -46.5t-46 -19.5t-46.5 19.5t-19.5 46.5t19.5 46
t46.5 19z" />
    <glyph glyph-name="igrave.sc" unicode="&#xf7ec;" horiz-adv-x="252" 
d="M219 493l-69 -493h-117l69 493h117zM188 547l-177 172h161l89 -172h-73z" />
    <glyph glyph-name="iacute.sc" unicode="&#xf7ed;" horiz-adv-x="252" 
d="M219 493l-69 -493h-117l69 493h117zM189 719h161l-177 -172h-73z" />
    <glyph glyph-name="icircumflex.sc" unicode="&#xf7ee;" horiz-adv-x="252" 
d="M219 493l-69 -493h-117l69 493h117zM298 746l64 -199h-70l-83 120l-153 -120h-84l172 199h154z" />
    <glyph glyph-name="idieresis.sc" unicode="&#xf7ef;" horiz-adv-x="252" 
d="M219 493l-69 -493h-117l69 493h117zM292 692q27 0 46 -19t19 -46t-19 -46.5t-46 -19.5t-46.5 19.5t-19.5 46.5t19.5 46t46.5 19zM90 692q27 0 46 -19t19 -46t-19 -46.5t-46 -19.5t-46.5 19.5t-19.5 46.5t19.5 46t46.5 19z" />
    <glyph glyph-name="eth.sc" unicode="&#xf7f0;" horiz-adv-x="559" 
d="M62 210h-62l8 72h64l30 211h164q70 0 121.5 -22t79 -59t40 -77t12.5 -83q0 -109 -66.5 -180.5t-165.5 -71.5h-254zM205 397l-16 -115h112l-9 -72h-113l-15 -115h85q74 0 112 46.5t38 112.5q0 63 -40 103t-112 40h-42z" />
    <glyph glyph-name="ntilde.sc" unicode="&#xf7f1;" horiz-adv-x="587" 
d="M554 493l-68 -493h-107l-187 309l-42 -309h-117l69 493h112l183 -298l40 298h117zM221 547h-73q0 88 36 124.5t81 36.5q32 0 101 -39q35 -20 58 -20q36 0 36 58h73q0 -86 -36 -123t-81 -37q-18 0 -35 5.5t-29.5 12t-40.5 23.5q-30 19 -53 19q-37 0 -37 -60z" />
    <glyph glyph-name="ograve.sc" unicode="&#xf7f2;" horiz-adv-x="608" 
d="M568 273q0 -125 -79.5 -202.5t-201.5 -77.5q-107 0 -177 64.5t-70 165.5q0 119 81 197.5t205 78.5q107 0 174.5 -63t67.5 -163zM448 266q0 56 -36.5 92.5t-92.5 36.5q-65 0 -112 -49t-47 -118q0 -58 35.5 -94.5t91.5 -36.5q67 0 114 49t47 120zM366 547l-177 172h161
l89 -172h-73z" />
    <glyph glyph-name="oacute.sc" unicode="&#xf7f3;" horiz-adv-x="608" 
d="M568 273q0 -125 -79.5 -202.5t-201.5 -77.5q-107 0 -177 64.5t-70 165.5q0 119 81 197.5t205 78.5q107 0 174.5 -63t67.5 -163zM448 266q0 56 -36.5 92.5t-92.5 36.5q-65 0 -112 -49t-47 -118q0 -58 35.5 -94.5t91.5 -36.5q67 0 114 49t47 120zM367 719h161l-177 -172
h-73z" />
    <glyph glyph-name="ocircumflex.sc" unicode="&#xf7f4;" horiz-adv-x="608" 
d="M568 273q0 -125 -79.5 -202.5t-201.5 -77.5q-107 0 -177 64.5t-70 165.5q0 119 81 197.5t205 78.5q107 0 174.5 -63t67.5 -163zM448 266q0 56 -36.5 92.5t-92.5 36.5q-65 0 -112 -49t-47 -118q0 -58 35.5 -94.5t91.5 -36.5q67 0 114 49t47 120zM476 746l64 -199h-70
l-83 120l-153 -120h-84l172 199h154z" />
    <glyph glyph-name="otilde.sc" unicode="&#xf7f5;" horiz-adv-x="608" 
d="M568 273q0 -125 -79.5 -202.5t-201.5 -77.5q-107 0 -177 64.5t-70 165.5q0 119 81 197.5t205 78.5q107 0 174.5 -63t67.5 -163zM448 266q0 56 -36.5 92.5t-92.5 36.5q-65 0 -112 -49t-47 -118q0 -58 35.5 -94.5t91.5 -36.5q67 0 114 49t47 120zM232 547h-73
q0 88 36 124.5t81 36.5q32 0 101 -39q35 -20 58 -20q36 0 36 58h73q0 -86 -36 -123t-81 -37q-18 0 -35 5.5t-29.5 12t-40.5 23.5q-30 19 -53 19q-37 0 -37 -60z" />
    <glyph glyph-name="odieresis.sc" unicode="&#xf7f6;" horiz-adv-x="608" 
d="M568 273q0 -125 -79.5 -202.5t-201.5 -77.5q-107 0 -177 64.5t-70 165.5q0 119 81 197.5t205 78.5q107 0 174.5 -63t67.5 -163zM448 266q0 56 -36.5 92.5t-92.5 36.5q-65 0 -112 -49t-47 -118q0 -58 35.5 -94.5t91.5 -36.5q67 0 114 49t47 120zM470 692q27 0 46 -19
t19 -46t-19 -46.5t-46 -19.5t-46.5 19.5t-19.5 46.5t19.5 46t46.5 19zM268 692q27 0 46 -19t19 -46t-19 -46.5t-46 -19.5t-46.5 19.5t-19.5 46.5t19.5 46t46.5 19z" />
    <glyph glyph-name="oslash.sc" unicode="&#xf7f8;" horiz-adv-x="608" 
d="M568 273q0 -125 -79.5 -202.5t-201.5 -77.5q-78 0 -139 36l-69 -79l-37 33l66 76q-68 63 -68 164q0 119 81 197.5t205 78.5q76 0 134 -33l67 77l38 -31l-65 -76q68 -63 68 -163zM448 266q0 47 -26 81l-201 -233q29 -17 66 -17q67 0 114 49t47 120zM385 379q-30 16 -66 16
q-65 0 -112 -49t-47 -118q0 -46 24 -81z" />
    <glyph glyph-name="ugrave.sc" unicode="&#xf7f9;" horiz-adv-x="555" 
d="M534 493l-43 -307q-28 -193 -226 -193q-120 0 -174.5 61.5t-40.5 159.5l40 279h117l-40 -279q-5 -35 3.5 -60t26 -36.5t34 -16t34.5 -4.5q42 0 73 24t38 76l41 296h117zM339 547l-177 172h161l89 -172h-73z" />
    <glyph glyph-name="uacute.sc" unicode="&#xf7fa;" horiz-adv-x="555" 
d="M534 493l-43 -307q-28 -193 -226 -193q-120 0 -174.5 61.5t-40.5 159.5l40 279h117l-40 -279q-5 -35 3.5 -60t26 -36.5t34 -16t34.5 -4.5q42 0 73 24t38 76l41 296h117zM340 719h161l-177 -172h-73z" />
    <glyph glyph-name="ucircumflex.sc" unicode="&#xf7fb;" horiz-adv-x="555" 
d="M534 493l-43 -307q-28 -193 -226 -193q-120 0 -174.5 61.5t-40.5 159.5l40 279h117l-40 -279q-5 -35 3.5 -60t26 -36.5t34 -16t34.5 -4.5q42 0 73 24t38 76l41 296h117zM449 746l64 -199h-70l-83 120l-153 -120h-84l172 199h154z" />
    <glyph glyph-name="udieresis.sc" unicode="&#xf7fc;" horiz-adv-x="555" 
d="M534 493l-43 -307q-28 -193 -226 -193q-120 0 -174.5 61.5t-40.5 159.5l40 279h117l-40 -279q-5 -35 3.5 -60t26 -36.5t34 -16t34.5 -4.5q42 0 73 24t38 76l41 296h117zM443 692q27 0 46 -19t19 -46t-19 -46.5t-46 -19.5t-46.5 19.5t-19.5 46.5t19.5 46t46.5 19zM241 692
q27 0 46 -19t19 -46t-19 -46.5t-46 -19.5t-46.5 19.5t-19.5 46.5t19.5 46t46.5 19z" />
    <glyph glyph-name="yacute.sc" unicode="&#xf7fd;" horiz-adv-x="436" 
d="M456 493l-185 -288l-29 -205h-117l29 207l-103 286h118l57 -173l103 173h127zM301 719h161l-177 -172h-73z" />
    <glyph glyph-name="thorn.sc" unicode="&#xf7fe;" horiz-adv-x="457" 
d="M415 253q0 -86 -53 -125t-126 -39h-73l-13 -89h-117l68 493l117 1l-12 -90l45 -1q71 -2 117.5 -40t46.5 -110zM295 249q0 62 -84 62h-18l-18 -131h34q44 0 65 19.5t21 49.5z" />
    <glyph glyph-name="ydieresis.sc" unicode="&#xf7ff;" horiz-adv-x="436" 
d="M456 493l-185 -288l-29 -205h-117l29 207l-103 286h118l57 -173l103 173h127zM369 692q27 0 46 -19t19 -46t-19 -46.5t-46 -19.5t-46.5 19.5t-19.5 46.5t19.5 46t46.5 19zM167 692q27 0 46 -19t19 -46t-19 -46.5t-46 -19.5t-46.5 19.5t-19.5 46.5t19.5 46t46.5 19z" />
    </font>
</defs>
</svg>
